<svg width="71" height="60" viewBox="0 0 71 60" fill="none" xmlns="http://www.w3.org/2000/svg">
<path d="M70.373 28.0914C70.373 43.6059 54.6183 56.1829 35.1865 56.1829C31.7015 56.1871 28.231 55.7743 24.8637 54.9549C22.2951 56.1427 16.3969 58.4221 6.47432 59.907C5.59466 60.0354 4.92611 59.2007 5.27358 58.4543C6.83058 55.0993 8.23804 50.6288 8.66028 46.5515C3.27235 41.6154 0 35.1544 0 28.0914C0 12.5769 15.7548 0 35.1865 0C54.6183 0 70.373 12.5769 70.373 28.0914ZM21.9916 28.0914C21.9916 27.0271 21.5282 26.0064 20.7033 25.2538C19.8785 24.5012 18.7598 24.0784 17.5933 24.0784C16.4267 24.0784 15.308 24.5012 14.4832 25.2538C13.6583 26.0064 13.1949 27.0271 13.1949 28.0914C13.1949 29.1558 13.6583 30.1765 14.4832 30.9291C15.308 31.6817 16.4267 32.1045 17.5933 32.1045C18.7598 32.1045 19.8785 31.6817 20.7033 30.9291C21.5282 30.1765 21.9916 29.1558 21.9916 28.0914ZM39.5848 28.0914C39.5848 27.0271 39.1214 26.0064 38.2966 25.2538C37.4717 24.5012 36.353 24.0784 35.1865 24.0784C34.02 24.0784 32.9013 24.5012 32.0764 25.2538C31.2516 26.0064 30.7882 27.0271 30.7882 28.0914C30.7882 29.1558 31.2516 30.1765 32.0764 30.9291C32.9013 31.6817 34.02 32.1045 35.1865 32.1045C36.353 32.1045 37.4717 31.6817 38.2966 30.9291C39.1214 30.1765 39.5848 29.1558 39.5848 28.0914ZM52.7798 32.1045C53.9463 32.1045 55.065 31.6817 55.8898 30.9291C56.7147 30.1765 57.1781 29.1558 57.1781 28.0914C57.1781 27.0271 56.7147 26.0064 55.8898 25.2538C55.065 24.5012 53.9463 24.0784 52.7798 24.0784C51.6133 24.0784 50.4945 24.5012 49.6697 25.2538C48.8448 26.0064 48.3814 27.0271 48.3814 28.0914C48.3814 29.1558 48.8448 30.1765 49.6697 30.9291C50.4945 31.6817 51.6133 32.1045 52.7798 32.1045Z" fill="#6FA4E9"/>
</svg>
