<svg width="32" height="31" viewBox="0 0 32 31" fill="none" xmlns="http://www.w3.org/2000/svg">
<path d="M3.01251 0.900666C4.71349 -0.0242709 6.88253 -0.240992 8.95597 0.269851C9.9658 0.517533 10.8282 1.15415 11.3461 2.03071L13.1347 5.06095C13.7722 6.14126 13.9563 7.41878 13.6488 8.62765C13.3412 9.83651 12.5657 10.8836 11.4835 11.551L9.91003 12.5224C9.25872 12.9229 9.01971 13.5363 9.16909 14.022C9.70288 15.7596 10.884 17.6869 12.1826 19.0066C12.569 19.4013 13.2781 19.4942 13.9713 19.1014L14.8417 18.608C15.4128 18.2846 16.0445 18.0749 16.6999 17.9911C17.3553 17.9074 18.0214 17.9513 18.6591 18.1202C19.2969 18.2892 19.8937 18.5798 20.4146 18.9752C20.9356 19.3705 21.3703 19.8627 21.6934 20.423L23.2967 23.1998C23.8206 24.1092 23.9062 25.1948 23.5358 26.172C22.7968 28.1128 21.3727 29.6763 19.6219 30.4619C17.8433 31.2572 15.7619 31.2243 13.8776 30.0033C10.894 28.0721 7.29881 24.8213 4.04226 19.3994C0.74388 13.904 -0.0866904 9.22703 0.00692301 5.74014C0.0666763 3.50906 1.28166 1.84108 3.01251 0.900666Z" fill="#6FA4E9"/>
<path d="M21.3159 0.1654C21.085 0.0406926 20.8126 0.0101832 20.5586 0.0805832C20.3046 0.150983 20.0898 0.316526 19.9615 0.540794C19.8331 0.765061 19.8017 1.02968 19.8742 1.27645C19.9466 1.52321 20.117 1.7319 20.3479 1.85661L21.1127 2.2707C23.5021 3.56021 25.5345 5.39256 27.0364 7.61117C28.5383 9.82978 29.4649 12.3687 29.7371 15.0109L29.8008 15.6204C29.8083 15.7509 29.843 15.8785 29.9027 15.9956C29.9623 16.1127 30.0458 16.2168 30.148 16.3017C30.2503 16.3866 30.3692 16.4505 30.4975 16.4896C30.6259 16.5286 30.761 16.542 30.8948 16.529C31.0287 16.5159 31.1584 16.4766 31.2761 16.4135C31.3939 16.3504 31.4973 16.2648 31.5801 16.1618C31.6629 16.0588 31.7233 15.9406 31.7578 15.8143C31.7923 15.688 31.8 15.5562 31.7807 15.4269L31.7189 14.8193C31.415 11.8657 30.3794 9.02746 28.7006 6.54732C27.0218 4.06719 24.7498 2.01889 22.0787 0.577559L21.3159 0.1654Z" fill="#6FA4E9"/>
<path d="M18.9849 5.35135C19.121 5.13148 19.3413 4.9731 19.5976 4.91105C19.8538 4.849 20.1249 4.88836 20.3513 5.02046L20.5983 5.16366C22.2056 6.10032 23.5845 7.36489 24.6396 8.86998C25.6946 10.3751 26.4007 12.0848 26.709 13.8809L26.7967 14.3976C26.8225 14.5246 26.8218 14.6554 26.7946 14.7822C26.7675 14.909 26.7144 15.0292 26.6385 15.1357C26.5626 15.2422 26.4655 15.3328 26.3529 15.4021C26.2403 15.4715 26.1145 15.5182 25.983 15.5394C25.8515 15.5607 25.717 15.556 25.5874 15.5258C25.4577 15.4956 25.3357 15.4404 25.2284 15.3636C25.1211 15.2867 25.0308 15.1896 24.9629 15.0782C24.8949 14.9668 24.8507 14.8433 24.8328 14.7149L24.7431 14.1983C24.4825 12.6786 23.8854 11.232 22.993 9.95844C22.1006 8.68489 20.9342 7.61475 19.5745 6.82197L19.3275 6.67878C19.2153 6.61349 19.1174 6.52736 19.0394 6.42531C18.9615 6.32325 18.905 6.20728 18.8732 6.08401C18.8413 5.96074 18.8348 5.83259 18.854 5.70688C18.8732 5.58117 18.9177 5.46036 18.9849 5.35135Z" fill="#6FA4E9"/>
</svg>
