<svg width="21" height="19" viewBox="0 0 21 19" fill="none" xmlns="http://www.w3.org/2000/svg">
<path d="M6.09044 0.505368L6.0908 0.505454C6.62005 0.635265 7.0692 0.968231 7.33775 1.4228L8.43391 3.27988C8.43391 3.2799 8.43392 3.27991 8.43393 3.27992C8.77794 3.86293 8.87677 4.551 8.71121 5.20176C8.54558 5.85276 8.12718 6.41949 7.5396 6.78187L7.53947 6.78196L6.57557 7.377C6.57548 7.37706 6.57539 7.37711 6.5753 7.37717C6.07917 7.68242 5.81965 8.20749 5.97026 8.69716C6.31498 9.81924 7.06952 11.0484 7.90209 11.8945C8.27573 12.2758 8.89268 12.3111 9.42062 12.0119H9.42067L9.95399 11.7096C9.95404 11.7095 9.95409 11.7095 9.95414 11.7095C10.2644 11.5338 10.6079 11.4197 10.9648 11.3741C11.3218 11.3285 11.6845 11.3524 12.0317 11.4444C12.3788 11.5363 12.7031 11.6944 12.9857 11.9089C13.2682 12.1233 13.5033 12.3897 13.6778 12.6923L13.6779 12.6925L14.6604 14.394C14.929 14.8602 14.9728 15.4157 14.7831 15.9165C14.3601 17.0273 13.549 17.9107 12.5685 18.3508C11.5795 18.793 10.43 18.7752 9.38102 18.0955L9.38086 18.0954C7.59646 16.9405 5.43075 14.9867 3.46258 11.7098C1.4747 8.39784 0.983594 5.59695 1.03915 3.52768V3.52766C1.07207 2.29851 1.73512 1.38313 2.6985 0.859696L2.53155 0.552427L2.69861 0.859639C3.65417 0.340032 4.89228 0.210169 6.09044 0.505368Z" stroke="#6FA4E9" stroke-width="0.7"/>
<path d="M13.7498 0.101106C13.6083 0.0246729 13.4414 0.00597355 13.2857 0.0491219C13.13 0.0922703 12.9984 0.193732 12.9197 0.331186C12.841 0.468641 12.8218 0.630829 12.8662 0.78207C12.9106 0.933312 13.015 1.06122 13.1565 1.13765L13.6253 1.39145C15.0898 2.18179 16.3355 3.30485 17.256 4.66464C18.1765 6.02443 18.7444 7.58053 18.9112 9.19994L18.9503 9.57352C18.9549 9.65348 18.9761 9.73171 19.0127 9.80348C19.0493 9.87525 19.1004 9.93908 19.1631 9.99111C19.2258 10.0432 19.2986 10.0823 19.3773 10.1063C19.456 10.1302 19.5388 10.1384 19.6208 10.1304C19.7028 10.1224 19.7823 10.0983 19.8545 10.0596C19.9267 10.0209 19.9901 9.96845 20.0408 9.90533C20.0915 9.84221 20.1286 9.76976 20.1497 9.69235C20.1708 9.61494 20.1756 9.53417 20.1637 9.45492L20.1259 9.08253C19.9396 7.27224 19.3049 5.53269 18.276 4.01261C17.247 2.49252 15.8545 1.23712 14.2174 0.35372L13.7498 0.101106Z" fill="#6FA4E9"/>
<path d="M12.3211 3.27966C12.4045 3.1449 12.5395 3.04783 12.6966 3.0098C12.8536 2.97177 13.0198 2.99589 13.1585 3.07685L13.3099 3.16462C14.2951 3.7387 15.1402 4.51376 15.7868 5.43623C16.4335 6.35871 16.8662 7.40659 17.0552 8.50746L17.1089 8.82412C17.1247 8.90199 17.1243 8.98216 17.1077 9.05987C17.091 9.13758 17.0585 9.21125 17.012 9.27651C16.9655 9.34178 16.9059 9.39731 16.8369 9.43981C16.7679 9.48231 16.6908 9.51092 16.6102 9.52395C16.5297 9.53697 16.4472 9.53414 16.3677 9.51563C16.2883 9.49711 16.2135 9.46329 16.1477 9.41617C16.082 9.36904 16.0266 9.30957 15.985 9.24128C15.9433 9.17299 15.9162 9.09728 15.9052 9.01862L15.8503 8.70196C15.6906 7.77054 15.3246 6.88392 14.7776 6.10336C14.2307 5.32279 13.5158 4.6669 12.6824 4.181L12.531 4.09324C12.4623 4.05322 12.4023 4.00043 12.3545 3.93789C12.3067 3.87534 12.2721 3.80426 12.2526 3.72871C12.2331 3.65315 12.2291 3.57461 12.2408 3.49756C12.2526 3.42051 12.2799 3.34647 12.3211 3.27966Z" fill="#6FA4E9"/>
</svg>
