<svg width="24" height="31" viewBox="0 0 24 31" fill="none" xmlns="http://www.w3.org/2000/svg">
<path d="M3.01251 0.900666C4.71349 -0.0242709 6.88253 -0.240992 8.95597 0.269851C9.9658 0.517533 10.8282 1.15415 11.3461 2.03071L13.1347 5.06095C13.7722 6.14126 13.9563 7.41878 13.6488 8.62765C13.3412 9.83651 12.5657 10.8836 11.4835 11.551L9.91003 12.5224C9.25872 12.9229 9.01971 13.5363 9.16909 14.022C9.70288 15.7596 10.884 17.6869 12.1826 19.0066C12.569 19.4013 13.2781 19.4942 13.9713 19.1014L14.8417 18.608C15.4128 18.2846 16.0445 18.0749 16.6999 17.9911C17.3553 17.9074 18.0214 17.9513 18.6591 18.1202C19.2969 18.2892 19.8937 18.5798 20.4146 18.9752C20.9356 19.3705 21.3703 19.8627 21.6934 20.423L23.2967 23.1998C23.8206 24.1092 23.9062 25.1948 23.5358 26.172C22.7968 28.1128 21.3727 29.6763 19.6219 30.4619C17.8433 31.2572 15.7619 31.2243 13.8776 30.0033C10.894 28.0721 7.29881 24.8213 4.04226 19.3994C0.74388 13.904 -0.0866904 9.22703 0.00692301 5.74014C0.0666763 3.50906 1.28166 1.84108 3.01251 0.900666Z" fill="url(#paint0_linear)"/>
<defs>
<linearGradient id="paint0_linear" x1="-20.8752" y1="29.2888" x2="31.0167" y2="56.846" gradientUnits="userSpaceOnUse">
<stop stop-color="#4DF149"/>
<stop offset="1" stop-color="#36A800"/>
</linearGradient>
</defs>
</svg>
