<svg width="22" height="19" viewBox="0 0 22 19" fill="none" xmlns="http://www.w3.org/2000/svg">
<path d="M15.869 0C13.773 0 11.982 1.47675 10.998 2.49485C10.014 1.47675 8.227 0 6.132 0C2.521 0 0 2.48793 0 6.04932C0 9.97347 3.131 12.5098 6.16 14.9632C7.59 16.1226 9.07 17.3206 10.205 18.6491C10.396 18.8715 10.676 19 10.97 19H11.028C11.323 19 11.602 18.8705 11.792 18.6491C12.929 17.3206 14.408 16.1216 15.839 14.9632C18.867 12.5108 22 9.97446 22 6.04932C22 2.48793 19.479 0 15.869 0Z" fill="#FF5252"/>
</svg>
