<svg width="20" height="20" viewBox="0 0 20 20" fill="none" xmlns="http://www.w3.org/2000/svg">
<path d="M1.86672 0.745603C2.92074 0.17246 4.2648 0.0381674 5.54962 0.354715C6.17537 0.508193 6.70979 0.902678 7.03068 1.44585L8.13901 3.32355C8.53403 3.99297 8.64813 4.7846 8.45755 5.53368C8.26697 6.28276 7.7864 6.93159 7.11584 7.34514L6.14081 7.94706C5.73722 8.19526 5.58912 8.57536 5.68169 8.87632C6.01246 9.95306 6.74435 11.1473 7.54905 11.9651C7.78849 12.2097 8.22787 12.2672 8.65738 12.0238L9.19673 11.7181C9.55064 11.5177 9.94207 11.3877 10.3482 11.3358C10.7543 11.2839 11.167 11.3111 11.5623 11.4158C11.9575 11.5205 12.3272 11.7006 12.6501 11.9456C12.9729 12.1906 13.2422 12.4956 13.4424 12.8428L14.436 14.5634C14.7606 15.1269 14.8137 15.7996 14.5841 16.4051C14.1262 17.6078 13.2437 18.5766 12.1589 19.0634C11.0567 19.5562 9.76694 19.5358 8.59937 18.7792C6.75052 17.5826 4.52276 15.5682 2.50481 12.2085C0.46095 8.80318 -0.0537183 5.90509 0.00428989 3.74441C0.0413164 2.36191 0.794188 1.32834 1.86672 0.745603Z" fill="#DBECFF"/>
<path d="M13.2117 0.289918C13.0687 0.212642 12.8999 0.193737 12.7425 0.237361C12.5851 0.280985 12.452 0.383564 12.3725 0.522533C12.2929 0.661502 12.2735 0.825477 12.3184 0.978385C12.3633 1.13129 12.4689 1.26061 12.6119 1.33789L13.0858 1.59448C14.5664 2.39353 15.8258 3.52896 16.7565 4.90374C17.6871 6.27851 18.2613 7.85175 18.43 9.48901L18.4695 9.86671C18.4741 9.94755 18.4956 10.0266 18.5326 10.0992C18.5696 10.1718 18.6213 10.2363 18.6846 10.2889C18.748 10.3415 18.8217 10.3811 18.9012 10.4053C18.9807 10.4295 19.0645 10.4378 19.1474 10.4297C19.2303 10.4216 19.3107 10.3973 19.3837 10.3582C19.4567 10.319 19.5207 10.266 19.572 10.2022C19.6233 10.1384 19.6608 10.0651 19.6821 9.98684C19.7035 9.90858 19.7083 9.82692 19.6963 9.7468L19.658 9.3703C19.4697 7.54006 18.828 5.78135 17.7877 4.24452C16.7474 2.70769 15.3396 1.43845 13.6844 0.545315L13.2117 0.289918Z" fill="#DBECFF"/>
<path d="M11.765 3.50341C11.8493 3.36716 11.9859 3.26902 12.1447 3.23057C12.3034 3.19212 12.4714 3.21651 12.6117 3.29837L12.7647 3.3871C13.7608 3.96751 14.6152 4.75111 15.269 5.68375C15.9227 6.61638 16.3603 7.67581 16.5513 8.78881L16.6056 9.10896C16.6216 9.18769 16.6212 9.26874 16.6044 9.34731C16.5875 9.42587 16.5546 9.50035 16.5076 9.56634C16.4606 9.63232 16.4004 9.68846 16.3306 9.73143C16.2609 9.77441 16.1829 9.80333 16.1015 9.8165C16.02 9.82967 15.9366 9.82681 15.8563 9.80809C15.7759 9.78937 15.7003 9.75517 15.6338 9.70753C15.5674 9.65988 15.5114 9.59976 15.4693 9.53072C15.4272 9.46168 15.3998 9.38512 15.3887 9.3056L15.3331 8.98545C15.1716 8.04377 14.8016 7.14738 14.2487 6.35822C13.6957 5.56906 12.9729 4.90594 12.1304 4.41468L11.9773 4.32595C11.9078 4.2855 11.8471 4.23212 11.7988 4.16889C11.7505 4.10565 11.7155 4.03379 11.6958 3.9574C11.6761 3.88102 11.672 3.80161 11.6839 3.72371C11.6958 3.64581 11.7234 3.57095 11.765 3.50341Z" fill="#DBECFF"/>
</svg>
