<svg width="28" height="27" viewBox="0 0 28 27" fill="none" xmlns="http://www.w3.org/2000/svg">
<path d="M3.01708 1.02339C4.46478 0.236179 6.31086 0.0517268 8.07557 0.486507C8.93503 0.697309 9.66906 1.23914 10.1098 1.98518L11.6321 4.56422C12.1747 5.48367 12.3314 6.57098 12.0696 7.59984C11.8079 8.62871 11.1478 9.51989 10.2268 10.0879L8.88757 10.9146C8.33324 11.2555 8.12981 11.7776 8.25695 12.191C8.71127 13.6699 9.71652 15.3102 10.8218 16.4334C11.1507 16.7694 11.7542 16.8484 12.3441 16.5141L13.0849 16.0941C13.571 15.8189 14.1086 15.6404 14.6664 15.5691C15.2243 15.4979 15.7911 15.5352 16.3339 15.679C16.8768 15.8228 17.3847 16.0702 17.8281 16.4066C18.2714 16.7431 18.6414 17.162 18.9164 17.6389L20.281 20.0022C20.7269 20.7762 20.7998 21.7001 20.4845 22.5318C19.8555 24.1837 18.6435 25.5144 17.1534 26.183C15.6396 26.8599 13.8681 26.8319 12.2644 25.7927C9.725 24.1491 6.66516 21.3823 3.8935 16.7677C1.08624 12.0905 0.379343 8.10998 0.459017 5.14228C0.509873 3.24341 1.54395 1.82378 3.01708 1.02339Z" fill="#E3E6E9"/>
<path d="M18.5994 0.397487C18.4029 0.291348 18.1711 0.265382 17.9549 0.325299C17.7388 0.385217 17.5559 0.52611 17.4467 0.716985C17.3374 0.90786 17.3107 1.13308 17.3724 1.3431C17.434 1.55312 17.5791 1.73074 17.7755 1.83688L18.4265 2.18931C20.4601 3.28681 22.1899 4.84633 23.4682 6.73459C24.7464 8.62286 25.5351 10.7837 25.7667 13.0325L25.821 13.5513C25.8274 13.6623 25.8569 13.7709 25.9077 13.8706C25.9584 13.9702 26.0295 14.0589 26.1165 14.1311C26.2035 14.2034 26.3047 14.2578 26.4139 14.291C26.5232 14.3243 26.6382 14.3357 26.7521 14.3245C26.866 14.3134 26.9764 14.28 27.0766 14.2263C27.1769 14.1726 27.2649 14.0997 27.3353 14.012C27.4058 13.9244 27.4572 13.8238 27.4865 13.7163C27.5159 13.6088 27.5225 13.4966 27.506 13.3866L27.4535 12.8694C27.1948 10.3556 26.3134 7.94 24.8846 5.82915C23.4557 3.7183 21.522 1.975 19.2487 0.748276L18.5994 0.397487Z" fill="#E3E6E9"/>
<path d="M16.6128 4.8113C16.7286 4.62417 16.9161 4.48937 17.1342 4.43656C17.3523 4.38375 17.583 4.41724 17.7757 4.52968L17.9859 4.65155C19.3539 5.44875 20.5275 6.52503 21.4254 7.80601C22.3234 9.08699 22.9244 10.5421 23.1868 12.0708L23.2613 12.5106C23.2833 12.6187 23.2827 12.73 23.2596 12.8379C23.2365 12.9458 23.1913 13.0481 23.1267 13.1388C23.0621 13.2294 22.9795 13.3065 22.8837 13.3655C22.7878 13.4246 22.6808 13.4643 22.5689 13.4824C22.4569 13.5005 22.3424 13.4965 22.2321 13.4708C22.1218 13.4451 22.0179 13.3981 21.9266 13.3327C21.8353 13.2673 21.7584 13.1847 21.7006 13.0898C21.6428 12.995 21.6051 12.8899 21.5899 12.7806L21.5136 12.3409C21.2918 11.0475 20.7835 9.81632 20.024 8.7324C19.2645 7.64848 18.2718 6.73769 17.1145 6.06294L16.9043 5.94107C16.8088 5.88551 16.7255 5.8122 16.6591 5.72534C16.5928 5.63849 16.5447 5.53978 16.5176 5.43487C16.4906 5.32995 16.485 5.22089 16.5013 5.11389C16.5177 5.0069 16.5555 4.90408 16.6128 4.8113Z" fill="#E3E6E9"/>
</svg>
