<svg width="21" height="21" viewBox="0 0 21 21" fill="none" xmlns="http://www.w3.org/2000/svg">
<path d="M10.5 21C8.4233 21 6.39323 20.3842 4.66652 19.2304C2.9398 18.0767 1.59399 16.4368 0.79927 14.5182C0.0045495 12.5996 -0.203386 10.4884 0.201759 8.45156C0.606904 6.41476 1.60693 4.54383 3.07538 3.07538C4.54383 1.60693 6.41476 0.606904 8.45156 0.201759C10.4884 -0.203386 12.5996 0.0045495 14.5182 0.79927C16.4368 1.59399 18.0767 2.9398 19.2304 4.66652C20.3842 6.39323 21 8.4233 21 10.5C20.9969 13.2838 19.8896 15.9527 17.9212 17.9212C15.9527 19.8896 13.2838 20.9969 10.5 21V21ZM10.5 2.09963C8.83857 2.09963 7.21444 2.5923 5.833 3.51535C4.45157 4.43839 3.37487 5.75035 2.73907 7.28532C2.10326 8.82029 1.93691 10.5093 2.26104 12.1388C2.58517 13.7684 3.38523 15.2652 4.56004 16.44C5.73485 17.6148 7.23166 18.4148 8.86117 18.739C10.4907 19.0631 12.1797 18.8967 13.7147 18.2609C15.2497 17.6251 16.5616 16.5484 17.4847 15.167C18.4077 13.7856 18.9004 12.1614 18.9004 10.5C18.8984 8.2727 18.0127 6.13719 16.4378 4.56225C14.8628 2.98731 12.7273 2.10163 10.5 2.09963V2.09963Z" fill="#63CDFF"/>
<path d="M6.82532 9.44993C7.69508 9.44993 8.40016 8.74485 8.40016 7.8751C8.40016 7.00534 7.69508 6.30026 6.82532 6.30026C5.95557 6.30026 5.25049 7.00534 5.25049 7.8751C5.25049 8.74485 5.95557 9.44993 6.82532 9.44993Z" fill="#63CDFF"/>
<path d="M14.1749 9.44993C15.0447 9.44993 15.7498 8.74485 15.7498 7.8751C15.7498 7.00534 15.0447 6.30026 14.1749 6.30026C13.3052 6.30026 12.6001 7.00534 12.6001 7.8751C12.6001 8.74485 13.3052 9.44993 14.1749 9.44993Z" fill="#63CDFF"/>
<path d="M15.0576 12.9459C14.5703 13.739 13.8878 14.3939 13.0752 14.8481C12.2626 15.3023 11.3472 15.5405 10.4163 15.54C9.48539 15.5405 8.56993 15.3023 7.75736 14.8481C6.94478 14.3939 6.26223 13.739 5.7749 12.9459" stroke="#63CDFF" stroke-width="1.5"/>
</svg>
