<svg width="61" height="61" viewBox="0 0 61 61" fill="none" xmlns="http://www.w3.org/2000/svg">
<path d="M50.1667 1H10.8333C8.22537 1 5.72422 2.03601 3.88012 3.88012C2.03601 5.72422 1 8.22537 1 10.8333V50.1667C1 52.7746 2.03601 55.2758 3.88012 57.1199C5.72422 58.964 8.22537 60 10.8333 60H50.1667C52.7746 60 55.2758 58.964 57.1199 57.1199C58.964 55.2758 60 52.7746 60 50.1667V10.8333C60 8.22537 58.964 5.72422 57.1199 3.88012C55.2758 2.03601 52.7746 1 50.1667 1ZM17.3889 14.1111C18.3613 14.1111 19.3119 14.3995 20.1204 14.9397C20.929 15.48 21.5592 16.2478 21.9313 17.1462C22.3034 18.0447 22.4008 19.0332 22.2111 19.987C22.0214 20.9407 21.5531 21.8168 20.8655 22.5044C20.1779 23.192 19.3018 23.6603 18.3481 23.85C17.3943 24.0397 16.4058 23.9423 15.5074 23.5702C14.609 23.1981 13.8411 22.5679 13.3008 21.7593C12.7606 20.9508 12.4722 20.0002 12.4722 19.0278C12.4722 17.7238 12.9902 16.4732 13.9123 15.5512C14.8343 14.6291 16.0849 14.1111 17.3889 14.1111ZM53.4444 49.6094C53.5169 50.5523 53.2125 51.4855 52.5981 52.2043C51.9837 52.9232 51.1093 53.3691 50.1667 53.4444H10.8333L35.6461 31.09C36.0628 30.71 36.6063 30.4993 37.1703 30.4993C37.7342 30.4993 38.2778 30.71 38.6944 31.09L53.4444 45.7744V49.6094Z" fill="
#6FA4E9"/>
</svg>
