<svg width="15" height="20" viewBox="0 0 15 20" fill="none" xmlns="http://www.w3.org/2000/svg">
<path d="M10 8.88889V2.22222C10 1.63285 9.73661 1.06762 9.26777 0.650874C8.79893 0.234126 8.16304 0 7.5 0C6.1 0 5 1.04444 5 2.22222V8.88889C5 10.1111 6.125 11.1111 7.5 11.1111C8.9125 11.1111 10 10.0667 10 8.88889ZM15 8.88889C15 12.1889 12.3 14.9222 8.75 15.4556V17.7778H11.25C11.95 17.7778 12.5 18.2778 12.5 18.8889C12.5 19.5 11.95 20 11.25 20H3.75C3.0625 20 2.5 19.5 2.5 18.8889C2.5 18.2778 3.0625 17.7778 3.75 17.7778H6.25V15.4556C2.7125 14.9222 0 12.1889 0 8.88889C0 8.27778 0.5625 7.77778 1.25 7.77778C1.95 7.77778 2.5 8.27778 2.5 8.88889C2.5 10.0676 3.02678 11.1981 3.96447 12.0316C4.90215 12.8651 6.17392 13.3333 7.5 13.3333C8.82608 13.3333 10.0979 12.8651 11.0355 12.0316C11.9732 11.1981 12.5 10.0676 12.5 8.88889C12.5 8.27778 13.0625 7.77778 13.75 7.77778C14.45 7.77778 15 8.27778 15 8.88889Z" fill="#63CDFF"/>
</svg>
