<svg width="58" height="58" viewBox="0 0 58 58" fill="none" xmlns="http://www.w3.org/2000/svg">
<path fill-rule="evenodd" clip-rule="evenodd" d="M37.8506 37.8537C38.1872 37.5167 38.587 37.2493 39.0271 37.0669C39.4672 36.8844 39.9389 36.7905 40.4153 36.7905C40.8917 36.7905 41.3634 36.8844 41.8035 37.0669C42.2435 37.2493 42.6433 37.5167 42.98 37.8537L56.9364 51.8101C57.6167 52.4899 57.999 53.412 57.9993 54.3736C57.9997 55.3352 57.618 56.2576 56.9383 56.9378C56.2585 57.618 55.3364 58.0003 54.3748 58.0006C53.4132 58.001 52.4908 57.6193 51.8106 56.9396L37.8542 42.9832C37.5171 42.6465 37.2498 42.2467 37.0673 41.8066C36.8849 41.3665 36.791 40.8948 36.791 40.4184C36.791 39.942 36.8849 39.4703 37.0673 39.0303C37.2498 38.5902 37.5171 38.1904 37.8542 37.8537H37.8506Z" fill="white"/>
<path fill-rule="evenodd" clip-rule="evenodd" d="M23.5628 43.5006C26.1811 43.5006 28.7737 42.9849 31.1927 41.9829C33.6116 40.9809 35.8096 39.5123 37.6609 37.6609C39.5123 35.8096 40.9809 33.6116 41.9829 31.1927C42.9849 28.7737 43.5006 26.1811 43.5006 23.5628C43.5006 20.9446 42.9849 18.3519 41.9829 15.933C40.9809 13.514 39.5123 11.3161 37.6609 9.46469C35.8096 7.61329 33.6116 6.14469 31.1927 5.14272C28.7737 4.14075 26.1811 3.62505 23.5628 3.62505C18.275 3.62505 13.2037 5.72563 9.46469 9.46469C5.72563 13.2037 3.62505 18.275 3.62505 23.5628C3.62505 28.8506 5.72563 33.9219 9.46469 37.6609C13.2037 41.4 18.275 43.5006 23.5628 43.5006V43.5006ZM47.1256 23.5628C47.1256 29.8121 44.6431 35.8054 40.2242 40.2242C35.8054 44.6431 29.8121 47.1256 23.5628 47.1256C17.3136 47.1256 11.3203 44.6431 6.90139 40.2242C2.4825 35.8054 0 29.8121 0 23.5628C0 17.3136 2.4825 11.3203 6.90139 6.90139C11.3203 2.4825 17.3136 0 23.5628 0C29.8121 0 35.8054 2.4825 40.2242 6.90139C44.6431 11.3203 47.1256 17.3136 47.1256 23.5628V23.5628Z" fill="white"/>
</svg>
