<svg width="21" height="21" viewBox="0 0 21 21" fill="none" xmlns="http://www.w3.org/2000/svg">
<path d="M19.6064 8.38819L17.9149 7.8445L17.5525 6.93834L18.3982 5.36767C18.5794 5.00521 18.519 4.52192 18.217 4.21987L16.7671 2.77002C16.4651 2.46797 15.9818 2.40756 15.6193 2.58879L14.0487 3.43454L13.1425 3.07207L12.5988 1.38058C12.478 1.01812 12.1155 0.716064 11.6927 0.716064H9.6387C9.21582 0.716064 8.85336 1.01812 8.79295 1.44099L8.24926 3.13248C7.88679 3.19289 7.58474 3.31371 7.28269 3.49495L5.71202 2.6492C5.34955 2.46797 4.86627 2.52838 4.56422 2.83043L3.11437 4.28028C2.81231 4.58233 2.7519 5.06562 2.93313 5.42808L3.71847 6.93834C3.59765 7.2404 3.47683 7.60286 3.35601 7.90491L1.66452 8.4486C1.30205 8.56943 1 8.93189 1 9.35476V11.4087C1 11.8316 1.30205 12.1941 1.72493 12.3149L3.41642 12.8586L3.77888 13.7647L2.93313 15.3354C2.7519 15.6979 2.81231 16.1811 3.11437 16.4832L4.56422 17.933C4.86627 18.2351 5.34955 18.2955 5.71202 18.1143L7.28269 17.2685L8.18885 17.631L8.73254 19.3829C8.85336 19.7454 9.21582 20.0474 9.6387 20.0474H11.6927C12.1155 20.0474 12.478 19.7454 12.5988 19.3829L13.1425 17.631L14.0487 17.2685L15.6193 18.1143C15.9818 18.2955 16.4651 18.2351 16.7671 17.933L18.217 16.4832C18.519 16.1811 18.5794 15.6979 18.3982 15.3354L17.5525 13.7647L17.9149 12.8586L19.6668 12.3149C20.0293 12.1941 20.3314 11.8316 20.3314 11.4087V9.35476C20.3314 8.93189 20.0293 8.50901 19.6064 8.38819V8.38819ZM19.1231 11.2275L16.9484 11.892L16.888 12.1941L16.3443 13.4627L16.163 13.7647L17.2504 15.7583L16.0422 16.9665L14.0487 15.8791L13.7466 16.0603C13.3237 16.302 12.9009 16.4832 12.478 16.604L12.1759 16.6644L11.5114 18.8392H9.81993L9.15541 16.6644L8.85336 16.604L7.58474 16.0603L7.28269 15.8791L5.28914 16.9665L4.08093 15.7583L5.16832 13.7647L4.98709 13.4627C4.74545 13.0398 4.56422 12.6169 4.4434 12.1941L4.38299 11.892L2.20821 11.2275V9.53599L4.26217 8.93189L4.38299 8.62984C4.50381 8.14655 4.68504 7.72368 4.92668 7.30081L5.10791 6.99875L4.08093 5.00521L5.28914 3.797L7.22228 4.88439L7.52433 4.70316C7.9472 4.46151 8.37008 4.28028 8.85336 4.15946L9.15541 4.03864L9.81993 1.92427H11.5114L12.1759 4.03864L12.478 4.15946C12.9009 4.28028 13.3237 4.46151 13.7466 4.70316L14.0487 4.88439L16.0422 3.797L17.2504 5.00521L16.163 6.99875L16.3443 7.30081C16.5859 7.72368 16.7671 8.14655 16.888 8.56943L16.9484 8.87148L19.1231 9.53599V11.2275V11.2275Z" fill="white"/>
<path d="M10.6654 13.137C12.1213 13.137 13.3015 11.9567 13.3015 10.5009C13.3015 9.045 12.1213 7.86478 10.6654 7.86478C9.20952 7.86478 8.0293 9.045 8.0293 10.5009C8.0293 11.9567 9.20952 13.137 10.6654 13.137Z" stroke="white" stroke-linecap="round" stroke-linejoin="round"/>
<path d="M17.168 13.137C17.0511 13.4021 17.0162 13.6961 17.0679 13.9811C17.1195 14.2661 17.2554 14.5292 17.458 14.7363L17.5107 14.789C17.6741 14.9522 17.8038 15.146 17.8922 15.3594C17.9806 15.5727 18.0262 15.8014 18.0262 16.0323C18.0262 16.2633 17.9806 16.492 17.8922 16.7053C17.8038 16.9187 17.6741 17.1125 17.5107 17.2757C17.3475 17.4391 17.1537 17.5687 16.9404 17.6572C16.727 17.7456 16.4983 17.7911 16.2674 17.7911C16.0364 17.7911 15.8077 17.7456 15.5944 17.6572C15.3811 17.5687 15.1872 17.4391 15.024 17.2757L14.9713 17.223C14.7642 17.0204 14.5012 16.8845 14.2161 16.8328C13.9311 16.7811 13.6371 16.816 13.3721 16.933C13.1122 17.0444 12.8905 17.2293 12.7344 17.4651C12.5783 17.7008 12.4945 17.9771 12.4934 18.2598V18.4092C12.4934 18.8753 12.3082 19.3223 11.9786 19.6519C11.6491 19.9815 11.2021 20.1666 10.736 20.1666C10.2699 20.1666 9.82288 19.9815 9.49331 19.6519C9.16373 19.3223 8.97858 18.8753 8.97858 18.4092V18.3301C8.97177 18.0393 8.87763 17.7572 8.70839 17.5206C8.53914 17.284 8.30262 17.1037 8.02958 17.0033C7.76455 16.8863 7.47056 16.8514 7.18552 16.9031C6.90047 16.9548 6.63744 17.0907 6.43035 17.2933L6.37763 17.346C6.21442 17.5094 6.02059 17.639 5.80725 17.7275C5.59391 17.8159 5.36522 17.8614 5.13427 17.8614C4.90332 17.8614 4.67464 17.8159 4.4613 17.7275C4.24795 17.639 4.05413 17.5094 3.89092 17.346C3.72752 17.1828 3.5979 16.989 3.50946 16.7756C3.42102 16.5623 3.37549 16.3336 3.37549 16.1026C3.37549 15.8717 3.42102 15.643 3.50946 15.4297C3.5979 15.2163 3.72752 15.0225 3.89092 14.8593L3.94364 14.8066C4.14621 14.5995 4.2821 14.3364 4.33378 14.0514C4.38547 13.7664 4.35058 13.4724 4.23361 13.2073C4.12222 12.9474 3.93727 12.7258 3.70153 12.5697C3.46578 12.4135 3.18953 12.3298 2.90677 12.3286H2.7574C2.29131 12.3286 1.8443 12.1435 1.51473 11.8139C1.18515 11.4843 1 11.0373 1 10.5712C1 10.1051 1.18515 9.65815 1.51473 9.32857C1.8443 8.999 2.29131 8.81384 2.7574 8.81384H2.83648C3.12732 8.80704 3.40939 8.7129 3.64602 8.54365C3.88265 8.37441 4.06289 8.13789 4.16331 7.86485C4.28028 7.59982 4.31517 7.30583 4.26349 7.02078C4.2118 6.73574 4.07591 6.47271 3.87334 6.26562L3.82062 6.2129C3.65722 6.04968 3.5276 5.85586 3.43916 5.64252C3.35072 5.42917 3.3052 5.20049 3.3052 4.96954C3.3052 4.73859 3.35072 4.50991 3.43916 4.29656C3.5276 4.08322 3.65722 3.8894 3.82062 3.72618C3.98383 3.56279 4.17766 3.43316 4.391 3.34472C4.60434 3.25628 4.83303 3.21076 5.06398 3.21076C5.29493 3.21076 5.52361 3.25628 5.73695 3.34472C5.9503 3.43316 6.14412 3.56279 6.30733 3.72618L6.36006 3.7789C6.56715 3.98148 6.83017 4.11737 7.11522 4.16905C7.40026 4.22073 7.69426 4.18584 7.95929 4.06887H8.02958C8.28947 3.95749 8.51112 3.77254 8.66725 3.53679C8.82337 3.30075 8.90715 3.02479 8.90828 2.74204V2.59266C8.90828 2.12657 9.09343 1.67957 9.42301 1.35C9.75258 1.02042 10.1996 0.835266 10.6657 0.835266C11.1318 0.835266 11.5788 1.02042 11.9083 1.35C12.2379 1.67957 12.4231 2.12657 12.4231 2.59266V2.67174C12.4242 2.9545 12.508 3.23075 12.6641 3.4665C12.8202 3.70224 13.0419 3.88719 13.3018 3.99858C13.5668 4.11555 13.8608 4.15044 14.1458 4.09875C14.4309 4.04707 14.6939 3.91118 14.901 3.70861L14.9537 3.65589C15.1169 3.49249 15.3108 3.36287 15.5241 3.27443C15.7374 3.18599 15.9661 3.14047 16.1971 3.14047C16.428 3.14047 16.6567 3.18599 16.8701 3.27443C17.0834 3.36287 17.2772 3.49249 17.4404 3.65589C17.6038 3.8191 17.7335 4.01292 17.8219 4.22627C17.9103 4.43961 17.9559 4.66829 17.9559 4.89924C17.9559 5.13019 17.9103 5.35888 17.8219 5.57222C17.7335 5.78557 17.6038 5.97939 17.4404 6.1426L17.3877 6.19532C17.1851 6.40241 17.0493 6.66544 16.9976 6.95049C16.9459 7.23553 16.9808 7.52952 17.0977 7.79455V7.86485C17.2091 8.12474 17.3941 8.34639 17.6298 8.50251C17.8656 8.65864 18.1418 8.74242 18.4246 8.74355H18.574C19.04 8.74355 19.487 8.9287 19.8166 9.25828C20.1462 9.58785 20.3314 10.0349 20.3314 10.5009C20.3314 10.967 20.1462 11.414 19.8166 11.7436C19.487 12.0732 19.04 12.2583 18.574 12.2583H18.4949C18.2121 12.2595 17.9359 12.3432 17.7001 12.4994C17.4644 12.6555 17.2794 12.8771 17.168 13.137V13.137Z" stroke="white" stroke-linecap="round" stroke-linejoin="round"/>
</svg>
