<svg width="16" height="20" viewBox="0 0 16 20" fill="none" xmlns="http://www.w3.org/2000/svg">
<path d="M1.23174 18.8688C1.11252 18.9485 0.973862 18.9944 0.830595 19.0015C0.687329 19.0085 0.544835 18.9765 0.418341 18.9089C0.291848 18.8412 0.18611 18.7405 0.112426 18.6174C0.0387424 18.4944 -0.00011706 18.3536 2.64886e-07 18.2102V3.18385C-1.4125e-06 2.34516 0.332734 1.54072 0.925186 0.947084C1.51764 0.353445 2.32141 0.0190994 3.1601 0.017422L12.6594 6.34608e-06C13.0752 -0.00082613 13.4871 0.080252 13.8716 0.238612C14.2561 0.396971 14.6056 0.62951 14.9003 0.922953C15.1949 1.2164 15.4288 1.56499 15.5887 1.94885C15.7486 2.3327 15.8313 2.74428 15.8322 3.16011V18.2102C15.8323 18.3536 15.7934 18.4944 15.7197 18.6174C15.6461 18.7405 15.5403 18.8412 15.4138 18.9089C15.2873 18.9765 15.1448 19.0085 15.0016 19.0015C14.8583 18.9944 14.7196 18.9485 14.6004 18.8688L7.91608 14.4041L1.23016 18.8688H1.23174Z" fill="#FFF500"/>
</svg>
