<svg width="761" height="1044" viewBox="0 0 761 1044" fill="none" xmlns="http://www.w3.org/2000/svg">
<path d="M43.18 877.96C34.7933 877.96 27.3933 876.172 20.98 872.595C14.69 869.018 9.88 863.962 6.55 857.425L17.835 851.875C22.3983 861.618 31.34 866.49 44.66 866.49C51.0733 866.49 56.3767 865.318 60.57 862.975C64.7633 860.632 66.86 856.993 66.86 852.06C66.86 847.003 65.1333 843.242 61.68 840.775C58.35 838.308 52.43 836.705 43.92 835.965C32.08 834.978 23.57 832.327 18.39 828.01C13.3333 823.693 10.805 817.958 10.805 810.805C10.805 802.788 13.7033 796.56 19.5 792.12C25.2967 787.68 33.2517 785.46 43.365 785.46C60.5083 785.46 72.1633 792.243 78.33 805.81L67.045 811.36C64.9483 806.427 61.865 802.788 57.795 800.445C53.8483 798.102 48.73 796.93 42.44 796.93C36.0267 796.93 31.0933 798.102 27.64 800.445C24.31 802.788 22.645 806.118 22.645 810.435C22.645 814.505 24.4333 817.835 28.01 820.425C31.71 822.892 38 824.495 46.88 825.235C57.8567 826.222 65.9967 828.935 71.3 833.375C76.7267 837.692 79.44 843.427 79.44 850.58C79.44 856.377 77.775 861.372 74.445 865.565C71.115 869.635 66.675 872.718 61.125 874.815C55.575 876.912 49.5933 877.96 43.18 877.96Z" fill="#FF1744"/>
<path d="M157.485 785.46C165.749 785.46 173.149 787.433 179.685 791.38C186.222 795.327 191.34 800.815 195.04 807.845C198.74 814.875 200.59 822.892 200.59 831.895C200.59 840.775 198.74 848.73 195.04 855.76C191.464 862.667 186.407 868.093 179.87 872.04C173.457 875.987 166.119 877.96 157.855 877.96C151.565 877.96 145.769 876.603 140.465 873.89C135.285 871.053 130.907 867.107 127.33 862.05V912H114.75V788.42H127.33V801.185C130.907 796.252 135.285 792.428 140.465 789.715C145.645 786.878 151.319 785.46 157.485 785.46ZM157.855 866.49C163.652 866.49 168.832 865.01 173.395 862.05C177.959 859.09 181.535 855.02 184.125 849.84C186.715 844.537 188.01 838.555 188.01 831.895C188.01 825.112 186.715 819.068 184.125 813.765C181.535 808.462 177.959 804.33 173.395 801.37C168.832 798.41 163.652 796.93 157.855 796.93C151.935 796.93 146.632 798.41 141.945 801.37C137.382 804.33 133.805 808.462 131.215 813.765C128.625 819.068 127.33 825.05 127.33 831.71C127.33 838.37 128.625 844.352 131.215 849.655C133.805 854.958 137.382 859.09 141.945 862.05C146.632 865.01 151.935 866.49 157.855 866.49Z" fill="#FF6D00"/>
<path d="M314.837 788.42V875H302.257V862.235C298.68 867.168 294.302 871.053 289.122 873.89C283.942 876.603 278.268 877.96 272.102 877.96C263.838 877.96 256.438 875.987 249.902 872.04C243.365 868.093 238.247 862.605 234.547 855.575C230.847 848.545 228.997 840.528 228.997 831.525C228.997 822.645 230.785 814.752 234.362 807.845C238.062 800.815 243.118 795.327 249.532 791.38C256.068 787.433 263.468 785.46 271.732 785.46C278.022 785.46 283.757 786.878 288.937 789.715C294.24 792.428 298.68 796.313 302.257 801.37V788.42H314.837ZM271.732 866.49C277.652 866.49 282.893 865.01 287.457 862.05C292.143 859.09 295.782 854.958 298.372 849.655C300.962 844.352 302.257 838.37 302.257 831.71C302.257 825.05 300.962 819.068 298.372 813.765C295.782 808.462 292.143 804.33 287.457 801.37C282.893 798.41 277.652 796.93 271.732 796.93C265.935 796.93 260.755 798.41 256.192 801.37C251.628 804.33 248.052 808.462 245.462 813.765C242.872 818.945 241.577 824.865 241.577 831.525C241.577 838.308 242.872 844.352 245.462 849.655C248.052 854.958 251.628 859.09 256.192 862.05C260.755 865.01 265.935 866.49 271.732 866.49Z" fill="#FFD600"/>
<path d="M434.633 788.42V875H422.053V862.235C418.476 867.168 414.098 871.053 408.918 873.89C403.738 876.603 398.064 877.96 391.898 877.96C383.634 877.96 376.234 875.987 369.698 872.04C363.161 868.093 358.043 862.605 354.343 855.575C350.643 848.545 348.793 840.528 348.793 831.525C348.793 822.645 350.581 814.752 354.158 807.845C357.858 800.815 362.914 795.327 369.328 791.38C375.864 787.433 383.264 785.46 391.528 785.46C397.818 785.46 403.553 786.878 408.733 789.715C414.036 792.428 418.476 796.313 422.053 801.37V788.42H434.633ZM391.528 866.49C397.448 866.49 402.689 865.01 407.253 862.05C411.939 859.09 415.578 854.958 418.168 849.655C420.758 844.352 422.053 838.37 422.053 831.71C422.053 825.05 420.758 819.068 418.168 813.765C415.578 808.462 411.939 804.33 407.253 801.37C402.689 798.41 397.448 796.93 391.528 796.93C385.731 796.93 380.551 798.41 375.988 801.37C371.424 804.33 367.848 808.462 365.258 813.765C362.668 818.945 361.373 824.865 361.373 831.525C361.373 838.308 362.668 844.352 365.258 849.655C367.848 854.958 371.424 859.09 375.988 862.05C380.551 865.01 385.731 866.49 391.528 866.49Z" fill="#AEEA00"/>
<path d="M516.504 785.46C519.464 785.46 522.301 785.892 525.014 786.755V798.225C522.424 796.992 519.587 796.375 516.504 796.375C511.201 796.375 506.267 797.855 501.704 800.815C497.141 803.775 493.441 808.092 490.604 813.765C487.891 819.315 486.534 825.913 486.534 833.56V875H473.954V788.42H486.534V805.81C489.864 799.397 494.057 794.402 499.114 790.825C504.294 787.248 510.091 785.46 516.504 785.46Z" fill="#00C853"/>
<path d="M606.204 875L575.864 830.415L565.319 840.59V875H552.739V740.69H565.319V824.68L603.244 788.42H619.524L584.559 822.09L620.264 875H606.204Z" fill="#6DBCE1"/>
<path d="M679.936 877.96C671.549 877.96 664.149 876.172 657.736 872.595C651.446 869.018 646.636 863.962 643.306 857.425L654.591 851.875C659.154 861.618 668.096 866.49 681.416 866.49C687.829 866.49 693.132 865.318 697.326 862.975C701.519 860.632 703.616 856.993 703.616 852.06C703.616 847.003 701.889 843.242 698.436 840.775C695.106 838.308 689.186 836.705 680.676 835.965C668.836 834.978 660.326 832.327 655.146 828.01C650.089 823.693 647.561 817.958 647.561 810.805C647.561 802.788 650.459 796.56 656.256 792.12C662.052 787.68 670.007 785.46 680.121 785.46C697.264 785.46 708.919 792.243 715.086 805.81L703.801 811.36C701.704 806.427 698.621 802.788 694.551 800.445C690.604 798.102 685.486 796.93 679.196 796.93C672.782 796.93 667.849 798.102 664.396 800.445C661.066 802.788 659.401 806.118 659.401 810.435C659.401 814.505 661.189 817.835 664.766 820.425C668.466 822.892 674.756 824.495 683.636 825.235C694.612 826.222 702.752 828.935 708.056 833.375C713.482 837.692 716.196 843.427 716.196 850.58C716.196 856.377 714.531 861.372 711.201 865.565C707.871 869.635 703.431 872.718 697.881 874.815C692.331 876.912 686.349 877.96 679.936 877.96Z" fill="#2962FF"/>
<path d="M42.12 965.3C39.96 964.28 37.56 963.41 34.92 962.69C32.28 961.97 29.7 961.61 27.18 961.61C22.98 961.61 19.62 962.66 17.1 964.76C14.58 966.8 13.32 969.44 13.32 972.68C13.32 974.96 13.98 976.91 15.3 978.53C16.68 980.09 18.42 981.41 20.52 982.49C22.62 983.51 25.32 984.65 28.62 985.91C32.22 987.23 35.19 988.58 37.53 989.96C39.93 991.34 41.94 993.23 43.56 995.63C45.18 997.97 45.99 1001 45.99 1004.72C45.99 1008.26 45.15 1011.41 43.47 1014.17C41.79 1016.87 39.42 1018.97 36.36 1020.47C33.36 1021.97 29.91 1022.72 26.01 1022.72C19.23 1022.72 12.51 1020.53 5.85 1016.15L7.92 1012.55C10.14 1014.23 12.87 1015.7 16.11 1016.96C19.35 1018.22 22.5 1018.85 25.56 1018.85C28.26 1018.85 30.81 1018.34 33.21 1017.32C35.67 1016.24 37.65 1014.65 39.15 1012.55C40.71 1010.39 41.49 1007.81 41.49 1004.81C41.49 1001.99 40.77 999.62 39.33 997.7C37.95 995.78 36.18 994.25 34.02 993.11C31.92 991.91 29.25 990.71 26.01 989.51C22.41 988.19 19.44 986.93 17.1 985.73C14.76 984.47 12.78 982.82 11.16 980.78C9.6 978.74 8.82 976.19 8.82 973.13C8.82 970.13 9.57 967.49 11.07 965.21C12.63 962.87 14.76 961.07 17.46 959.81C20.22 958.49 23.28 957.8 26.64 957.74C29.52 957.74 32.49 958.13 35.55 958.91C38.67 959.69 41.43 960.68 43.83 961.88L42.12 965.3ZM84.3349 985.73C87.6349 985.73 90.6349 986.54 93.3349 988.16C96.0949 989.78 98.2549 992.03 99.8149 994.91C101.435 997.73 102.245 1000.88 102.245 1004.36C102.245 1007.84 101.435 1010.99 99.8149 1013.81C98.1949 1016.63 95.9449 1018.82 93.0649 1020.38C90.2449 1021.94 87.1249 1022.72 83.7049 1022.72C80.5849 1022.72 77.6449 1021.97 74.8849 1020.47C72.1849 1018.97 70.0549 1016.99 68.4949 1014.53V1038.92H64.2649V986.54H68.0449L68.3149 994.37C69.9949 991.73 72.2449 989.63 75.0649 988.07C77.9449 986.51 81.0349 985.73 84.3349 985.73ZM82.9849 1019.21C85.6849 1019.21 88.1749 1018.55 90.4549 1017.23C92.7349 1015.91 94.5349 1014.11 95.8549 1011.83C97.2349 1009.55 97.9249 1007.06 97.9249 1004.36C97.9249 1001.6 97.2649 999.08 95.9449 996.8C94.6849 994.52 92.9149 992.72 90.6349 991.4C88.4149 990.08 85.9549 989.42 83.2549 989.42C80.6749 989.42 78.2749 990.02 76.0549 991.22C73.8949 992.42 72.1249 994.07 70.7449 996.17C69.4249 998.21 68.6749 1000.49 68.4949 1003.01V1005.89C68.6749 1008.35 69.4249 1010.6 70.7449 1012.64C72.1249 1014.68 73.8649 1016.3 75.9649 1017.5C78.1249 1018.64 80.4649 1019.21 82.9849 1019.21ZM122.812 995.18C124.072 992.36 126.142 990.11 129.022 988.43C131.902 986.75 134.782 985.88 137.662 985.82L137.482 989.96C134.842 989.96 132.412 990.56 130.192 991.76C127.972 992.9 126.202 994.52 124.882 996.62C123.622 998.66 122.992 1000.91 122.992 1003.37V1022H118.762V986.81H122.452L122.812 995.18ZM167.468 1019.03C171.248 1019.03 174.668 1017.74 177.728 1015.16L179.888 1018.22C178.148 1019.6 176.168 1020.71 173.948 1021.55C171.788 1022.33 169.598 1022.72 167.378 1022.72C163.778 1022.72 160.538 1021.91 157.658 1020.29C154.838 1018.67 152.618 1016.48 150.998 1013.72C149.438 1010.9 148.658 1007.75 148.658 1004.27C148.658 1000.91 149.498 997.82 151.178 995C152.858 992.12 155.138 989.84 158.018 988.16C160.898 986.48 164.048 985.64 167.468 985.64C171.548 985.64 175.028 986.84 177.908 989.24C180.788 991.64 182.888 994.88 184.208 998.96L154.148 1010.57C155.288 1013.09 157.028 1015.13 159.368 1016.69C161.768 1018.25 164.468 1019.03 167.468 1019.03ZM167.198 989.24C164.558 989.24 162.128 989.9 159.908 991.22C157.688 992.54 155.948 994.34 154.688 996.62C153.428 998.84 152.798 1001.33 152.798 1004.09C152.798 1005.35 152.918 1006.46 153.158 1007.42L179.078 997.25C177.938 994.85 176.348 992.93 174.308 991.49C172.268 989.99 169.898 989.24 167.198 989.24ZM234.185 986.81V1022H229.955V1014.53C228.575 1016.81 226.475 1018.76 223.655 1020.38C220.835 1021.94 217.775 1022.72 214.475 1022.72C211.115 1022.72 208.055 1021.97 205.295 1020.47C202.595 1018.91 200.435 1016.75 198.815 1013.99C197.255 1011.17 196.475 1007.96 196.475 1004.36C196.475 1000.52 197.285 997.22 198.905 994.46C200.585 991.64 202.865 989.48 205.745 987.98C208.685 986.48 211.985 985.73 215.645 985.73C218.525 985.73 221.285 986.54 223.925 988.16C226.565 989.78 228.575 991.88 229.955 994.46L230.405 986.81H234.185ZM215.375 1019.12C219.335 1019.12 222.695 1017.89 225.455 1015.43C228.215 1012.97 229.715 1009.82 229.955 1005.98V1000.94C229.235 997.64 227.495 994.88 224.735 992.66C221.975 990.44 218.825 989.33 215.285 989.33C212.585 989.33 210.125 989.96 207.905 991.22C205.685 992.42 203.915 994.16 202.595 996.44C201.335 998.66 200.705 1001.24 200.705 1004.18C200.705 1006.88 201.365 1009.37 202.685 1011.65C204.005 1013.93 205.775 1015.76 207.995 1017.14C210.275 1018.46 212.735 1019.12 215.375 1019.12ZM288.688 953.6V1022H284.368V1014.71C282.748 1017.11 280.528 1019.06 277.708 1020.56C274.888 1022 271.828 1022.72 268.528 1022.72C265.228 1022.72 262.198 1021.94 259.438 1020.38C256.738 1018.76 254.608 1016.54 253.048 1013.72C251.488 1010.84 250.708 1007.66 250.708 1004.18C250.708 1000.52 251.518 997.28 253.138 994.46C254.758 991.64 256.948 989.48 259.708 987.98C262.468 986.48 265.558 985.73 268.978 985.73C272.038 985.73 274.978 986.48 277.798 987.98C280.678 989.48 282.898 991.46 284.458 993.92V953.6H288.688ZM269.608 1019.03C273.628 1019.03 277.018 1017.77 279.778 1015.25C282.538 1012.73 284.068 1009.55 284.368 1005.71V1001.21C283.708 997.79 281.968 994.94 279.148 992.66C276.388 990.38 273.208 989.24 269.608 989.24C266.908 989.24 264.448 989.87 262.228 991.13C260.008 992.39 258.238 994.16 256.918 996.44C255.598 998.66 254.938 1001.21 254.938 1004.09C254.938 1006.79 255.598 1009.28 256.918 1011.56C258.238 1013.84 260.008 1015.67 262.228 1017.05C264.508 1018.37 266.968 1019.03 269.608 1019.03ZM312.855 986.81V1022H308.625V986.81H312.855ZM307.725 973.85C307.725 973.01 308.025 972.32 308.625 971.78C309.285 971.18 310.035 970.88 310.875 970.88C311.715 970.88 312.435 971.18 313.035 971.78C313.635 972.32 313.935 973.01 313.935 973.85C313.935 974.75 313.635 975.5 313.035 976.1C312.435 976.64 311.715 976.91 310.875 976.91C310.035 976.91 309.285 976.61 308.625 976.01C308.025 975.41 307.725 974.69 307.725 973.85ZM351.7 985.82C354.94 985.82 357.58 986.81 359.62 988.79C361.66 990.71 362.74 993.23 362.86 996.35V1022H358.54V997.52C358.42 995.18 357.67 993.29 356.29 991.85C354.91 990.35 352.93 989.57 350.35 989.51C347.95 989.51 345.73 990.08 343.69 991.22C341.71 992.36 340.09 993.98 338.83 996.08C337.63 998.12 337.03 1000.46 337.03 1003.1V1022H332.8V986.81H336.49L336.85 994.64C337.99 991.94 339.91 989.81 342.61 988.25C345.37 986.63 348.4 985.82 351.7 985.82ZM417.555 986.81V1022.54C417.555 1027.34 415.965 1031.3 412.785 1034.42C409.665 1037.6 404.895 1039.19 398.475 1039.19C395.415 1039.19 392.595 1038.62 390.015 1037.48C387.435 1036.4 384.795 1034.57 382.095 1031.99L384.615 1029.11C387.015 1031.45 389.325 1033.07 391.545 1033.97C393.765 1034.93 396.015 1035.41 398.295 1035.41C403.455 1035.41 407.205 1034.24 409.545 1031.9C411.885 1029.56 413.115 1026.41 413.235 1022.45L413.325 1014.17C411.765 1016.75 409.545 1018.82 406.665 1020.38C403.845 1021.94 400.755 1022.72 397.395 1022.72C394.095 1022.72 391.065 1021.91 388.305 1020.29C385.605 1018.67 383.445 1016.45 381.825 1013.63C380.205 1010.81 379.395 1007.69 379.395 1004.27C379.395 1000.73 380.235 997.55 381.915 994.73C383.595 991.91 385.875 989.72 388.755 988.16C391.635 986.54 394.815 985.73 398.295 985.73C401.355 985.73 404.295 986.51 407.115 988.07C409.935 989.57 412.035 991.58 413.415 994.1L413.775 986.81H417.555ZM398.475 1019.12C401.055 1019.12 403.425 1018.55 405.585 1017.41C407.805 1016.21 409.605 1014.62 410.985 1012.64C412.365 1010.66 413.145 1008.53 413.325 1006.25V1001.03C412.605 997.61 410.835 994.82 408.015 992.66C405.255 990.44 402.075 989.33 398.475 989.33C395.715 989.33 393.195 989.96 390.915 991.22C388.635 992.48 386.835 994.25 385.515 996.53C384.255 998.75 383.625 1001.3 383.625 1004.18C383.625 1006.88 384.285 1009.37 385.605 1011.65C386.925 1013.93 388.725 1015.76 391.005 1017.14C393.285 1018.46 395.775 1019.12 398.475 1019.12ZM503.243 965.3C501.083 964.28 498.683 963.41 496.043 962.69C493.403 961.97 490.823 961.61 488.303 961.61C484.103 961.61 480.743 962.66 478.223 964.76C475.703 966.8 474.443 969.44 474.443 972.68C474.443 974.96 475.103 976.91 476.423 978.53C477.803 980.09 479.543 981.41 481.643 982.49C483.743 983.51 486.443 984.65 489.743 985.91C493.343 987.23 496.313 988.58 498.653 989.96C501.053 991.34 503.063 993.23 504.683 995.63C506.303 997.97 507.113 1001 507.113 1004.72C507.113 1008.26 506.273 1011.41 504.593 1014.17C502.913 1016.87 500.543 1018.97 497.483 1020.47C494.483 1021.97 491.033 1022.72 487.133 1022.72C480.353 1022.72 473.633 1020.53 466.973 1016.15L469.043 1012.55C471.263 1014.23 473.993 1015.7 477.233 1016.96C480.473 1018.22 483.623 1018.85 486.683 1018.85C489.383 1018.85 491.933 1018.34 494.333 1017.32C496.793 1016.24 498.773 1014.65 500.273 1012.55C501.833 1010.39 502.613 1007.81 502.613 1004.81C502.613 1001.99 501.893 999.62 500.453 997.7C499.073 995.78 497.303 994.25 495.143 993.11C493.043 991.91 490.373 990.71 487.133 989.51C483.533 988.19 480.563 986.93 478.223 985.73C475.883 984.47 473.903 982.82 472.283 980.78C470.723 978.74 469.943 976.19 469.943 973.13C469.943 970.13 470.693 967.49 472.193 965.21C473.753 962.87 475.883 961.07 478.583 959.81C481.343 958.49 484.403 957.8 487.763 957.74C490.643 957.74 493.613 958.13 496.673 958.91C499.793 959.69 502.553 960.68 504.953 961.88L503.243 965.3ZM569.128 985.82C572.428 985.82 575.068 986.78 577.048 988.7C579.028 990.62 580.078 993.17 580.198 996.35V1022H575.968V997.25C575.848 995.09 575.128 993.29 573.808 991.85C572.548 990.41 570.688 989.63 568.228 989.51C565.888 989.51 563.728 990.11 561.748 991.31C559.768 992.51 558.148 994.13 556.888 996.17C555.688 998.15 555.028 1000.34 554.908 1002.74V1022H550.678V997.25C550.558 995.09 549.838 993.29 548.518 991.85C547.198 990.41 545.308 989.63 542.848 989.51C540.508 989.51 538.318 990.11 536.278 991.31C534.238 992.51 532.618 994.16 531.418 996.26C530.218 998.36 529.618 1000.64 529.618 1003.1V1022H525.388V986.81H529.078L529.438 994.55C530.758 991.85 532.738 989.72 535.378 988.16C538.018 986.6 540.898 985.82 544.018 985.82C546.838 985.82 549.268 986.6 551.308 988.16C553.348 989.66 554.548 991.61 554.908 994.01C556.288 991.43 558.238 989.42 560.758 987.98C563.338 986.54 566.128 985.82 569.128 985.82ZM604.418 986.81V1022H600.188V986.81H604.418ZM599.288 973.85C599.288 973.01 599.588 972.32 600.188 971.78C600.848 971.18 601.598 970.88 602.438 970.88C603.278 970.88 603.998 971.18 604.598 971.78C605.198 972.32 605.498 973.01 605.498 973.85C605.498 974.75 605.198 975.5 604.598 976.1C603.998 976.64 603.278 976.91 602.438 976.91C601.598 976.91 600.848 976.61 600.188 976.01C599.588 975.41 599.288 974.69 599.288 973.85ZM628.593 953.6V1022H624.363V953.6H628.593ZM663.928 1019.03C667.708 1019.03 671.128 1017.74 674.188 1015.16L676.348 1018.22C674.608 1019.6 672.628 1020.71 670.408 1021.55C668.248 1022.33 666.058 1022.72 663.838 1022.72C660.238 1022.72 656.998 1021.91 654.118 1020.29C651.298 1018.67 649.078 1016.48 647.458 1013.72C645.898 1010.9 645.118 1007.75 645.118 1004.27C645.118 1000.91 645.958 997.82 647.638 995C649.318 992.12 651.598 989.84 654.478 988.16C657.358 986.48 660.508 985.64 663.928 985.64C668.008 985.64 671.488 986.84 674.368 989.24C677.248 991.64 679.348 994.88 680.668 998.96L650.608 1010.57C651.748 1013.09 653.488 1015.13 655.828 1016.69C658.228 1018.25 660.928 1019.03 663.928 1019.03ZM663.658 989.24C661.018 989.24 658.588 989.9 656.368 991.22C654.148 992.54 652.408 994.34 651.148 996.62C649.888 998.84 649.258 1001.33 649.258 1004.09C649.258 1005.35 649.378 1006.46 649.618 1007.42L675.538 997.25C674.398 994.85 672.808 992.93 670.768 991.49C668.728 989.99 666.358 989.24 663.658 989.24ZM704.635 1022.72C702.355 1022.72 700.135 1022.33 697.975 1021.55C695.875 1020.77 694.165 1019.57 692.845 1017.95L694.825 1015.16C696.025 1016.42 697.465 1017.44 699.145 1018.22C700.825 1018.94 702.565 1019.3 704.365 1019.3C706.645 1019.3 708.565 1018.79 710.125 1017.77C711.685 1016.69 712.465 1015.04 712.465 1012.82C712.465 1011.26 712.045 1010.03 711.205 1009.13C710.365 1008.17 709.405 1007.48 708.325 1007.06C707.245 1006.58 705.505 1005.95 703.105 1005.17C700.285 1004.21 698.095 1003.01 696.535 1001.57C695.035 1000.07 694.285 998.09 694.285 995.63C694.285 992.75 695.275 990.44 697.255 988.7C699.295 986.9 701.875 986 704.995 986C709.315 986 712.825 987.32 715.525 989.96L713.635 992.93C712.735 991.73 711.535 990.86 710.035 990.32C708.595 989.78 707.125 989.48 705.625 989.42C703.825 989.42 702.175 989.93 700.675 990.95C699.235 991.91 698.515 993.29 698.515 995.09C698.515 996.95 699.175 998.36 700.495 999.32C701.815 1000.22 703.825 1001.15 706.525 1002.11C709.825 1003.19 712.345 1004.42 714.085 1005.8C715.825 1007.12 716.695 1009.16 716.695 1011.92C716.695 1015.16 715.645 1017.77 713.545 1019.75C711.505 1021.73 708.535 1022.72 704.635 1022.72Z" fill="#AA00FF"/>
<rect x="353.598" width="19.8056" height="215.605" fill="#FF1744"/>
<rect width="19.9313" height="214.261" transform="matrix(0.702646 0.71154 -0.702646 0.71154 577.426 123.346)" fill="#FF6D00"/>
<rect width="19.9313" height="214.261" transform="matrix(0.702646 0.71154 -0.702646 0.71154 273.551 429)" fill="#6DBCE1"/>
<rect x="720" y="350.984" width="20.0563" height="212.91" transform="rotate(90 720 350.984)" fill="#FFD600"/>
<rect x="219.91" y="350.984" width="20.0563" height="212.91" transform="rotate(90 219.91 350.984)" fill="#2962FF"/>
<rect width="19.9313" height="214.261" transform="matrix(-0.702646 0.71154 -0.702646 -0.71154 591.555 581.456)" fill="#AEEA00"/>
<rect width="19.9313" height="214.261" transform="matrix(-0.702646 0.71154 -0.702646 -0.71154 287.875 275.802)" fill="#AA00FF"/>
<rect x="372.805" y="712.604" width="19.8056" height="215.605" transform="rotate(-180 372.805 712.604)" fill="#00C853"/>
<path d="M722 730V734.875H728.695V750.799H733.569V734.875H740.264V730H722Z" fill="#AA00FF"/>
<path d="M756.124 730L751.834 738.58L747.609 730H742.734V750.799H747.609V742.219L751.834 750.799L756.124 742.219V750.799H760.998V730H756.124Z" fill="#AA00FF"/>
</svg>
