<svg width="28" height="28" viewBox="0 0 28 28" fill="none" xmlns="http://www.w3.org/2000/svg">
<path d="M13.5417 19.1839L14.6702 16.927V11.1244C16.6123 10.6199 18.0556 8.86742 18.0556 6.77072C18.0556 4.28131 16.0311 2.25684 13.5417 2.25684C11.0523 2.25684 9.02783 4.28131 9.02783 6.77072C9.02783 8.86742 10.4711 10.6199 12.4132 11.1244V16.927L13.5417 19.1839ZM11.2848 6.77072C11.2848 5.52602 12.297 4.51378 13.5417 4.51378C14.7864 4.51378 15.7987 5.52602 15.7987 6.77072C15.7987 8.01543 14.7864 9.02767 13.5417 9.02767C12.297 9.02767 11.2848 8.01543 11.2848 6.77072Z" fill="#6FA4E9"/>
<path d="M18.3567 11.9201L17.7553 14.0958C20.6791 14.9038 22.5693 16.4577 22.5693 18.0556C22.5693 20.1906 18.8623 22.5695 13.5416 22.5695C8.22081 22.5695 4.51378 20.1906 4.51378 18.0556C4.51378 16.4577 6.40397 14.9038 9.32897 14.0946L8.7275 11.9189C4.73609 13.0226 2.25684 15.3732 2.25684 18.0556C2.25684 21.8518 7.21421 24.8264 13.5416 24.8264C19.8689 24.8264 24.8263 21.8518 24.8263 18.0556C24.8263 15.3732 22.347 13.0226 18.3567 11.9201Z" fill="#6FA4E9"/>
</svg>
