<svg width="19" height="22" viewBox="0 0 19 22" fill="none" xmlns="http://www.w3.org/2000/svg">
<path fill-rule="evenodd" clip-rule="evenodd" d="M16.478 11.8259L16.5003 12.1212C16.5088 13.241 16.7118 14.3508 17.1002 15.4011L18 17.9511L17.2506 18.9995H12.0003C11.981 19.7891 11.6587 20.5409 11.1001 21.0993C10.5415 21.6577 9.78957 21.9799 9 21.9989C8.60575 22.01 8.2138 21.9352 7.85129 21.7799C7.48877 21.6245 7.16434 21.3922 6.90043 21.0991C6.61887 20.8262 6.39433 20.5 6.23986 20.1396C6.0854 19.7791 6.00407 19.3916 6.00062 18.9995H0.749381L0 17.952L0.899814 15.402C1.24496 14.2307 1.4464 13.0217 1.49969 11.8017V8.50048C1.46636 7.46774 1.67197 6.44125 2.1005 5.50103C2.52316 4.53859 3.13518 3.67106 3.90012 2.95011C4.65411 2.22333 5.58502 1.70632 6.60049 1.45038C7.36657 1.15657 8.17953 1.00398 9 1C8.6688 1.53242 8.36837 2.08338 8.10018 2.65016C7.72625 2.6258 7.35544 2.7318 7.05087 2.95011C6.24985 3.14014 5.52058 3.55701 4.95037 4.15082C4.29148 4.66167 3.77477 5.33314 3.44975 6.10092C3.14278 6.8632 2.99002 7.67878 3.00031 8.50048V11.8008C2.9477 13.1688 2.74656 14.527 2.40043 15.8515L1.80056 17.4998H16.1939L15.6005 15.8515C15.3595 15.0453 15.1783 14.2225 15.0582 13.3897L15.0025 11.8528C15.1873 12.071 16.0648 11.9187 16.478 11.8259ZM9 20.5215C9.39312 20.5037 9.76638 20.3437 10.0502 20.0711C10.1968 19.9393 10.313 19.7771 10.3908 19.5959C10.4685 19.4148 10.506 19.2189 10.5006 19.0218H7.50031C7.49473 19.2189 7.53212 19.4149 7.6099 19.5961C7.68767 19.7773 7.80396 19.9394 7.95068 20.0711C8.23417 20.3437 8.60715 20.5038 9 20.5215ZM16.5003 11.8212V8.52091C16.534 7.48794 16.3287 6.46112 15.9004 5.52053C15.4771 4.55875 14.8651 3.69165 14.1008 2.97054C13.3471 2.24341 12.4161 1.72635 11.4004 1.47081C10.634 1.17701 9.82077 1.02442 9 1.02043C8.65528 1.54485 8.35433 2.09677 8.10018 2.67059C9.05975 2.62916 10.0201 2.73024 10.9501 2.97054C11.751 3.16016 12.4803 3.57672 13.0506 4.17032C13.7088 4.68161 14.2251 5.35298 14.5502 6.12042C14.8575 6.88297 15.0106 7.69885 15.0006 8.52091V11.8212C15.034 12.1268 16.5003 11.8212 16.5003 11.8212Z" fill="#7B8794" stroke="#7B8794" stroke-width="0.00352771" stroke-miterlimit="10"/>
</svg>
