<svg width="20" height="23" viewBox="0 0 20 23" fill="none" xmlns="http://www.w3.org/2000/svg">
<path fill-rule="evenodd" clip-rule="evenodd" d="M17.478 11.8259L17.5003 12.1212C17.5088 13.241 17.7118 14.3508 18.1002 15.4011L19 17.9511L18.2506 18.9995H13.0003C12.981 19.7891 12.6587 20.5409 12.1001 21.0993C11.5415 21.6577 10.7896 21.9799 10 21.9989C9.60575 22.01 9.2138 21.9352 8.85129 21.7799C8.48877 21.6245 8.16434 21.3922 7.90043 21.0991C7.61887 20.8262 7.39433 20.5 7.23986 20.1396C7.0854 19.7791 7.00407 19.3916 7.00062 18.9995H1.74938L1 17.952L1.89981 15.402C2.24496 14.2307 2.4464 13.0217 2.49969 11.8017V8.50048C2.46636 7.46774 2.67197 6.44125 3.1005 5.50103C3.52316 4.53859 4.13518 3.67106 4.90012 2.95011C5.65411 2.22333 6.58502 1.70632 7.60049 1.45038C8.36657 1.15657 9.17953 1.00398 10 1C9.6688 1.53242 9.36837 2.08338 9.10018 2.65016C8.72625 2.6258 8.35544 2.7318 8.05087 2.95011C7.24985 3.14014 6.52058 3.55701 5.95037 4.15082C5.29148 4.66167 4.77477 5.33314 4.44975 6.10092C4.14278 6.8632 3.99002 7.67878 4.00031 8.50048V11.8008C3.9477 13.1688 3.74656 14.527 3.40043 15.8515L2.80056 17.4998H17.1939L16.6005 15.8515C16.3595 15.0453 16.1783 14.2225 16.0582 13.3897L16.0025 11.8528C16.1873 12.071 17.0648 11.9187 17.478 11.8259ZM10 20.5215C10.3931 20.5037 10.7664 20.3437 11.0502 20.0711C11.1968 19.9393 11.313 19.7771 11.3908 19.5959C11.4685 19.4148 11.506 19.2189 11.5006 19.0218H8.50031C8.49473 19.2189 8.53212 19.4149 8.6099 19.5961C8.68767 19.7773 8.80396 19.9394 8.95068 20.0711C9.23417 20.3437 9.60715 20.5038 10 20.5215ZM17.5003 11.8212V8.52091C17.534 7.48794 17.3287 6.46112 16.9004 5.52053C16.4771 4.55875 15.8651 3.69165 15.1008 2.97054C14.3471 2.24341 13.4161 1.72635 12.4004 1.47081C11.634 1.17701 10.8208 1.02442 10 1.02043C9.65528 1.54485 9.35433 2.09677 9.10018 2.67059C10.0597 2.62916 11.0201 2.73024 11.9501 2.97054C12.751 3.16016 13.4803 3.57672 14.0506 4.17032C14.7088 4.68161 15.2251 5.35298 15.5502 6.12042C15.8575 6.88297 16.0106 7.69885 16.0006 8.52091V11.8212C16.034 12.1268 17.5003 11.8212 17.5003 11.8212Z" fill="#6FA4E9" stroke="#5D85B9" stroke-width="0.00352771" stroke-miterlimit="10"/>
</svg>
