<svg width="27" height="19" viewBox="0 0 27 19" fill="none" xmlns="http://www.w3.org/2000/svg">
<path d="M15.2002 8.55H11.4002V4.75H9.5002V8.55H5.7002V10.45H9.5002V14.25H11.4002V10.45H15.2002V8.55Z" fill="#6FA4E9"/>
<path d="M18.05 19H1.9C1.39624 18.9995 0.913263 18.7992 0.557053 18.4429C0.200843 18.0867 0.000503003 17.6038 0 17.1V1.9C0.000503003 1.39624 0.200843 0.913263 0.557053 0.557053C0.913263 0.200843 1.39624 0.000503003 1.9 0H18.05C18.5538 0.000503003 19.0367 0.200843 19.393 0.557053C19.7492 0.913263 19.9495 1.39624 19.95 1.9V5.75415L25.0981 2.07765C25.24 1.97629 25.4072 1.91599 25.5812 1.90335C25.7552 1.89072 25.9293 1.92624 26.0844 2.00602C26.2396 2.0858 26.3698 2.20675 26.4607 2.35563C26.5517 2.5045 26.5998 2.67555 26.6 2.85V16.15C26.6 16.3245 26.552 16.4957 26.4611 16.6447C26.3702 16.7937 26.24 16.9148 26.0849 16.9947C25.9297 17.0746 25.7555 17.1102 25.5814 17.0976C25.4074 17.085 25.2401 17.0247 25.0981 16.9233L19.95 13.2468V17.1C19.9495 17.6038 19.7492 18.0867 19.393 18.4429C19.0367 18.7992 18.5538 18.9995 18.05 19ZM1.9 1.9V17.1009L18.05 17.1V11.4C18.05 11.2255 18.0981 11.0543 18.1889 10.9053C18.2798 10.7563 18.41 10.6352 18.5651 10.5553C18.7203 10.4754 18.8945 10.4398 19.0686 10.4524C19.2427 10.465 19.4099 10.5253 19.552 10.6267L24.7 14.3032V4.6968L19.552 8.3733C19.4099 8.4747 19.2427 8.53502 19.0686 8.54761C18.8945 8.56021 18.7203 8.52461 18.5651 8.44472C18.41 8.36482 18.2798 8.24372 18.1889 8.09471C18.0981 7.9457 18.05 7.77453 18.05 7.6V1.9H1.9Z" fill="#6FA4E9"/>
</svg>
