<svg width="11" height="19" viewBox="0 0 11 19" fill="none" xmlns="http://www.w3.org/2000/svg">
<path fill-rule="evenodd" clip-rule="evenodd" d="M7.20714 9.32842L1.18499 15.3506C1.17199 15.3627 1.15915 15.3751 1.14648 15.3877L0.439372 16.0949C-0.146415 16.6806 -0.146415 17.6304 0.439372 18.2162C1.02516 18.802 1.97491 18.802 2.56069 18.2162L2.88846 17.8884L2.88912 17.8891L9.68201 11.0962C10.6583 10.1199 10.6583 8.53696 9.68201 7.56065L3.26778 1.14643L2.88912 0.767756L2.56068 0.439327C1.97489 -0.146459 1.02514 -0.14646 0.439356 0.439327C-0.146431 1.02511 -0.146431 1.97486 0.439356 2.56065L0.767801 2.88908L1.14646 3.26775C1.1479 3.26919 1.14934 3.27063 1.15079 3.27206L7.20714 9.32842Z" fill="#6FA4E9"/>
</svg>
