<svg width="18" height="21" viewBox="0 0 18 21" fill="none" xmlns="http://www.w3.org/2000/svg">
<path d="M17.066 14.3596C16.6865 13.2076 16.4926 12.0025 16.4915 10.7895V7.79246C16.5191 5.89339 15.8413 4.05157 14.5894 2.62332C13.3418 1.19282 11.6101 0.273042 9.72627 0.0402469C8.68524 -0.0677561 7.62621 0.040247 6.62118 0.380756C5.61616 0.703265 4.70113 1.24178 3.93011 1.9603C3.15524 2.66029 2.53764 3.51665 2.11806 4.47287C1.69639 5.42872 1.47631 6.46124 1.47154 7.50596V10.806C1.46934 12.014 1.27542 13.214 0.897025 14.3611L0 17.0147L0.71852 18.0017H5.97617C5.97617 18.7908 6.29868 19.5618 6.85519 20.1198C7.41021 20.6748 8.18273 20.9988 8.97325 20.9988C9.76227 20.9988 10.5333 20.6763 11.0898 20.1198C11.6463 19.5633 11.9703 18.7908 11.9703 18.0017H17.228L17.945 17.0147L17.066 14.3596ZM10.0308 19.0803C9.89277 19.221 9.72829 19.3331 9.54679 19.4101C9.3653 19.4871 9.17038 19.5274 8.97325 19.5288C8.77576 19.5274 8.58049 19.487 8.39872 19.4097C8.21696 19.3325 8.05229 19.22 7.91422 19.0788C7.77318 18.9409 7.66081 18.7765 7.58357 18.595C7.50634 18.4135 7.46577 18.2185 7.46421 18.0212H10.4628C10.469 18.2181 10.434 18.414 10.3598 18.5964C10.2857 18.7788 10.1741 18.9437 10.0323 19.0803H10.0308ZM1.75805 16.5152L2.31456 14.8442C2.74855 13.5423 2.97285 12.1798 2.97908 10.8075V7.50596C2.97908 6.66143 3.15909 5.83641 3.4996 5.08189C3.84011 4.31087 4.32462 3.62835 4.95314 3.07183C5.58166 2.49882 6.31818 2.0668 7.1072 1.8163C7.91422 1.54629 8.75724 1.45629 9.58227 1.54629C11.0943 1.74511 12.4807 2.49247 13.4779 3.64635C14.4754 4.80167 15.0116 6.28436 14.9839 7.81046V10.8255C14.9839 12.1891 15.1999 13.5526 15.6484 14.8622L16.205 16.5317H1.75955V16.5137L1.75805 16.5152Z" fill="#6FA4E9"/>
</svg>
