<svg width="20" height="20" viewBox="0 0 20 20" fill="none" xmlns="http://www.w3.org/2000/svg">
<path fill-rule="evenodd" clip-rule="evenodd" d="M16.2536 11.2857C16.3965 12.1429 16.5393 12.8571 16.825 13.7143L17.6822 16.1429L16.9679 17.1429H11.9679C11.9679 17.8571 11.6822 18.5714 11.1107 19.1429C10.5393 19.7143 9.82502 20 9.11073 20C8.39645 20 7.53931 19.7143 7.11074 19.1429C6.53931 18.5714 6.25359 17.8571 6.25359 17.1429H1.25359L0.539307 16.1429L1.39645 13.7143C1.68216 12.5714 1.96788 11.4286 1.96788 10.2857V7.14286C1.96788 6.14286 2.11074 5.14286 2.53931 4.28571C2.96788 3.28571 3.53931 2.57143 4.25359 1.85714C4.96788 1.14286 5.82502 0.714286 6.82502 0.428571C7.53931 0.142857 8.39645 0 9.11073 0C8.82502 0.428571 8.53931 1 8.25359 1.57143C7.96788 1.57143 7.68216 1.57143 7.25359 1.85714C6.53931 2 5.82502 2.42857 5.25359 3C4.68216 3.42857 4.11074 4.14286 3.82502 4.85714C3.53931 5.57143 3.39645 6.28571 3.39645 7.14286V10.2857C3.39645 11.5714 3.11074 12.8571 2.82502 14.1429L2.25359 15.7143H15.9679L15.3964 14.1429C15.1464 13.3914 15.005 12.5286 14.8779 11.7514L14.825 11.4286C15.3965 11.4286 15.825 11.4286 16.2536 11.2857ZM9.11073 18.5714C9.39645 18.5714 9.82502 18.4286 10.1107 18.1429C10.3964 17.8571 10.5393 17.5714 10.5393 17.1429H7.68216C7.68216 17.5714 7.82502 17.8571 8.11074 18.1429C8.39645 18.4286 8.82502 18.5714 9.11073 18.5714ZM19.1107 4.28571C19.1107 5.42236 18.6592 6.51244 17.8555 7.31617C17.0518 8.1199 15.9617 8.57143 14.825 8.57143C13.6884 8.57143 12.5983 8.1199 11.7946 7.31617C10.9908 6.51244 10.5393 5.42236 10.5393 4.28571C10.5393 3.14907 10.9908 2.05898 11.7946 1.25526C12.5983 0.451529 13.6884 0 14.825 0C15.9617 0 17.0518 0.451529 17.8555 1.25526C18.6592 2.05898 19.1107 3.14907 19.1107 4.28571Z" fill="#6FA4E9"/>
</svg>
