<svg width="32" height="25" viewBox="0 0 32 25" fill="none" xmlns="http://www.w3.org/2000/svg">
<path d="M21.8797 19.4922L25.5401 15.8373L29.2022 19.4938L31.4594 17.24L27.799 13.585L31.4594 9.93013L29.2022 7.6763L25.5417 11.3312L21.8813 7.6763L19.624 9.93013L23.2829 13.5835L19.6224 17.2384L21.8797 19.4922ZM15.9636 7.20927C15.9636 3.57508 13.2178 0.833496 9.57815 0.833496C5.93845 0.833496 3.19272 3.57508 3.19272 7.20927C3.19272 10.8435 5.93845 13.585 9.57815 13.585C13.2178 13.585 15.9636 10.8435 15.9636 7.20927ZM6.38543 7.20927C6.38543 5.33161 7.69764 4.02138 9.57815 4.02138C11.4587 4.02138 12.7709 5.33161 12.7709 7.20927C12.7709 9.08694 11.4587 10.3972 9.57815 10.3972C7.69764 10.3972 6.38543 9.08694 6.38543 7.20927ZM3.19272 23.1487C3.19272 20.5123 5.34141 18.3669 7.98179 18.3669H11.1745C13.8149 18.3669 15.9636 20.5123 15.9636 23.1487V24.7427H19.1563V23.1487C19.1563 18.7542 15.5757 15.179 11.1745 15.179H7.98179C3.58063 15.179 0 18.7542 0 23.1487V24.7427H3.19272V23.1487Z" fill="#6FA4E9"/>
</svg>
