<svg width="17" height="20" viewBox="0 0 17 20" fill="none" xmlns="http://www.w3.org/2000/svg">
<path d="M1.72637 19.7653C1.60715 19.845 1.46849 19.8909 1.32522 19.8979C1.18196 19.905 1.03946 19.873 0.91297 19.8054C0.786477 19.7377 0.680739 19.637 0.607055 19.5139C0.533371 19.3909 0.494512 19.2501 0.494629 19.1066V4.08034C0.494627 3.24164 0.827363 2.43721 1.41982 1.84357C2.01227 1.24993 2.81604 0.915584 3.65473 0.913906L13.154 0.896491C13.5698 0.895658 13.9818 0.976736 14.3662 1.1351C14.7507 1.29346 15.1003 1.52599 15.3949 1.81944C15.6895 2.11288 15.9234 2.46148 16.0833 2.84533C16.2432 3.22918 16.326 3.64077 16.3268 4.05659V19.1066C16.3269 19.2501 16.288 19.3909 16.2144 19.5139C16.1407 19.637 16.0349 19.7377 15.9084 19.8054C15.782 19.873 15.6395 19.905 15.4962 19.8979C15.3529 19.8909 15.2143 19.845 15.095 19.7653L8.41071 15.3006L1.72479 19.7653H1.72637ZM14.742 4.06134L14.7309 3.87452C14.6851 3.48942 14.4996 3.1345 14.2095 2.87711C13.9195 2.61971 13.545 2.47774 13.1572 2.47812L3.65789 2.49396C3.23855 2.49479 2.83666 2.66197 2.54044 2.95879C2.24421 3.25561 2.07784 3.65783 2.07784 4.07717V17.6248L7.97058 13.6889C8.10066 13.6021 8.25354 13.5558 8.40992 13.5558C8.5663 13.5558 8.71918 13.6021 8.84926 13.6889L14.7436 17.6248V4.06134H14.742Z" fill="#6FA4E9"/>
</svg>
