<svg width="28" height="27" viewBox="0 0 28 27" fill="none" xmlns="http://www.w3.org/2000/svg">
<path d="M2.56395 0.766558C4.01166 -0.020657 5.85773 -0.205109 7.62244 0.229671C8.48191 0.440473 9.21593 0.982301 9.65669 1.72834L11.179 4.30738C11.7215 5.22683 11.8783 6.31414 11.6165 7.34301C11.3547 8.37187 10.6947 9.26305 9.77365 9.83106L8.43444 10.6578C7.88011 10.9987 7.67669 11.5208 7.80383 11.9341C8.25814 13.4131 9.2634 15.0534 10.3687 16.1765C10.6975 16.5125 11.301 16.5916 11.891 16.2572L12.6318 15.8373C13.1179 15.562 13.6555 15.3836 14.2133 15.3123C14.7712 15.241 15.338 15.2784 15.8808 15.4222C16.4236 15.566 16.9315 15.8133 17.3749 16.1498C17.8183 16.4863 18.1883 16.9052 18.4633 17.3821L19.8279 19.7454C20.2737 20.5194 20.3466 21.4433 20.0313 22.275C19.4024 23.9268 18.1903 25.2575 16.7003 25.9262C15.1864 26.603 13.415 26.575 11.8113 25.5358C9.27187 23.8922 6.21203 21.1255 3.44037 16.5109C0.633117 11.8337 -0.0737824 7.85314 0.00589218 4.88544C0.0567483 2.98657 1.09082 1.56695 2.56395 0.766558V0.766558Z" fill="#7B8794"/>
<path d="M18.1463 0.140712C17.9498 0.0345735 17.718 0.00860685 17.5018 0.0685244C17.2856 0.128442 17.1028 0.269335 16.9935 0.46021C16.8843 0.651085 16.8576 0.876306 16.9192 1.08633C16.9809 1.29635 17.1259 1.47396 17.3224 1.5801L17.9734 1.93254C20.007 3.03004 21.7368 4.58956 23.015 6.47782C24.2933 8.36608 25.0819 10.5269 25.3136 12.7757L25.3679 13.2945C25.3743 13.4055 25.4037 13.5141 25.4545 13.6138C25.5053 13.7135 25.5764 13.8021 25.6634 13.8744C25.7504 13.9466 25.8516 14.001 25.9608 14.0343C26.07 14.0675 26.1851 14.0789 26.299 14.0678C26.4129 14.0566 26.5233 14.0232 26.6235 13.9695C26.7237 13.9158 26.8117 13.8429 26.8822 13.7552C26.9526 13.6676 27.0041 13.567 27.0334 13.4595C27.0628 13.352 27.0694 13.2398 27.0529 13.1298L27.0003 12.6127C26.7417 10.0988 25.8603 7.68323 24.4314 5.57238C23.0026 3.46153 21.0689 1.71822 18.7956 0.491501L18.1463 0.140712V0.140712Z" fill="#7B8794"/>
<path d="M16.1596 4.5544C16.2754 4.36727 16.463 4.23248 16.6811 4.17966C16.8991 4.12685 17.1299 4.16035 17.3225 4.27278L17.5327 4.39465C18.9008 5.19185 20.0744 6.26813 20.9723 7.54911C21.8703 8.83009 22.4712 10.2852 22.7336 11.8139L22.8082 12.2537C22.8302 12.3618 22.8296 12.4731 22.8065 12.581C22.7834 12.6889 22.7382 12.7912 22.6736 12.8819C22.609 12.9725 22.5264 13.0496 22.4305 13.1086C22.3347 13.1677 22.2277 13.2074 22.1157 13.2255C22.0038 13.2436 21.8893 13.2396 21.779 13.2139C21.6686 13.1882 21.5648 13.1412 21.4735 13.0758C21.3822 13.0104 21.3053 12.9278 21.2475 12.833C21.1896 12.7381 21.152 12.633 21.1367 12.5238L21.0605 12.084C20.8386 10.7906 20.3304 9.55943 19.5709 8.47551C18.8114 7.39159 17.8187 6.48079 16.6614 5.80605L16.4512 5.68418C16.3557 5.62861 16.2724 5.5553 16.206 5.46845C16.1397 5.38159 16.0916 5.28289 16.0645 5.17797C16.0374 5.07306 16.0319 4.96399 16.0482 4.857C16.0645 4.75 16.1024 4.64718 16.1596 4.5544V4.5544Z" fill="#7B8794"/>
</svg>
