<svg width="75" height="75" viewBox="0 0 75 75" fill="none" xmlns="http://www.w3.org/2000/svg">
<rect x="0.5" y="0.5" width="74" height="74" rx="29.5" stroke="#FC79A8"/>
<path d="M22.518 20.0491C24.5045 18.9717 27.0375 18.7193 29.4589 19.3143C30.6382 19.6028 31.6453 20.3443 32.2501 21.3654L34.3389 24.895C35.0833 26.1533 35.2984 27.6413 34.9392 29.0494C34.58 30.4575 33.6743 31.6771 32.4106 32.4545L30.573 33.586C29.8124 34.0525 29.5333 34.767 29.7078 35.3327C30.3311 37.3567 31.7105 39.6016 33.227 41.1388C33.6783 41.5985 34.5063 41.7067 35.3158 41.2492L36.3323 40.6744C36.9992 40.2977 37.7369 40.0535 38.5023 39.956C39.2677 39.8584 40.0455 39.9095 40.7903 40.1063C41.5351 40.3031 42.2321 40.6416 42.8404 41.1022C43.4488 41.5627 43.9564 42.136 44.3338 42.7886L46.2062 46.0229C46.8179 47.0823 46.918 48.3467 46.4853 49.4849C45.6224 51.7456 43.9593 53.5667 41.9147 54.4818C39.8376 55.4081 37.4069 55.3698 35.2065 53.9476C31.7221 51.6982 27.5236 47.9117 23.7206 41.5963C19.8687 35.1952 18.8988 29.7476 19.0081 25.6861C19.0779 23.0873 20.4967 21.1445 22.518 20.0491Z" fill="#FC79A8"/>
<path d="M43.8987 19.1926C43.6291 19.0474 43.311 19.0118 43.0144 19.0938C42.7178 19.1758 42.4669 19.3687 42.317 19.6299C42.1671 19.8911 42.1304 20.1993 42.215 20.4868C42.2997 20.7742 42.4987 21.0173 42.7682 21.1625L43.6614 21.6449C46.4517 23.1469 48.8253 25.2812 50.5792 27.8654C52.3331 30.4496 53.4152 33.4069 53.7331 36.4845L53.8075 37.1945C53.8163 37.3464 53.8568 37.4951 53.9264 37.6315C53.9961 37.7679 54.0936 37.8892 54.213 37.9881C54.3324 38.087 54.4712 38.1614 54.6211 38.2069C54.771 38.2524 54.9288 38.268 55.0851 38.2528C55.2414 38.2375 55.3929 38.1918 55.5304 38.1183C55.6679 38.0448 55.7887 37.945 55.8854 37.8251C55.982 37.7051 56.0526 37.5674 56.0929 37.4203C56.1331 37.2732 56.1422 37.1197 56.1196 36.9691L56.0475 36.2614C55.6926 32.821 54.4832 29.5151 52.5227 26.6262C50.5621 23.7374 47.9088 21.3516 44.7896 19.6727L43.8987 19.1926Z" fill="#FC79A8"/>
<path d="M41.1728 25.233C41.3316 24.9769 41.589 24.7924 41.8882 24.7202C42.1874 24.6479 42.5041 24.6937 42.7684 24.8476L43.0568 25.0144C44.934 26.1054 46.5442 27.5784 47.7763 29.3315C49.0084 31.0846 49.833 33.0761 50.1931 35.1682L50.2954 35.77C50.3256 35.918 50.3247 36.0704 50.293 36.218C50.2613 36.3657 50.1993 36.5057 50.1107 36.6298C50.022 36.7538 49.9086 36.8593 49.7772 36.9401C49.6457 37.0209 49.4988 37.0753 49.3452 37.1C49.1917 37.1248 49.0345 37.1194 48.8832 37.0842C48.7318 37.049 48.5892 36.9847 48.4639 36.8952C48.3387 36.8056 48.2332 36.6926 48.1539 36.5628C48.0745 36.433 48.0228 36.2891 48.0019 36.1396L47.8973 35.5379C47.5929 33.7677 46.8956 32.0828 45.8534 30.5993C44.8113 29.1159 43.4492 27.8694 41.8613 26.946L41.5728 26.7792C41.4418 26.7032 41.3275 26.6028 41.2364 26.484C41.1454 26.3651 41.0794 26.23 41.0422 26.0864C41.0051 25.9428 40.9975 25.7936 41.0199 25.6471C41.0423 25.5007 41.0942 25.36 41.1728 25.233Z" fill="#FC79A8"/>
</svg>
