<svg width="75" height="75" viewBox="0 0 75 75" fill="none" xmlns="http://www.w3.org/2000/svg">
<rect x="0.5" y="0.5" width="74" height="74" rx="29.5" stroke="#6FA4E9"/>
<path d="M22.518 20.0491C24.5045 18.9717 27.0375 18.7193 29.4589 19.3143C30.6382 19.6028 31.6453 20.3443 32.2501 21.3654L34.3389 24.895C35.0833 26.1533 35.2984 27.6413 34.9392 29.0494C34.58 30.4575 33.6743 31.6771 32.4106 32.4545L30.573 33.586C29.8124 34.0525 29.5333 34.767 29.7078 35.3327C30.3311 37.3567 31.7105 39.6016 33.227 41.1388C33.6783 41.5985 34.5063 41.7067 35.3158 41.2492L36.3323 40.6744C36.9992 40.2977 37.7369 40.0535 38.5023 39.956C39.2677 39.8584 40.0455 39.9095 40.7903 40.1063C41.5351 40.3031 42.2321 40.6416 42.8404 41.1022C43.4488 41.5627 43.9564 42.136 44.3338 42.7886L46.2062 46.0229C46.8179 47.0823 46.918 48.3467 46.4853 49.4849C45.6224 51.7456 43.9593 53.5667 41.9147 54.4818C39.8376 55.4081 37.4069 55.3698 35.2065 53.9476C31.7221 51.6982 27.5236 47.9117 23.7206 41.5963C19.8687 35.1952 18.8988 29.7476 19.0081 25.6861C19.0779 23.0873 20.4967 21.1445 22.518 20.0491Z" fill="#6FA4E9"/>
<path d="M43.8987 19.1928C43.6291 19.0476 43.311 19.012 43.0144 19.094C42.7178 19.176 42.4669 19.3688 42.317 19.6301C42.1671 19.8913 42.1304 20.1995 42.215 20.487C42.2997 20.7744 42.4987 21.0175 42.7682 21.1627L43.6614 21.6451C46.4517 23.1471 48.8253 25.2814 50.5792 27.8656C52.3331 30.4498 53.4152 33.4071 53.7331 36.4847L53.8075 37.1947C53.8163 37.3466 53.8568 37.4953 53.9264 37.6317C53.9961 37.7681 54.0936 37.8894 54.213 37.9883C54.3324 38.0872 54.4712 38.1616 54.6211 38.2071C54.771 38.2526 54.9288 38.2682 55.0851 38.2529C55.2414 38.2377 55.3929 38.1919 55.5304 38.1184C55.6679 38.0449 55.7887 37.9452 55.8854 37.8252C55.982 37.7053 56.0526 37.5676 56.0929 37.4205C56.1331 37.2734 56.1422 37.1199 56.1196 36.9693L56.0475 36.2615C55.6926 32.8212 54.4832 29.5153 52.5227 26.6264C50.5621 23.7376 47.9088 21.3518 44.7896 19.6729L43.8987 19.1928Z" fill="#6FA4E9"/>
<path d="M41.1728 25.2328C41.3316 24.9767 41.589 24.7923 41.8882 24.72C42.1874 24.6477 42.5041 24.6936 42.7684 24.8474L43.0568 25.0142C44.934 26.1052 46.5442 27.5782 47.7763 29.3313C49.0084 31.0844 49.833 33.0759 50.1931 35.168L50.2954 35.7698C50.3256 35.9178 50.3247 36.0702 50.293 36.2179C50.2613 36.3655 50.1993 36.5055 50.1107 36.6296C50.022 36.7536 49.9086 36.8591 49.7772 36.9399C49.6457 37.0207 49.4988 37.0751 49.3452 37.0998C49.1917 37.1246 49.0345 37.1192 48.8832 37.084C48.7318 37.0488 48.5892 36.9845 48.4639 36.895C48.3387 36.8054 48.2332 36.6924 48.1539 36.5626C48.0745 36.4328 48.0228 36.2889 48.0019 36.1395L47.8973 35.5377C47.5929 33.7676 46.8956 32.0826 45.8534 30.5992C44.8113 29.1157 43.4492 27.8692 41.8613 26.9458L41.5728 26.779C41.4418 26.703 41.3275 26.6026 41.2364 26.4838C41.1454 26.3649 41.0794 26.2298 41.0422 26.0862C41.0051 25.9427 40.9975 25.7934 41.0199 25.647C41.0423 25.5005 41.0942 25.3598 41.1728 25.2328Z" fill="#6FA4E9"/>
</svg>
