<svg width="22" height="22" viewBox="0 0 22 22" fill="none" xmlns="http://www.w3.org/2000/svg">
<path d="M2.06272 0.616701C3.2274 -0.0166187 4.71258 -0.165011 6.1323 0.184772C6.82374 0.354363 7.41427 0.790267 7.76886 1.39046L8.99355 3.46531C9.43005 4.20502 9.55612 5.07976 9.34554 5.90749C9.13495 6.73522 8.60392 7.45218 7.86296 7.90915L6.78556 8.57426C6.3396 8.84853 6.17594 9.26853 6.27822 9.60109C6.64372 10.7909 7.45246 12.1105 8.34165 13.0141C8.60623 13.2844 9.09175 13.348 9.56635 13.079L10.1623 12.7412C10.5534 12.5197 10.9859 12.3762 11.4347 12.3188C11.8835 12.2615 12.3395 12.2915 12.7762 12.4072C13.2129 12.5229 13.6215 12.7219 13.9782 12.9926C14.3349 13.2633 14.6326 13.6003 14.8538 13.984L15.9517 15.8853C16.3103 16.508 16.369 17.2513 16.1153 17.9204C15.6093 19.2493 14.6342 20.3198 13.4355 20.8577C12.2176 21.4023 10.7924 21.3798 9.50225 20.5437C7.45928 19.2214 4.99762 16.9956 2.7678 13.2831C0.509346 9.52027 -0.0593583 6.3179 0.0047403 3.93036C0.0456543 2.40271 0.877573 1.26062 2.06272 0.616701Z" fill="#6FA4E9"/>
<path d="M14.5954 0.113281C14.4373 0.0278923 14.2508 0.00700202 14.0769 0.055206C13.903 0.10341 13.7559 0.21676 13.668 0.37032C13.5801 0.523879 13.5586 0.705071 13.6082 0.874033C13.6578 1.043 13.7745 1.18589 13.9326 1.27128L14.4563 1.55482C16.0923 2.43776 17.4839 3.6924 18.5123 5.21152C19.5407 6.73064 20.1751 8.46906 20.3615 10.2782L20.4052 10.6956C20.4103 10.7849 20.434 10.8723 20.4749 10.9525C20.5157 11.0326 20.5729 11.104 20.6429 11.1621C20.7129 11.2202 20.7943 11.264 20.8822 11.2907C20.9701 11.3175 21.0626 11.3266 21.1542 11.3177C21.2459 11.3087 21.3347 11.2818 21.4153 11.2386C21.496 11.1954 21.5668 11.1368 21.6234 11.0663C21.6801 10.9957 21.7215 10.9148 21.7451 10.8283C21.7687 10.7418 21.774 10.6516 21.7608 10.5631L21.7185 10.147C21.5104 8.12464 20.8013 6.18128 19.6518 4.48309C18.5023 2.7849 16.9466 1.3824 15.1177 0.395494L14.5954 0.113281Z" fill="#6FA4E9"/>
<path d="M12.9993 3.66393C13.0925 3.51337 13.2434 3.40493 13.4188 3.36245C13.5943 3.31996 13.7799 3.3469 13.9349 3.43736L14.104 3.53541C15.2046 4.17676 16.1488 5.04263 16.8712 6.07319C17.5936 7.10374 18.0771 8.2744 18.2882 9.50426L18.3482 9.85802C18.3659 9.94502 18.3654 10.0346 18.3468 10.1214C18.3282 10.2082 18.2918 10.2905 18.2399 10.3634C18.1879 10.4363 18.1214 10.4984 18.0443 10.5459C17.9672 10.5933 17.8811 10.6253 17.7911 10.6399C17.701 10.6544 17.6089 10.6512 17.5201 10.6306C17.4314 10.6099 17.3478 10.5721 17.2743 10.5194C17.2009 10.4668 17.1391 10.4004 17.0925 10.3241C17.046 10.2478 17.0157 10.1632 17.0035 10.0753L16.9421 9.72155C16.7636 8.681 16.3548 7.69049 15.7437 6.81847C15.1327 5.94645 14.3341 5.21371 13.403 4.67088L13.2339 4.57283C13.1571 4.52813 13.09 4.46915 13.0367 4.39928C12.9833 4.3294 12.9446 4.24999 12.9228 4.16559C12.901 4.08119 12.8966 3.99344 12.9097 3.90736C12.9228 3.82128 12.9533 3.73856 12.9993 3.66393Z" fill="#6FA4E9"/>
</svg>
