<svg width="75" height="75" viewBox="0 0 75 75" fill="none" xmlns="http://www.w3.org/2000/svg">
<rect x="0.5" y="0.5" width="74" height="74" rx="29.5" stroke="#6FA4E9"/>
<path d="M22.518 20.0491C24.5045 18.9717 27.0375 18.7193 29.4589 19.3143C30.6382 19.6028 31.6453 20.3443 32.2501 21.3654L34.3389 24.895C35.0833 26.1533 35.2984 27.6413 34.9392 29.0494C34.58 30.4575 33.6743 31.6771 32.4106 32.4545L30.573 33.586C29.8124 34.0525 29.5333 34.767 29.7078 35.3327C30.3311 37.3567 31.7105 39.6016 33.227 41.1388C33.6783 41.5985 34.5063 41.7067 35.3158 41.2492L36.3323 40.6744C36.9992 40.2977 37.7369 40.0535 38.5023 39.956C39.2677 39.8584 40.0455 39.9095 40.7903 40.1063C41.5351 40.3031 42.2321 40.6416 42.8404 41.1022C43.4488 41.5627 43.9564 42.136 44.3338 42.7886L46.2062 46.0229C46.8179 47.0823 46.918 48.3467 46.4853 49.4849C45.6224 51.7456 43.9593 53.5667 41.9147 54.4818C39.8376 55.4081 37.4069 55.3698 35.2065 53.9476C31.7221 51.6982 27.5236 47.9117 23.7206 41.5963C19.8687 35.1952 18.8988 29.7476 19.0081 25.6861C19.0779 23.0873 20.4967 21.1445 22.518 20.0491Z" fill="#6FA4E9"/>
<path d="M43.8988 19.1926C43.6292 19.0473 43.3111 19.0118 43.0145 19.0938C42.7178 19.1758 42.467 19.3686 42.3171 19.6298C42.1672 19.8911 42.1305 20.1993 42.2151 20.4867C42.2997 20.7741 42.4987 21.0172 42.7683 21.1625L43.6615 21.6448C46.4518 23.1468 48.8254 25.2811 50.5793 27.8653C52.3332 30.4495 53.4153 33.4068 53.7332 36.4844L53.8076 37.1944C53.8164 37.3464 53.8568 37.495 53.9265 37.6314C53.9962 37.7678 54.0937 37.8891 54.2131 37.988C54.3325 38.0869 54.4713 38.1614 54.6212 38.2068C54.7711 38.2523 54.9289 38.2679 55.0852 38.2527C55.2415 38.2375 55.3929 38.1917 55.5305 38.1182C55.668 38.0447 55.7888 37.945 55.8854 37.825C55.9821 37.705 56.0527 37.5673 56.0929 37.4202C56.1332 37.2731 56.1423 37.1196 56.1196 36.969L56.0475 36.2613C55.6926 32.8209 54.4832 29.515 52.5227 26.6262C50.5622 23.7373 47.9089 21.3515 44.7896 19.6727L43.8988 19.1926Z" fill="#6FA4E9"/>
<path d="M41.1728 25.2331C41.3317 24.977 41.5891 24.7925 41.8883 24.7202C42.1875 24.648 42.5041 24.6938 42.7685 24.8477L43.0569 25.0145C44.934 26.1055 46.5443 27.5784 47.7764 29.3316C49.0085 31.0847 49.8331 33.0761 50.1931 35.1683L50.2955 35.7701C50.3256 35.9181 50.3248 36.0704 50.2931 36.2181C50.2613 36.3658 50.1993 36.5058 50.1107 36.6298C50.0221 36.7539 49.9087 36.8594 49.7772 36.9402C49.6458 37.0209 49.4989 37.0753 49.3453 37.1001C49.1917 37.1248 49.0346 37.1194 48.8832 37.0843C48.7318 37.0491 48.5893 36.9848 48.464 36.8952C48.3387 36.8057 48.2333 36.6926 48.1539 36.5629C48.0746 36.4331 48.0229 36.2892 48.002 36.1397L47.8973 35.5379C47.593 33.7678 46.8956 32.0828 45.8535 30.5994C44.8113 29.116 43.4493 27.8695 41.8613 26.9461L41.5729 26.7793C41.4418 26.7032 41.3275 26.6029 41.2365 26.484C41.1454 26.3652 41.0795 26.2301 41.0423 26.0865C41.0052 25.9429 40.9976 25.7936 41.02 25.6472C41.0424 25.5008 41.0943 25.3601 41.1728 25.2331Z" fill="#6FA4E9"/>
</svg>
