<svg width="75" height="75" viewBox="0 0 75 75" fill="none" xmlns="http://www.w3.org/2000/svg">
<rect x="0.5" y="0.5" width="74" height="74" rx="29.5" stroke="#6FA4E9"/>
<path d="M57 36.8572C57 45.9884 48.2689 53.3907 37.5 53.3907C35.5687 53.3932 33.6453 53.1502 31.7792 52.6679C30.3557 53.3671 27.087 54.7086 21.588 55.5825C21.1005 55.6581 20.73 55.1668 20.9226 54.7275C21.7854 52.753 22.5654 50.1218 22.7994 47.7221C19.8135 44.8169 18 41.0142 18 36.8572C18 27.726 26.7311 20.3238 37.5 20.3238C48.2689 20.3238 57 27.726 57 36.8572ZM30.1875 36.8572C30.1875 36.2308 29.9307 35.63 29.4736 35.1871C29.0165 34.7442 28.3965 34.4953 27.75 34.4953C27.1035 34.4953 26.4835 34.7442 26.0264 35.1871C25.5693 35.63 25.3125 36.2308 25.3125 36.8572C25.3125 37.4837 25.5693 38.0844 26.0264 38.5274C26.4835 38.9703 27.1035 39.2192 27.75 39.2192C28.3965 39.2192 29.0165 38.9703 29.4736 38.5274C29.9307 38.0844 30.1875 37.4837 30.1875 36.8572ZM39.9375 36.8572C39.9375 36.2308 39.6807 35.63 39.2236 35.1871C38.7665 34.7442 38.1465 34.4953 37.5 34.4953C36.8535 34.4953 36.2335 34.7442 35.7764 35.1871C35.3193 35.63 35.0625 36.2308 35.0625 36.8572C35.0625 37.4837 35.3193 38.0844 35.7764 38.5274C36.2335 38.9703 36.8535 39.2192 37.5 39.2192C38.1465 39.2192 38.7665 38.9703 39.2236 38.5274C39.6807 38.0844 39.9375 37.4837 39.9375 36.8572ZM47.25 39.2192C47.8965 39.2192 48.5165 38.9703 48.9736 38.5274C49.4307 38.0844 49.6875 37.4837 49.6875 36.8572C49.6875 36.2308 49.4307 35.63 48.9736 35.1871C48.5165 34.7442 47.8965 34.4953 47.25 34.4953C46.6035 34.4953 45.9835 34.7442 45.5264 35.1871C45.0693 35.63 44.8125 36.2308 44.8125 36.8572C44.8125 37.4837 45.0693 38.0844 45.5264 38.5274C45.9835 38.9703 46.6035 39.2192 47.25 39.2192Z" fill="#6FA4E9"/>
</svg>
