<svg width="32" height="27" viewBox="0 0 32 27" fill="none" xmlns="http://www.w3.org/2000/svg">
<rect x="5" y="9" width="22" height="8" fill="#7B8794"/>
<path d="M31.2289 12.4659C31.2289 19.3506 24.2375 24.9318 15.6144 24.9318C14.0679 24.9337 12.5278 24.7505 11.0335 24.3869C9.89369 24.914 7.27632 25.9255 2.87305 26.5844C2.48269 26.6414 2.18602 26.271 2.34021 25.9398C3.03115 24.451 3.65573 22.4671 3.8431 20.6578C1.45214 18.4673 0 15.6002 0 12.4659C0 5.58116 6.99136 0 15.6144 0C24.2375 0 31.2289 5.58116 31.2289 12.4659ZM9.75902 12.4659C9.75902 11.9936 9.55338 11.5406 9.18735 11.2067C8.82131 10.8727 8.32486 10.6851 7.80721 10.6851C7.28956 10.6851 6.79311 10.8727 6.42708 11.2067C6.06105 11.5406 5.85541 11.9936 5.85541 12.4659C5.85541 12.9382 6.06105 13.3912 6.42708 13.7251C6.79311 14.0591 7.28956 14.2467 7.80721 14.2467C8.32486 14.2467 8.82131 14.0591 9.18735 13.7251C9.55338 13.3912 9.75902 12.9382 9.75902 12.4659ZM17.5662 12.4659C17.5662 11.9936 17.3606 11.5406 16.9946 11.2067C16.6285 10.8727 16.1321 10.6851 15.6144 10.6851C15.0968 10.6851 14.6003 10.8727 14.2343 11.2067C13.8683 11.5406 13.6626 11.9936 13.6626 12.4659C13.6626 12.9382 13.8683 13.3912 14.2343 13.7251C14.6003 14.0591 15.0968 14.2467 15.6144 14.2467C16.1321 14.2467 16.6285 14.0591 16.9946 13.7251C17.3606 13.3912 17.5662 12.9382 17.5662 12.4659ZM23.4216 14.2467C23.9393 14.2467 24.4357 14.0591 24.8018 13.7251C25.1678 13.3912 25.3734 12.9382 25.3734 12.4659C25.3734 11.9936 25.1678 11.5406 24.8018 11.2067C24.4357 10.8727 23.9393 10.6851 23.4216 10.6851C22.904 10.6851 22.4075 10.8727 22.0415 11.2067C21.6755 11.5406 21.4698 11.9936 21.4698 12.4659C21.4698 12.9382 21.6755 13.3912 22.0415 13.7251C22.4075 14.0591 22.904 14.2467 23.4216 14.2467Z" fill="#7B8794"/>
<path d="M20.9966 6.25222C20.767 6.12447 20.5145 6.04324 20.2535 6.01315C19.9925 5.98306 19.7281 6.00472 19.4755 6.07689C19.2229 6.14905 18.987 6.27031 18.7812 6.43371C18.5755 6.59712 18.404 6.79948 18.2766 7.02922L14.5636 13.7112L12.4386 11.5862C12.2541 11.3952 12.0334 11.2428 11.7894 11.138C11.5454 11.0332 11.2829 10.978 11.0174 10.9757C10.7518 10.9734 10.4885 11.024 10.2427 11.1246C9.99688 11.2251 9.77357 11.3736 9.58579 11.5614C9.398 11.7492 9.24949 11.9725 9.14893 12.2183C9.04837 12.4641 8.99777 12.7275 9.00008 12.993C9.00238 13.2586 9.05756 13.521 9.16237 13.765C9.26719 14.009 9.41956 14.2297 9.61058 14.4142L13.6106 18.4142C13.9886 18.7932 14.4986 19.0012 15.0246 19.0012L15.3016 18.9812C15.6081 18.9383 15.9005 18.8249 16.1558 18.6498C16.4111 18.4747 16.6222 18.2428 16.7726 17.9722L21.7726 8.97222C21.9002 8.74267 21.9814 8.49023 22.0115 8.2293C22.0416 7.96838 22.02 7.70408 21.9479 7.4515C21.8759 7.19892 21.7548 6.96301 21.5915 6.75724C21.4283 6.55146 21.2261 6.37986 20.9966 6.25222Z" fill="white"/>
</svg>
