<svg width="30" height="27" viewBox="0 0 30 27" fill="none" xmlns="http://www.w3.org/2000/svg">
<path d="M29.3293 12.4659C29.3293 19.3506 22.7632 24.9318 14.6646 24.9318C13.2122 24.9337 11.7658 24.7505 10.3624 24.3869C9.29188 24.914 6.83372 25.9255 2.69829 26.5844C2.33168 26.6414 2.05305 26.271 2.19786 25.9398C2.84677 24.451 3.43336 22.4671 3.60933 20.6578C1.36381 18.4673 0 15.6002 0 12.4659C0 5.58116 6.56609 0 14.6646 0C22.7632 0 29.3293 5.58116 29.3293 12.4659ZM9.1654 12.4659C9.1654 11.9936 8.97227 11.5406 8.6285 11.2067C8.28473 10.8727 7.81848 10.6851 7.33232 10.6851C6.84616 10.6851 6.37991 10.8727 6.03614 11.2067C5.69237 11.5406 5.49924 11.9936 5.49924 12.4659C5.49924 12.9382 5.69237 13.3912 6.03614 13.7251C6.37991 14.0591 6.84616 14.2467 7.33232 14.2467C7.81848 14.2467 8.28473 14.0591 8.6285 13.7251C8.97227 13.3912 9.1654 12.9382 9.1654 12.4659V12.4659ZM16.4977 12.4659C16.4977 11.9936 16.3046 11.5406 15.9608 11.2067C15.6171 10.8727 15.1508 10.6851 14.6646 10.6851C14.1785 10.6851 13.7122 10.8727 13.3685 11.2067C13.0247 11.5406 12.8316 11.9936 12.8316 12.4659C12.8316 12.9382 13.0247 13.3912 13.3685 13.7251C13.7122 14.0591 14.1785 14.2467 14.6646 14.2467C15.1508 14.2467 15.6171 14.0591 15.9608 13.7251C16.3046 13.3912 16.4977 12.9382 16.4977 12.4659V12.4659ZM21.997 14.2467C22.4831 14.2467 22.9494 14.0591 23.2931 13.7251C23.6369 13.3912 23.83 12.9382 23.83 12.4659C23.83 11.9936 23.6369 11.5406 23.2931 11.2067C22.9494 10.8727 22.4831 10.6851 21.997 10.6851C21.5108 10.6851 21.0445 10.8727 20.7008 11.2067C20.357 11.5406 20.1639 11.9936 20.1639 12.4659C20.1639 12.9382 20.357 13.3912 20.7008 13.7251C21.0445 14.0591 21.5108 14.2467 21.997 14.2467V14.2467Z" fill="#7B8794"/>
</svg>
