<svg width="26" height="30" viewBox="0 0 26 30" fill="none" xmlns="http://www.w3.org/2000/svg">
<path d="M13 0C13.2463 0 13.4825 0.0978315 13.6566 0.271972C13.8307 0.446113 13.9286 0.682299 13.9286 0.928571V3.71429H15.7857C16.5245 3.71429 17.2331 4.00778 17.7555 4.5302C18.2779 5.05262 18.5714 5.76118 18.5714 6.5V13H23.2143C23.9531 13 24.6617 13.2935 25.1841 13.8159C25.7065 14.3383 26 15.0469 26 15.7857V26.9286C26 27.6674 25.7065 28.3759 25.1841 28.8984C24.6617 29.4208 23.9531 29.7143 23.2143 29.7143H2.78571C2.0469 29.7143 1.33834 29.4208 0.815917 28.8984C0.293494 28.3759 0 27.6674 0 26.9286V15.444C2.74244e-05 14.9631 0.124564 14.4903 0.361488 14.0718C0.598413 13.6533 0.939654 13.3032 1.352 13.0557L6.92343 9.71286C7.08351 9.61605 7.2527 9.53519 7.42857 9.47143V6.5C7.42857 5.76118 7.72206 5.05262 8.24449 4.5302C8.76691 4.00778 9.47547 3.71429 10.2143 3.71429H12.0714V0.928571C12.0714 0.682299 12.1693 0.446113 12.3434 0.271972C12.5175 0.0978315 12.7537 0 13 0ZM9.28571 9.47328C10.3313 9.84843 11.1429 10.8327 11.1429 12.1011V27.8571H14.8571V15.7857C14.8568 15.2094 15.0353 14.6472 15.3679 14.1765C15.7005 13.7059 16.1709 13.35 16.7143 13.1579V6.50186C16.7143 6.25558 16.6165 6.0194 16.4423 5.84526C16.2682 5.67112 16.032 5.57329 15.7857 5.57329H10.2143C9.96801 5.57329 9.73183 5.67112 9.55769 5.84526C9.38354 6.0194 9.28571 6.25558 9.28571 6.50186V9.47328ZM17.6429 14.8571C17.3966 14.8571 17.1604 14.955 16.9863 15.1291C16.8121 15.3033 16.7143 15.5394 16.7143 15.7857V27.8571H23.2143C23.4606 27.8571 23.6967 27.7593 23.8709 27.5852C24.045 27.411 24.1429 27.1748 24.1429 26.9286V15.7857C24.1429 15.5394 24.045 15.3033 23.8709 15.1291C23.6967 14.955 23.4606 14.8571 23.2143 14.8571H17.6429ZM7.87986 11.3044L2.30843 14.6473C2.1705 14.7299 2.0564 14.847 1.9773 14.987C1.89819 15.1269 1.85679 15.2851 1.85714 15.4459V26.9286C1.85714 27.1748 1.95497 27.411 2.12912 27.5852C2.30326 27.7593 2.53944 27.8571 2.78571 27.8571H9.28571V12.1011C9.28575 11.9368 9.24219 11.7755 9.15949 11.6335C9.07679 11.4916 8.9579 11.3741 8.81497 11.2931C8.67203 11.2121 8.51016 11.1705 8.34588 11.1724C8.1816 11.1744 8.02079 11.22 7.87986 11.3044Z" fill="#FA5805"/>
</svg>
