<svg width="26" height="26" viewBox="0 0 26 26" fill="none" xmlns="http://www.w3.org/2000/svg">
<path d="M0.942251 14.8582C0.696055 14.8668 0.45478 14.7878 0.261309 14.6353C0.178064 14.5648 0.111467 14.4767 0.0663005 14.3773C0.0211339 14.278 -0.00148225 14.1699 7.53235e-05 14.0608C7.53235e-05 13.9246 0.0384556 13.7575 0.115216 13.5557L4.97714 0.879034C5.2 0.293424 5.61227 0 6.21274 0C6.77854 0 7.17225 0.28971 7.39634 0.869129L12.2669 13.5545C12.3437 13.7563 12.3821 13.9246 12.3821 14.0596C12.3821 14.2874 12.2917 14.4805 12.1097 14.6353C11.9208 14.7882 11.6827 14.8669 11.4399 14.8569C10.993 14.8569 10.6847 14.6242 10.5175 14.1599L9.17669 10.5447H3.19679L1.86586 14.1599C1.69872 14.6242 1.39043 14.8569 0.943489 14.8569L0.942251 14.8582ZM3.7403 9.00081H8.64185L6.22141 2.35482H6.1595L3.73906 9.00081H3.7403Z" fill="#545762"/>
<path d="M13.3589 15.7601L20.146 22.5447L25.2915 17.3993C25.5159 17.1753 25.6939 16.9092 25.8155 16.6164C25.9371 16.3235 25.9998 16.0096 26 15.6925C26.0002 15.3754 25.938 15.0614 25.8168 14.7684C25.6957 14.4753 25.518 14.209 25.2939 13.9847L21.9214 10.6122C21.6974 10.3874 21.4311 10.209 21.138 10.0874C20.8449 9.96576 20.5306 9.90321 20.2132 9.90332C19.8959 9.90344 19.5816 9.96622 19.2886 10.0881C18.9955 10.2099 18.7295 10.3885 18.5056 10.6134L13.3601 15.7601H13.3589Z" fill="#545762"/>
<path d="M15.7833 11.5859L13.6192 13.7501V0.936C13.6092 0.688666 13.6958 0.447133 13.8606 0.262486C13.9418 0.177225 14.0399 0.109924 14.1486 0.0649276C14.2574 0.0199313 14.3744 -0.00176045 14.492 0.00125247C14.7471 0.00125247 14.9551 0.0879178 15.116 0.261248C15.2832 0.437055 15.3674 0.661147 15.3674 0.936V5.97868H15.407C15.7413 5.37574 16.2006 4.9028 16.7837 4.56233C17.3854 4.21751 18.0687 4.0405 18.7622 4.04976C20.0819 4.04976 21.1467 4.54128 21.9564 5.52555C22.7673 6.51106 23.1722 7.8197 23.1722 9.45396C23.1722 9.67186 23.1648 9.88358 23.1511 10.0903L22.797 9.73625C22.394 9.33242 21.9016 9.02917 21.3596 8.85102C21.2816 7.94475 21.0216 7.20438 20.5797 6.63115C20.0448 5.93411 19.3143 5.58621 18.3907 5.58621C17.4993 5.58621 16.7701 5.94526 16.2006 6.66086C15.6385 7.37152 15.3574 8.30255 15.3574 9.45396C15.3574 10.2785 15.4998 10.9892 15.7846 11.5859H15.7833Z" fill="#545762"/>
<path d="M18.8325 23.8599L12.0466 17.0752L10.6142 18.5076C10.3896 18.7317 10.2114 18.9978 10.0897 19.2908C9.96801 19.5838 9.90526 19.8978 9.90503 20.2151C9.9048 20.5323 9.96709 20.8465 10.0883 21.1396C10.2096 21.4328 10.3874 21.6991 10.6117 21.9235L13.9842 25.2948C14.3846 25.6969 14.9145 25.9443 15.4798 25.9931L15.4761 26.0005H22.2855C22.5318 26.0005 22.768 25.9027 22.9421 25.7285C23.1163 25.5544 23.2141 25.3182 23.2141 25.0719C23.2141 24.8257 23.1163 24.5895 22.9421 24.4153C22.768 24.2412 22.5318 24.1434 22.2855 24.1434H18.5465L18.8313 23.8586L18.8325 23.8599Z" fill="#545762"/>
</svg>
