<svg width="22" height="22" viewBox="0 0 22 22" fill="none" xmlns="http://www.w3.org/2000/svg">
<path d="M4.51318 7.14806C4.51318 6.58373 4.73736 6.04252 5.1364 5.64348C5.53544 5.24444 6.07665 5.02026 6.64098 5.02026H19.4077C19.9721 5.02026 20.5133 5.24444 20.9123 5.64348C21.3114 6.04252 21.5355 6.58373 21.5355 7.14806V15.6592C21.5355 16.2236 21.3114 16.7648 20.9123 17.1638C20.5133 17.5629 19.9721 17.787 19.4077 17.787H16.748C16.5828 17.787 16.4199 17.8255 16.2722 17.8994C16.1245 17.9732 15.996 18.0805 15.8969 18.2126L13.8755 20.9074C13.7764 21.0396 13.6479 21.1468 13.5002 21.2207C13.3524 21.2945 13.1895 21.333 13.0244 21.333C12.8592 21.333 12.6963 21.2945 12.5486 21.2207C12.4008 21.1468 12.2723 21.0396 12.1732 20.9074L10.1518 18.2126C10.0527 18.0805 9.92424 17.9732 9.77651 17.8994C9.62878 17.8255 9.46589 17.787 9.30072 17.787H6.64098C6.07665 17.787 5.53544 17.5629 5.1364 17.1638C4.73736 16.7648 4.51318 16.2236 4.51318 15.6592V7.14806ZM8.23682 8.21196C8.09574 8.21196 7.96044 8.268 7.86068 8.36776C7.76092 8.46752 7.70488 8.60282 7.70488 8.7439C7.70488 8.88499 7.76092 9.02029 7.86068 9.12005C7.96044 9.21981 8.09574 9.27585 8.23682 9.27585H17.8119C17.953 9.27585 18.0883 9.21981 18.188 9.12005C18.2878 9.02029 18.3438 8.88499 18.3438 8.7439C18.3438 8.60282 18.2878 8.46752 18.188 8.36776C18.0883 8.268 17.953 8.21196 17.8119 8.21196H8.23682ZM8.23682 10.8717C8.09574 10.8717 7.96044 10.9277 7.86068 11.0275C7.76092 11.1273 7.70488 11.2626 7.70488 11.4036C7.70488 11.5447 7.76092 11.68 7.86068 11.7798C7.96044 11.8796 8.09574 11.9356 8.23682 11.9356H17.8119C17.953 11.9356 18.0883 11.8796 18.188 11.7798C18.2878 11.68 18.3438 11.5447 18.3438 11.4036C18.3438 11.2626 18.2878 11.1273 18.188 11.0275C18.0883 10.9277 17.953 10.8717 17.8119 10.8717H8.23682ZM8.23682 13.5314C8.09574 13.5314 7.96044 13.5875 7.86068 13.6872C7.76092 13.787 7.70488 13.9223 7.70488 14.0634C7.70488 14.2045 7.76092 14.3398 7.86068 14.4395C7.96044 14.5393 8.09574 14.5953 8.23682 14.5953H13.5563C13.6974 14.5953 13.8327 14.5393 13.9325 14.4395C14.0322 14.3398 14.0883 14.2045 14.0883 14.0634C14.0883 13.9223 14.0322 13.787 13.9325 13.6872C13.8327 13.5875 13.6974 13.5314 13.5563 13.5314H8.23682Z" fill="#6FA4E9"/>
<circle cx="4.57142" cy="4.57142" r="4.57142" fill="white"/>
<path d="M4.57147 7.31432V4.57147M4.57147 4.57147V1.82861M4.57147 4.57147H7.31432M4.57147 4.57147H1.82861" stroke="#6FA4E9" stroke-linecap="round"/>
</svg>
