<svg width="64" height="64" viewBox="0 0 64 64" fill="none" xmlns="http://www.w3.org/2000/svg">
<rect x="0.5" y="0.5" width="63" height="63" rx="24.5" stroke="#74B9FF"/>
<path d="M15.36 21.0737C15.36 20.011 15.7822 18.9918 16.5336 18.2403C17.2851 17.4888 18.3043 17.0667 19.367 17.0667H43.4093C44.472 17.0667 45.4912 17.4888 46.2427 18.2403C46.9942 18.9918 47.4163 20.011 47.4163 21.0737V37.1019C47.4163 38.1646 46.9942 39.1838 46.2427 39.9353C45.4912 40.6867 44.472 41.1089 43.4093 41.1089H38.4005C38.0894 41.1089 37.7827 41.1813 37.5045 41.3204C37.2263 41.4595 36.9843 41.6615 36.7977 41.9103L32.991 46.9852C32.8044 47.2341 32.5624 47.436 32.2842 47.5751C32.006 47.7142 31.6992 47.7866 31.3882 47.7866C31.0771 47.7866 30.7704 47.7142 30.4922 47.5751C30.214 47.436 29.972 47.2341 29.7853 46.9852L25.9787 41.9103C25.792 41.6615 25.55 41.4595 25.2718 41.3204C24.9936 41.1813 24.6869 41.1089 24.3758 41.1089H19.367C18.3043 41.1089 17.2851 40.6867 16.5336 39.9353C15.7822 39.1838 15.36 38.1646 15.36 37.1019V21.0737ZM22.3723 23.0772C22.1066 23.0772 21.8518 23.1828 21.664 23.3706C21.4761 23.5585 21.3706 23.8133 21.3706 24.079C21.3706 24.3447 21.4761 24.5995 21.664 24.7873C21.8518 24.9752 22.1066 25.0807 22.3723 25.0807H40.404C40.6697 25.0807 40.9245 24.9752 41.1124 24.7873C41.3002 24.5995 41.4058 24.3447 41.4058 24.079C41.4058 23.8133 41.3002 23.5585 41.1124 23.3706C40.9245 23.1828 40.6697 23.0772 40.404 23.0772H22.3723ZM22.3723 28.086C22.1066 28.086 21.8518 28.1916 21.664 28.3794C21.4761 28.5673 21.3706 28.8221 21.3706 29.0878C21.3706 29.3535 21.4761 29.6083 21.664 29.7961C21.8518 29.984 22.1066 30.0895 22.3723 30.0895H40.404C40.6697 30.0895 40.9245 29.984 41.1124 29.7961C41.3002 29.6083 41.4058 29.3535 41.4058 29.0878C41.4058 28.8221 41.3002 28.5673 41.1124 28.3794C40.9245 28.1916 40.6697 28.086 40.404 28.086H22.3723ZM22.3723 33.0948C22.1066 33.0948 21.8518 33.2004 21.664 33.3882C21.4761 33.5761 21.3706 33.8309 21.3706 34.0966C21.3706 34.3623 21.4761 34.6171 21.664 34.8049C21.8518 34.9928 22.1066 35.0983 22.3723 35.0983H32.3899C32.6556 35.0983 32.9104 34.9928 33.0983 34.8049C33.2861 34.6171 33.3917 34.3623 33.3917 34.0966C33.3917 33.8309 33.2861 33.5761 33.0983 33.3882C32.9104 33.2004 32.6556 33.0948 32.3899 33.0948H22.3723Z" fill="#74B9FF"/>
</svg>
