<svg width="25" height="21" viewBox="0 0 25 21" fill="none" xmlns="http://www.w3.org/2000/svg">
<path d="M23.3239 1.35569C22.4562 0.487316 21.2788 -0.000400721 20.0512 1.28169e-05C18.8241 -0.00288195 17.6467 0.484679 16.7808 1.35419L10.8065 7.32858C9.62447 8.51248 9.17257 10.2417 9.62436 11.8526C9.75664 12.3215 10.244 12.5945 10.713 12.4622C11.182 12.3299 11.4549 11.8425 11.3226 11.3735C11.0441 10.3774 11.3235 9.30844 12.054 8.57606L18.0283 2.60256C19.1452 1.48534 20.9564 1.48513 22.0737 2.60215C23.1909 3.71911 23.1911 5.53031 22.0741 6.64753L16.0998 12.6219C15.7083 13.0139 15.2111 13.2834 14.6689 13.3973C14.1918 13.4966 13.8857 13.9638 13.985 14.4409C14.0704 14.851 14.4325 15.1445 14.8514 15.1433C14.9131 15.1433 14.9746 15.1368 15.0349 15.1239C15.9112 14.9391 16.7146 14.5032 17.3472 13.8693L23.3216 7.8959C25.1283 6.0905 25.1293 3.16239 23.3239 1.35569Z" fill="#5B5B5B"/>
<path d="M15.0271 8.46311C14.8948 7.99416 14.4074 7.72122 13.9384 7.8535C13.4695 7.98578 13.1966 8.47319 13.3288 8.94214C13.6073 9.9383 13.3279 11.0072 12.5975 11.7396L6.62311 17.714C5.50614 18.8312 3.69495 18.8314 2.57772 17.7144C1.4605 16.5974 1.46029 14.7863 2.57726 13.669L8.55164 7.69377C8.94254 7.30184 9.4392 7.03237 9.98083 6.91828C10.4586 6.82271 10.7685 6.35794 10.6729 5.8802C10.5773 5.40246 10.1125 5.09257 9.6348 5.18815C9.62896 5.18933 9.62317 5.19052 9.61738 5.19182C8.74099 5.37682 7.93728 5.81269 7.3042 6.44633L1.32982 12.4207C-0.462658 14.2409 -0.440223 17.1694 1.37991 18.9619C3.1802 20.7348 6.07 20.735 7.87055 18.9623L13.8449 12.9871C15.027 11.8031 15.4789 10.0739 15.0271 8.46311Z" fill="#5B5B5B"/>
</svg>
