<svg width="34" height="43" viewBox="0 0 34 43" fill="none" xmlns="http://www.w3.org/2000/svg">
<circle cx="16.9163" cy="30.4494" r="10.7873" fill="#448AFF" stroke="#FDFDFD" stroke-width="2"/>
<rect opacity="0.01" width="33.8326" height="33.8326" fill="white"/>
<path d="M16.9347 32.7567C18.8827 32.7567 20.4619 31.1775 20.4619 29.2294C20.4619 27.2815 18.8827 25.7023 16.9347 25.7023C14.9867 25.7023 13.4075 27.2815 13.4075 29.2294C13.4075 31.1775 14.9867 32.7567 16.9347 32.7567Z" fill="#3E4958"/>
<path fill-rule="evenodd" clip-rule="evenodd" d="M16.9343 26.57C15.4654 26.57 14.2746 27.7608 14.2746 29.2297C14.2746 30.6986 15.4654 31.8894 16.9343 31.8894C18.4032 31.8894 19.594 30.6986 19.594 29.2297C19.594 27.7608 18.4032 26.57 16.9343 26.57ZM12.5396 29.2296C12.5396 26.8025 14.5072 24.8349 16.9343 24.8349C19.3615 24.8349 21.3291 26.8025 21.3291 29.2296C21.3291 31.6568 19.3615 33.6244 16.9343 33.6244C14.5072 33.6244 12.5396 31.6568 12.5396 29.2296Z" fill="#FDFDFD"/>
<path fill-rule="evenodd" clip-rule="evenodd" d="M16.0793 18.5668H17.6525V28.6067H16.0793V18.5668Z" fill="#3E4958"/>
<path d="M16.935 19.0007C21.9998 19.0007 26.1058 14.8949 26.1058 9.82998C26.1058 4.76512 21.9998 0.659241 16.935 0.659241C11.8702 0.659241 7.76428 4.76512 7.76428 9.82998C7.76428 14.8949 11.8702 19.0007 16.935 19.0007Z" fill="#1152FD"/>
<path fill-rule="evenodd" clip-rule="evenodd" d="M16.9349 1.09285C12.1096 1.09285 8.19788 5.00454 8.19788 9.82985C8.19788 14.6551 12.1096 18.5668 16.9349 18.5668C21.7602 18.5668 25.6718 14.6551 25.6718 9.82985C25.6718 5.00454 21.7602 1.09285 16.9349 1.09285ZM7.33038 9.8299C7.33038 4.52548 11.6305 0.225403 16.9349 0.225403C22.2393 0.225403 26.5394 4.52548 26.5394 9.8299C26.5394 15.1344 22.2393 19.4344 16.9349 19.4344C11.6305 19.4344 7.33038 15.1344 7.33038 9.8299Z" fill="#1152FD"/>
<path d="M16.9352 12.6518C18.4935 12.6518 19.757 11.3884 19.757 9.83C19.757 8.27158 18.4935 7.00824 16.9352 7.00824C15.3767 7.00824 14.1134 8.27158 14.1134 9.83C14.1134 11.3884 15.3767 12.6518 16.9352 12.6518Z" fill="#F9FFFF"/>
</svg>
