<svg width="25" height="27" viewBox="0 0 25 27" fill="none" xmlns="http://www.w3.org/2000/svg">
<path d="M24.561 5.81707C24.5609 6.13369 24.4447 6.43929 24.2343 6.6759C24.0239 6.9125 23.734 7.06366 23.4195 7.10071L23.2683 7.10976H22.176L20.5847 23.2941C20.498 24.1723 20.0879 24.9869 19.4339 25.5794C18.78 26.172 17.9291 26.5001 17.0466 26.5H7.51437C6.63192 26.5001 5.78097 26.172 5.12704 25.5794C4.47311 24.9869 4.06293 24.1723 3.97629 23.2941L2.385 7.10976H1.29268C0.949842 7.10976 0.621043 6.97356 0.378618 6.73114C0.136193 6.48871 0 6.15991 0 5.81707C0 5.47423 0.136193 5.14543 0.378618 4.90301C0.621043 4.66058 0.949842 4.52439 1.29268 4.52439H7.7561C7.7561 3.93024 7.87312 3.34191 8.1005 2.79298C8.32787 2.24406 8.66113 1.74529 9.08126 1.32516C9.50139 0.905035 10.0002 0.571771 10.5491 0.344399C11.098 0.117027 11.6863 0 12.2805 0C12.8746 0 13.463 0.117027 14.0119 0.344399C14.5608 0.571771 15.0596 0.905035 15.4797 1.32516C15.8998 1.74529 16.2331 2.24406 16.4605 2.79298C16.6879 3.34191 16.8049 3.93024 16.8049 4.52439H23.2683C23.6111 4.52439 23.9399 4.66058 24.1824 4.90301C24.4248 5.14543 24.561 5.47423 24.561 5.81707ZM15.189 10.0183C14.9547 10.0183 14.7284 10.1031 14.5518 10.2571C14.3753 10.4111 14.2604 10.6238 14.2286 10.856L14.2195 10.9878V20.0366L14.2286 20.1684C14.2605 20.4005 14.3754 20.6131 14.5519 20.7671C14.7285 20.921 14.9548 21.0058 15.189 21.0058C15.4233 21.0058 15.6496 20.921 15.8261 20.7671C16.0027 20.6131 16.1176 20.4005 16.1495 20.1684L16.1585 20.0366V10.9878L16.1495 10.856C16.1176 10.6238 16.0028 10.4111 15.8262 10.2571C15.6497 10.1031 15.4233 10.0183 15.189 10.0183ZM9.37195 10.0183C9.13767 10.0183 8.91131 10.1031 8.73475 10.2571C8.55818 10.4111 8.44335 10.6238 8.41149 10.856L8.40244 10.9878V20.0366L8.41149 20.1684C8.44342 20.4005 8.55828 20.6131 8.73484 20.7671C8.9114 20.921 9.13771 21.0058 9.37195 21.0058C9.60619 21.0058 9.83251 20.921 10.0091 20.7671C10.1856 20.6131 10.3005 20.4005 10.3324 20.1684L10.3415 20.0366V10.9878L10.3324 10.856C10.3006 10.6238 10.1857 10.4111 10.0092 10.2571C9.83259 10.1031 9.60623 10.0183 9.37195 10.0183ZM12.2805 2.58537C11.7662 2.58537 11.273 2.78966 10.9094 3.15329C10.5458 3.51693 10.3415 4.01013 10.3415 4.52439H14.2195C14.2195 4.01013 14.0152 3.51693 13.6516 3.15329C13.2879 2.78966 12.7948 2.58537 12.2805 2.58537Z" fill="#545762"/>
</svg>
