<svg width="16" height="16" viewBox="0 0 16 16" fill="none" xmlns="http://www.w3.org/2000/svg">
<path d="M15.5262 6.868L9.13657 0.468C8.51281 -0.156 7.49719 -0.156 6.87342 0.468L0.467825 6.868C-0.155942 7.492 -0.155942 8.508 0.467825 9.132L6.87342 15.532C7.49719 16.156 8.51281 16.156 9.13657 15.532L15.5262 9.132C16.1579 8.5 16.1579 7.492 15.5262 6.868ZM11.7196 7.476L9.88829 9.308C9.63239 9.564 9.20855 9.38 9.20855 9.028V7.996H6.4016V9.596C6.4016 10.036 6.04173 10.396 5.6019 10.396C5.16206 10.396 4.8022 10.036 4.8022 9.596V7.196C4.8022 6.756 5.16206 6.396 5.6019 6.396H9.20055V5.364C9.20055 5.004 9.63239 4.828 9.8803 5.084L11.7116 6.916C11.8715 7.068 11.8715 7.324 11.7196 7.476Z" fill="#6FA4E9"/>
</svg>
