<svg width="13" height="13" viewBox="0 0 13 13" fill="none" xmlns="http://www.w3.org/2000/svg">
<path d="M2.925 3.97128C2.3465 3.97128 1.8785 3.50331 1.8785 2.92484C1.8785 2.64731 1.98876 2.38114 2.18501 2.18489C2.38127 1.98865 2.64745 1.8784 2.925 1.8784C3.5035 1.8784 3.9715 2.34637 3.9715 2.92484C3.9715 3.20238 3.86124 3.46854 3.66499 3.66479C3.46873 3.86103 3.20255 3.97128 2.925 3.97128ZM2.925 0C1.3 0 0 1.29993 0 2.92484C0 5.11522 2.925 8.35855 2.925 8.35855C2.925 8.35855 5.85 5.11522 5.85 2.92484C5.85 1.29993 4.55 0 2.925 0ZM10.075 3.97128C9.79745 3.97128 9.53127 3.86103 9.33501 3.66479C9.13876 3.46854 9.0285 3.20238 9.0285 2.92484C9.0285 2.78742 9.05557 2.65135 9.10816 2.52438C9.16075 2.39742 9.23784 2.28207 9.33501 2.18489C9.43219 2.08772 9.54755 2.01064 9.67452 1.95805C9.80149 1.90546 9.93757 1.8784 10.075 1.8784C10.2124 1.8784 10.3485 1.90546 10.4755 1.95805C10.6024 2.01064 10.7178 2.08772 10.815 2.18489C10.9122 2.28207 10.9892 2.39742 11.0418 2.52438C11.0944 2.65135 11.1215 2.78742 11.1215 2.92484C11.1215 3.20238 11.0112 3.46854 10.815 3.66479C10.6187 3.86103 10.3525 3.97128 10.075 3.97128ZM10.075 0C8.45 0 7.15 1.29993 7.15 2.92484C7.15 5.11522 10.075 8.35855 10.075 8.35855C10.075 8.35855 13 5.11522 13 2.92484C13 1.29993 11.7 0 10.075 0ZM10.075 9.09951C9.2495 9.09951 8.515 9.61948 8.242 10.3994H4.758C4.58576 9.91298 4.22771 9.51464 3.76229 9.29168C3.29686 9.06873 2.76204 9.03936 2.275 9.21C2.03293 9.29482 1.80995 9.42651 1.61881 9.59755C1.42766 9.76859 1.27211 9.97562 1.16103 10.2068C1.04996 10.438 0.985542 10.6888 0.971466 10.9449C0.95739 11.201 0.993931 11.4574 1.079 11.6994C1.25357 12.1871 1.61404 12.5859 2.0817 12.8088C2.54936 13.0316 3.0862 13.0604 3.575 12.8888C4.1275 12.6938 4.55 12.2518 4.758 11.6994H8.2485C8.606 12.7133 9.724 13.2463 10.725 12.8888C10.9678 12.8049 11.1916 12.6738 11.3836 12.503C11.5756 12.3323 11.732 12.1254 11.8437 11.894C11.9554 11.6627 12.0204 11.4116 12.0347 11.1551C12.0491 10.8986 12.0127 10.6418 11.9275 10.3994C11.648 9.61948 10.907 9.09951 10.075 9.09951ZM10.075 12.0243C9.81641 12.0243 9.56842 11.9216 9.38557 11.7388C9.20272 11.556 9.1 11.308 9.1 11.0494C9.1 10.7908 9.20272 10.5428 9.38557 10.36C9.56842 10.1772 9.81641 10.0745 10.075 10.0745C10.3336 10.0745 10.5816 10.1772 10.7644 10.36C10.9473 10.5428 11.05 10.7908 11.05 11.0494C11.05 11.308 10.9473 11.556 10.7644 11.7388C10.5816 11.9216 10.3336 12.0243 10.075 12.0243Z" fill="#6FA4E9"/>
</svg>
