<svg width="19" height="18" viewBox="0 0 19 18" fill="none" xmlns="http://www.w3.org/2000/svg">
<path d="M4.1324 5.43009C3.31819 5.43009 2.65951 4.79021 2.65951 3.99925C2.65951 3.61976 2.81469 3.25582 3.09091 2.98749C3.36713 2.71915 3.74177 2.5684 4.1324 2.5684C4.94661 2.5684 5.60529 3.20828 5.60529 3.99925C5.60529 4.37873 5.45011 4.74267 5.17389 5.011C4.89767 5.27934 4.52304 5.43009 4.1324 5.43009ZM4.1324 0C1.8453 0 0.015625 1.77744 0.015625 3.99925C0.015625 6.99424 4.1324 11.429 4.1324 11.429C4.1324 11.429 8.24918 6.99424 8.24918 3.99925C8.24918 1.77744 6.4195 0 4.1324 0ZM14.1956 5.43009C13.805 5.43009 13.4304 5.27934 13.1541 5.011C12.8779 4.74267 12.7227 4.37873 12.7227 3.99925C12.7227 3.81134 12.7608 3.62528 12.8349 3.45169C12.9089 3.27809 13.0174 3.12035 13.1541 2.98749C13.2909 2.85462 13.4533 2.74923 13.632 2.67732C13.8107 2.60541 14.0022 2.5684 14.1956 2.5684C14.3891 2.5684 14.5806 2.60541 14.7593 2.67732C14.938 2.74923 15.1004 2.85462 15.2371 2.98749C15.3739 3.12035 15.4824 3.27809 15.5564 3.45169C15.6304 3.62528 15.6685 3.81134 15.6685 3.99925C15.6685 4.37873 15.5133 4.74267 15.2371 5.011C14.9609 5.27934 14.5863 5.43009 14.1956 5.43009ZM14.1956 0C11.9085 0 10.0789 1.77744 10.0789 3.99925C10.0789 6.99424 14.1956 11.429 14.1956 11.429C14.1956 11.429 18.3124 6.99424 18.3124 3.99925C18.3124 1.77744 16.4827 0 14.1956 0ZM14.1956 12.4421C13.0338 12.4421 12 13.1531 11.6158 14.2195H6.71225C6.46983 13.5544 5.96589 13.0097 5.31083 12.7049C4.65578 12.4 3.90304 12.3599 3.21756 12.5932C2.87686 12.7092 2.56303 12.8892 2.294 13.1231C2.02498 13.357 1.80605 13.64 1.64972 13.9562C1.49338 14.2723 1.40272 14.6152 1.38291 14.9654C1.3631 15.3156 1.41453 15.6661 1.53426 15.997C1.77995 16.6639 2.2873 17.2092 2.9455 17.5139C3.6037 17.8187 4.35929 17.858 5.04724 17.6233C5.82485 17.3567 6.4195 16.7524 6.71225 15.997H11.6249C12.1281 17.3834 13.7016 18.1121 15.1105 17.6233C15.4522 17.5086 15.7672 17.3293 16.0374 17.0959C16.3076 16.8625 16.5277 16.5795 16.685 16.2632C16.8422 15.9469 16.9336 15.6035 16.9539 15.2528C16.9741 14.9021 16.9228 14.5509 16.8029 14.2195C16.4095 13.1531 15.3666 12.4421 14.1956 12.4421ZM14.1956 16.4413C13.8317 16.4413 13.4826 16.3009 13.2253 16.0509C12.968 15.8009 12.8234 15.4618 12.8234 15.1083C12.8234 14.7547 12.968 14.4156 13.2253 14.1656C13.4826 13.9156 13.8317 13.7752 14.1956 13.7752C14.5596 13.7752 14.9086 13.9156 15.166 14.1656C15.4233 14.4156 15.5679 14.7547 15.5679 15.1083C15.5679 15.4618 15.4233 15.8009 15.166 16.0509C14.9086 16.3009 14.5596 16.4413 14.1956 16.4413Z" fill="#E3E6E9"/>
</svg>
