<svg width="11" height="11" viewBox="0 0 11 11" fill="none" xmlns="http://www.w3.org/2000/svg">
<path d="M2.475 3.36032C1.9855 3.36032 1.5895 2.96434 1.5895 2.47487C1.5895 2.24003 1.68279 2.01481 1.84886 1.84876C2.01492 1.6827 2.24015 1.58941 2.475 1.58941C2.9645 1.58941 3.3605 1.98539 3.3605 2.47487C3.3605 2.7097 3.26721 2.93492 3.10114 3.10097C2.93508 3.26703 2.70985 3.36032 2.475 3.36032ZM2.475 0C1.1 0 0 1.09994 0 2.47487C0 4.32826 2.475 7.07262 2.475 7.07262C2.475 7.07262 4.95 4.32826 4.95 2.47487C4.95 1.09994 3.85 0 2.475 0ZM8.525 3.36032C8.29015 3.36032 8.06492 3.26703 7.89886 3.10097C7.73279 2.93492 7.6395 2.7097 7.6395 2.47487C7.6395 2.35859 7.6624 2.24345 7.7069 2.13602C7.75141 2.02859 7.81663 1.93098 7.89886 1.84876C7.98108 1.76653 8.0787 1.70131 8.18613 1.65681C8.29357 1.61232 8.40871 1.58941 8.525 1.58941C8.64129 1.58941 8.75643 1.61232 8.86387 1.65681C8.9713 1.70131 9.06892 1.76653 9.15114 1.84876C9.23337 1.93098 9.29859 2.02859 9.3431 2.13602C9.3876 2.24345 9.4105 2.35859 9.4105 2.47487C9.4105 2.7097 9.31721 2.93492 9.15114 3.10097C8.98508 3.26703 8.75985 3.36032 8.525 3.36032ZM8.525 0C7.15 0 6.05 1.09994 6.05 2.47487C6.05 4.32826 8.525 7.07262 8.525 7.07262C8.525 7.07262 11 4.32826 11 2.47487C11 1.09994 9.9 0 8.525 0ZM8.525 7.69958C7.8265 7.69958 7.205 8.13956 6.974 8.79952H4.026C3.88026 8.38791 3.57729 8.05085 3.18347 7.86219C2.78966 7.67354 2.33711 7.64869 1.925 7.79308C1.72017 7.86484 1.53149 7.97628 1.36976 8.121C1.20802 8.26573 1.0764 8.44091 0.982413 8.63654C0.888427 8.83216 0.833921 9.04439 0.82201 9.26109C0.8101 9.47779 0.841019 9.69472 0.913 9.89946C1.06071 10.3122 1.36573 10.6496 1.76144 10.8382C2.15715 11.0268 2.6114 11.0511 3.025 10.9059C3.4925 10.7409 3.85 10.3669 4.026 9.89946H6.9795C7.282 10.7574 8.228 11.2084 9.075 10.9059C9.28045 10.8349 9.46984 10.7239 9.63229 10.5795C9.79474 10.4351 9.92704 10.2599 10.0216 10.0642C10.1161 9.86845 10.1711 9.65597 10.1832 9.43893C10.1954 9.2219 10.1646 9.0046 10.0925 8.79952C9.856 8.13956 9.229 7.69958 8.525 7.69958ZM8.525 10.1744C8.3062 10.1744 8.09636 10.0875 7.94164 9.93282C7.78692 9.77811 7.7 9.56828 7.7 9.34949C7.7 9.1307 7.78692 8.92087 7.94164 8.76616C8.09636 8.61145 8.3062 8.52454 8.525 8.52454C8.7438 8.52454 8.95365 8.61145 9.10836 8.76616C9.26308 8.92087 9.35 9.1307 9.35 9.34949C9.35 9.56828 9.26308 9.77811 9.10836 9.93282C8.95365 10.0875 8.7438 10.1744 8.525 10.1744Z" fill="#7B8794"/>
</svg>
