<svg width="27" height="26" viewBox="0 0 27 26" fill="none" xmlns="http://www.w3.org/2000/svg">
<ellipse cx="13.5" cy="13" rx="13.5" ry="13" fill="#6FA4E9"/>
<path fill-rule="evenodd" clip-rule="evenodd" d="M6.95866 19.3335H18.042C18.252 19.3335 18.4533 19.4301 18.6018 19.602C18.7503 19.7739 18.8337 20.007 18.8337 20.2502C18.8337 20.4933 18.7503 20.7264 18.6018 20.8983C18.4533 21.0703 18.252 21.1668 18.042 21.1668H6.95866C6.7487 21.1668 6.54733 21.0703 6.39887 20.8983C6.2504 20.7264 6.16699 20.4933 6.16699 20.2502C6.16699 20.007 6.2504 19.7739 6.39887 19.602C6.54733 19.4301 6.7487 19.3335 6.95866 19.3335ZM6.16699 14.7502L14.0837 5.5835L16.4587 8.3335L8.54199 17.5002H6.16699V14.7502ZM14.8753 4.66683L16.4587 2.8335L18.8337 5.5835L17.2495 7.41775L14.8753 4.66683Z" fill="white"/>
</svg>
