<svg width="20" height="20" viewBox="0 0 20 20" fill="none" xmlns="http://www.w3.org/2000/svg">
<path d="M9.99563 0.211914C4.9131 0.211914 0.797363 4.48828 0.797363 9.75737C0.797363 15.0265 4.9131 19.3028 9.99563 19.3028C15.0874 19.3028 19.2123 15.0265 19.2123 9.75737C19.2123 4.48828 15.0874 0.211914 9.99563 0.211914ZM6.78222 5.93919C7.54644 5.93919 8.16334 6.57873 8.16334 7.371C8.16334 8.16328 7.54644 8.80282 6.78222 8.80282C6.018 8.80282 5.4011 8.16328 5.4011 7.371C5.4011 6.57873 6.018 5.93919 6.78222 5.93919ZM10.0048 15.4846C7.90553 15.4846 6.11928 13.9001 5.4011 11.6665H14.6086C13.8904 13.9001 12.1041 15.4846 10.0048 15.4846ZM13.2275 8.80282C12.4632 8.80282 11.8463 8.16328 11.8463 7.371C11.8463 6.57873 12.4632 5.93919 13.2275 5.93919C13.9917 5.93919 14.6086 6.57873 14.6086 7.371C14.6086 8.16328 13.9917 8.80282 13.2275 8.80282Z" fill="#6FA4E9"/>
</svg>
