<svg width="22" height="24" viewBox="0 0 22 24" fill="none" xmlns="http://www.w3.org/2000/svg">
<path d="M10.1351 16.5761C10.1362 16.5777 10.1373 16.5793 10.1381 16.5805L10.1351 16.5761ZM10.1351 16.5761L10.1381 16.5805L10.1382 16.5805L10.1351 16.5761ZM10.7672 17.1623L10.7638 17.1603L10.6637 17.1001L10.6631 17.1004L10.5024 17.1939L10.3267 16.9001L10.3241 16.8957L10.1245 16.7757C10.1451 16.7415 10.1679 16.7082 10.1928 16.6761L9.43104 19.3984L9.8083 18.7504L9.81169 18.7523L9.81471 18.7541L10.5653 17.4937L10.5585 17.4773C10.5608 17.4829 10.5631 17.4883 10.5654 17.4935L10.5804 17.4682L10.7638 17.1604L10.7672 17.1623ZM10.7672 17.1623C10.7964 17.1137 10.8397 17.0739 10.8923 17.0504C10.8736 17.0484 10.8551 17.0459 10.8366 17.0429L10.7672 17.1623ZM15.6001 13.6569L15.6001 13.6569L20.9034 16.1095C20.9038 16.1097 20.9043 16.1099 20.9047 16.1101C21.0804 16.1933 21.2506 16.4215 21.25 16.7451V16.7464V22.5836C21.25 23.0386 20.9413 23.25 20.7434 23.25H13.3557V19.8082L13.599 19.6665L13.2114 19.0157L11.9036 16.8199C11.9022 16.8176 11.901 16.8153 11.8997 16.8132C11.8955 16.8059 11.8915 16.7992 11.8879 16.7935L11.8803 16.7806L11.8146 16.6691L11.8809 16.5578L13.2141 14.3197L13.6021 13.6684L13.3096 13.4984C13.1767 13.0764 12.7757 12.7886 12.3328 12.7886H9.66715C9.20301 12.7886 8.78476 13.1048 8.67309 13.5602L8.43859 13.7308L8.78856 14.3186L10.099 16.5195C10.1045 16.529 10.1096 16.5374 10.1142 16.5446L10.1221 16.5579L10.186 16.6648L10.1194 16.7766L8.78655 19.0148L8.399 19.6656L8.644 19.8082V23.2497H1.25626C1.05857 23.2497 0.75 23.0385 0.75 22.5832V16.7464C0.75 16.4202 0.924573 16.1909 1.09819 16.1116C1.09841 16.1115 1.09863 16.1114 1.09885 16.1113L6.57634 13.638L6.5764 13.638L8.72558 12.6678L10.0506 12.0696L8.79519 11.3366C7.96237 10.8502 7.26065 10.0829 6.78119 9.12976L6.7807 9.12878C6.36639 8.30817 6.12207 7.36396 6.12207 6.34909C6.12207 5.78129 6.21951 5.23303 6.37132 4.68211L6.37164 4.68093C7.0103 2.34831 8.87621 0.75 11 0.75C13.1647 0.75 15.0619 2.40792 15.664 4.81021C15.7921 5.32498 15.8769 5.83064 15.8769 6.34909V6.34914C15.877 7.25747 15.6767 8.15604 15.2886 8.98478L15.2885 8.98491C14.8234 9.97864 14.1215 10.7841 13.2798 11.2982L12.0821 12.0298L13.3559 12.6189L15.6001 13.6569ZM10.8921 16.2832C10.883 16.2792 10.874 16.2747 10.8653 16.2696C10.8253 16.2466 10.7921 16.2138 10.769 16.1747L10.8365 16.2906C10.8425 16.2896 10.8486 16.2887 10.8548 16.2878C10.8671 16.2861 10.8796 16.2845 10.8921 16.2832ZM10.6611 16.2331L10.6371 16.2192L10.6292 16.2146L10.6937 16.1763L10.7482 16.1438L10.6611 16.2331ZM11.108 17.0505C11.1214 17.049 11.1346 17.0473 11.1479 17.0454L11.2028 17.121C11.1768 17.0912 11.1447 17.0668 11.108 17.0505Z" stroke="#5B5B5B" stroke-width="1.5"/>
</svg>
