<svg width="26" height="21" viewBox="0 0 26 21" fill="none" xmlns="http://www.w3.org/2000/svg">
<path d="M17.6429 17.1786V11.1429H9.22769C8.98142 11.1429 8.74523 11.045 8.57109 10.8709C8.39695 10.6968 8.29912 10.4606 8.29912 10.2143C8.29912 9.96802 8.39695 9.73184 8.57109 9.5577C8.74523 9.38356 8.98142 9.28572 9.22769 9.28572H17.6429V3.25C17.642 2.38833 17.2992 1.56222 16.69 0.952922C16.0807 0.343628 15.2545 0.000921739 14.3929 0H3.25C2.38833 0.000921739 1.56222 0.343628 0.952922 0.952922C0.343628 1.56222 0.000921739 2.38833 0 3.25V17.1786C0.000921739 18.0403 0.343628 18.8664 0.952922 19.4757C1.56222 20.085 2.38833 20.4277 3.25 20.4286H14.3929C15.2545 20.4277 16.0807 20.085 16.69 19.4757C17.2992 18.8664 17.642 18.0403 17.6429 17.1786Z" fill="#545762"/>
<path d="M22.8297 11.1424L19.7724 14.2003C19.6056 14.3758 19.514 14.6096 19.5171 14.8517C19.5202 15.0939 19.6178 15.3252 19.789 15.4965C19.9602 15.6677 20.1916 15.7653 20.4337 15.7684C20.6758 15.7715 20.9096 15.6798 21.0852 15.5131L25.728 10.8702C25.902 10.6961 25.9998 10.46 25.9998 10.2138C25.9998 9.96764 25.902 9.73154 25.728 9.55742L21.0852 4.91456C20.9096 4.74777 20.6758 4.65616 20.4337 4.65926C20.1916 4.66236 19.9602 4.75992 19.789 4.93115C19.6178 5.10238 19.5202 5.33373 19.5171 5.57586C19.514 5.818 19.6056 6.05177 19.7724 6.22733L22.8297 9.28523H17.6431V11.1424H22.8297Z" fill="#545762"/>
</svg>
