<svg width="28" height="28" viewBox="0 0 28 28" fill="none" xmlns="http://www.w3.org/2000/svg">
<path d="M13.5416 19.1839L14.6701 16.927V11.1244C16.6122 10.6199 18.0555 8.86742 18.0555 6.77072C18.0555 4.28131 16.031 2.25684 13.5416 2.25684C11.0522 2.25684 9.02771 4.28131 9.02771 6.77072C9.02771 8.86742 10.471 10.6199 12.4131 11.1244V16.927L13.5416 19.1839ZM11.2847 6.77072C11.2847 5.52602 12.2969 4.51378 13.5416 4.51378C14.7863 4.51378 15.7985 5.52602 15.7985 6.77072C15.7985 8.01543 14.7863 9.02767 13.5416 9.02767C12.2969 9.02767 11.2847 8.01543 11.2847 6.77072Z" fill="#7B8794"/>
<path d="M18.3569 11.9201L17.7554 14.0958C20.6793 14.9038 22.5695 16.4577 22.5695 18.0556C22.5695 20.1906 18.8624 22.5695 13.5417 22.5695C8.22093 22.5695 4.5139 20.1906 4.5139 18.0556C4.5139 16.4577 6.40409 14.9038 9.32909 14.0946L8.72762 11.9189C4.73621 13.0226 2.25696 15.3732 2.25696 18.0556C2.25696 21.8518 7.21434 24.8264 13.5417 24.8264C19.869 24.8264 24.8264 21.8518 24.8264 18.0556C24.8264 15.3732 22.3471 13.0226 18.3569 11.9201Z" fill="#7B8794"/>
</svg>
