<svg width="30" height="31" viewBox="0 0 30 31" fill="none" xmlns="http://www.w3.org/2000/svg">
<path d="M20.2734 19.6233C19.9499 19.6233 19.6875 19.8856 19.6875 20.2092V24.2522C19.6875 25.8676 18.3732 27.1819 16.7578 27.1819H10.4316C10.1081 27.1819 9.84586 27.444 9.84562 27.7674L9.8448 28.9324L8.44629 27.5339C8.35576 27.3261 8.14857 27.1819 7.90893 27.1819H4.10156C2.48613 27.1819 1.17188 25.8676 1.17188 24.2522V15.2288C1.17188 13.6133 2.48613 12.2991 4.10156 12.2991H10.0195C10.3431 12.2991 10.6055 12.0367 10.6055 11.7131C10.6055 11.3895 10.3431 11.1272 10.0195 11.1272H4.10156C1.83996 11.1272 0 12.9672 0 15.2288V24.2522C0 26.5138 1.83996 28.3538 4.10156 28.3538H7.60887L10.0154 30.7603C10.1275 30.8724 10.2773 30.9319 10.4298 30.9319C10.5052 30.9319 10.5813 30.9173 10.6537 30.8874C10.8727 30.7968 11.0154 30.5833 11.0156 30.3464L11.017 28.3538H16.7578C19.0194 28.3538 20.8594 26.5138 20.8594 24.2522V20.2092C20.8594 19.8856 20.597 19.6233 20.2734 19.6233Z" fill="#5B5B5B"/>
<path d="M21.4837 0.931885H20.0007C15.3048 0.931885 11.4844 4.75231 11.4844 9.44825C11.4844 14.1442 15.3048 17.9646 20.0007 17.9646H21.4836C22.2166 17.9646 22.942 17.8715 23.6452 17.6875L25.8358 19.8769C25.9479 19.9889 26.0977 20.0484 26.2501 20.0484C26.3256 20.0484 26.4018 20.0338 26.4743 20.0037C26.6932 19.913 26.8359 19.6994 26.8359 19.4625V16.0725C27.7634 15.3213 28.5339 14.3725 29.0746 13.3126C29.6887 12.1087 30 10.8086 30 9.44825C30 4.75231 26.1796 0.931885 21.4837 0.931885ZM25.8974 15.3187C25.7505 15.4294 25.6641 15.6027 25.6641 15.7867V18.0485L24.2302 16.6154C24.1187 16.5039 23.969 16.4439 23.816 16.4439C23.7585 16.4439 23.7005 16.4524 23.6439 16.4698C22.9465 16.6841 22.2197 16.7927 21.4837 16.7927H20.0007C15.9509 16.7927 12.6562 13.498 12.6562 9.44825C12.6562 5.39849 15.951 2.10376 20.0007 2.10376H21.4837C25.5335 2.10376 28.8281 5.39849 28.8281 9.44825C28.8281 11.7762 27.76 13.916 25.8974 15.3187Z" fill="#5B5B5B"/>
<path d="M23.3811 7.34323C23.2966 6.11657 22.3077 5.12774 21.081 5.04319C20.3856 4.99544 19.722 5.22999 19.214 5.70419C18.7131 6.17183 18.4258 6.83288 18.4258 7.5179C18.4258 7.84151 18.6882 8.10384 19.0117 8.10384C19.3353 8.10384 19.5977 7.84151 19.5977 7.5179C19.5977 7.15116 19.7454 6.81126 20.0137 6.56089C20.2817 6.31075 20.632 6.18694 21.0005 6.21237C21.6467 6.2569 22.1675 6.77774 22.212 7.42386C22.257 8.07642 21.8289 8.6531 21.1941 8.79513C20.6798 8.91021 20.3206 9.35716 20.3206 9.88198V11.2897C20.3206 11.6133 20.583 11.8756 20.9065 11.8756C21.2301 11.8756 21.4925 11.6133 21.4924 11.2897V9.9288C22.6731 9.64357 23.4652 8.56321 23.3811 7.34323Z" fill="#5B5B5B"/>
<path d="M21.3205 13.1932C21.2115 13.0842 21.0604 13.0215 20.9062 13.0215C20.7521 13.0215 20.601 13.0842 20.492 13.1932C20.383 13.3021 20.3203 13.4533 20.3203 13.6074C20.3203 13.7621 20.3831 13.9133 20.492 14.0223C20.601 14.1313 20.7521 14.1934 20.9062 14.1934C21.0604 14.1934 21.2115 14.1313 21.3205 14.0223C21.4295 13.9127 21.4922 13.7621 21.4922 13.6074C21.4922 13.4533 21.4294 13.3021 21.3205 13.1932Z" fill="#5B5B5B"/>
<path d="M16.1133 19.0959H3.75C3.42645 19.0959 3.16406 19.3583 3.16406 19.6819C3.16406 20.0055 3.42645 20.2678 3.75 20.2678H16.1133C16.4369 20.2678 16.6992 20.0055 16.6992 19.6819C16.6992 19.3583 16.4368 19.0959 16.1133 19.0959Z" fill="#5B5B5B"/>
<path d="M16.5275 22.5489C16.4186 22.4399 16.2674 22.3772 16.1133 22.3772C15.9592 22.3772 15.808 22.4399 15.699 22.5489C15.59 22.6579 15.5273 22.809 15.5273 22.9631C15.5273 23.1172 15.59 23.2684 15.699 23.3774C15.808 23.4864 15.9592 23.5491 16.1133 23.5491C16.2674 23.5491 16.4186 23.4864 16.5275 23.3774C16.6365 23.2684 16.6992 23.1178 16.6992 22.9631C16.6992 22.809 16.6365 22.6579 16.5275 22.5489Z" fill="#5B5B5B"/>
<path d="M13.8086 22.3772H3.75C3.42645 22.3772 3.16406 22.6395 3.16406 22.9631C3.16406 23.2867 3.42645 23.5491 3.75 23.5491H13.8086C14.1322 23.5491 14.3946 23.2867 14.3946 22.9631C14.3946 22.6395 14.1322 22.3772 13.8086 22.3772Z" fill="#5B5B5B"/>
<path d="M12.3047 15.8147H3.75C3.42645 15.8147 3.16406 16.077 3.16406 16.4006C3.16406 16.7242 3.42645 16.9866 3.75 16.9866H12.3047C12.6283 16.9866 12.8906 16.7242 12.8906 16.4006C12.8906 16.077 12.6282 15.8147 12.3047 15.8147Z" fill="#5B5B5B"/>
</svg>
