<svg width="41" height="41" viewBox="0 0 41 41" fill="none" xmlns="http://www.w3.org/2000/svg">
<path d="M41 20.627C41 9.23187 31.8173 0 20.5 0C9.17503 0 0 9.23187 0 20.627C0 30.9199 7.49403 39.4543 17.2969 41V26.5908H12.0912V20.6283H17.2969V16.0813C17.2969 10.913 20.3527 8.05871 25.0369 8.05871C27.2804 8.05871 29.6289 8.46093 29.6289 8.46093V13.5365H27.0395C24.4975 13.5365 23.7031 15.1286 23.7031 16.7594V20.627H29.388L28.4745 26.5895H23.7031V40.9987C33.4983 39.453 41 30.9186 41 20.6257V20.627Z" fill="#A5A5A5"/>
</svg>
