<svg width="24" height="22" viewBox="0 0 24 22" fill="none" xmlns="http://www.w3.org/2000/svg">
<path d="M7.57895 12.0412L7.57781 12.0412C6.86978 12.0421 6.16801 11.8996 5.51266 11.6215C4.85725 11.3433 4.26052 10.9345 3.75735 10.4175L3.75647 10.4166C2.77421 9.41031 2.16316 8.01653 2.16316 6.47059C2.16316 4.92465 2.77421 3.53087 3.75647 2.52453C4.73973 1.51717 6.09022 0.9 7.57895 0.9C9.06767 0.9 10.4182 1.51717 11.4014 2.52453C12.3837 3.53087 12.9947 4.92465 12.9947 6.47059C12.9947 8.01653 12.3837 9.41031 11.4014 10.4166C10.4182 11.424 9.06767 12.0412 7.57895 12.0412ZM19.3105 10.3529V11.2529H20.2105H22.7368C22.826 11.2529 22.9161 11.289 22.986 11.3606C23.0566 11.433 23.1 11.5356 23.1 11.6471C23.1 11.7585 23.0566 11.8612 22.986 11.9335C22.9161 12.0051 22.826 12.0412 22.7368 12.0412H20.2105H19.3105V12.9412V15.5294C19.3105 15.6409 19.2671 15.7435 19.1965 15.8158L19.8122 16.4168L19.1965 15.8158C19.1266 15.8874 19.0366 15.9235 18.9474 15.9235C18.8582 15.9235 18.7681 15.8874 18.6982 15.8158L18.0825 16.4168L18.6982 15.8158C18.6276 15.7435 18.5842 15.6409 18.5842 15.5294V12.9412V12.0412H17.6842H15.1579C15.0687 12.0412 14.9786 12.0051 14.9088 11.9335C14.8382 11.8612 14.7947 11.7585 14.7947 11.6471C14.7947 11.5356 14.8382 11.433 14.9088 11.3606C14.9786 11.289 15.0687 11.2529 15.1579 11.2529H17.6842H18.5842V10.3529V7.76471C18.5842 7.65324 18.6276 7.5506 18.6982 7.47827C18.7681 7.40668 18.8582 7.37059 18.9474 7.37059C19.0366 7.37059 19.1266 7.40668 19.1965 7.47827C19.2671 7.5506 19.3105 7.65324 19.3105 7.76471V10.3529ZM14.2579 19.3986C14.2512 19.4185 14.2122 19.5123 14.0219 19.6712C13.7672 19.8838 13.3415 20.1228 12.7282 20.345C11.5099 20.7865 9.72336 21.1 7.57895 21.1C5.28146 21.1 3.50027 20.7848 2.32736 20.3478C1.73779 20.1282 1.34541 19.8938 1.11677 19.6901C0.925678 19.5199 0.902284 19.423 0.900001 19.4091C0.902074 17.5457 3.07821 15.1353 7.57895 15.1353C9.71662 15.1353 11.4179 15.7359 12.5621 16.5778C13.7092 17.4219 14.2528 18.4651 14.2579 19.3986Z" stroke="#7B8794" stroke-width="1.8"/>
</svg>
