 <svg width="27" height="26" viewBox="0 0 27 26" fill="none" xmlns="http://www.w3.org/2000/svg">
<path d="M10.7664 21.2221C11.1858 21.0855 11.4151 20.6348 11.2786 20.2154C11.142 19.796 10.6913 19.5667 10.2719 19.7033L10.7664 21.2221ZM4.35547 16.502C3.93232 16.3775 3.4884 16.6196 3.36395 17.0428C3.23949 17.4659 3.48163 17.9099 3.90478 18.0343L4.35547 16.502ZM16.1096 22.5924C16.1096 23.0335 16.4672 23.391 16.9082 23.391C17.3493 23.391 17.7069 23.0335 17.7069 22.5924H16.1096ZM16.3758 16.7358L16.2907 15.9417C15.9849 15.9744 15.7251 16.1799 15.6227 16.4699C15.5203 16.76 15.5936 17.083 15.8111 17.3005L16.3758 16.7358ZM22.2324 10.3467H23.0311V10.3459L22.2324 10.3467ZM20.8481 6.9392L20.1006 6.65802C19.9918 6.94746 20.0598 7.27373 20.2752 7.49558L20.8481 6.9392ZM20.7417 3.5317L21.4701 3.20439C21.3723 2.98661 21.1821 2.82402 20.9518 2.7612L20.7417 3.5317ZM17.0147 4.91599L16.8134 5.68884C17.0338 5.74624 17.2682 5.70682 17.4577 5.5805L17.0147 4.91599ZM10.4127 4.91599L9.96967 5.5805C10.1592 5.70682 10.3936 5.74624 10.614 5.68884L10.4127 4.91599ZM6.68572 3.5317L6.47559 2.7612C6.24525 2.82402 6.05509 2.98661 5.95724 3.20439L6.68572 3.5317ZM6.57924 6.9392L7.15217 7.49558C7.36761 7.27373 7.43561 6.94746 7.32674 6.65802L6.57924 6.9392ZM5.19494 10.3467L4.39631 10.3459V10.3467H5.19494ZM11.0516 16.7358L11.6163 17.3005C11.8338 17.083 11.9071 16.76 11.8047 16.4699C11.7023 16.1799 11.4425 15.9744 11.1367 15.9417L11.0516 16.7358ZM10.5192 18.8654H11.3178C11.3178 18.8323 11.3157 18.7992 11.3116 18.7664L10.5192 18.8654ZM9.72053 22.5924C9.72053 23.0335 10.0781 23.391 10.5192 23.391C10.9602 23.391 11.3178 23.0335 11.3178 22.5924H9.72053ZM10.2719 19.7033C9.22897 20.0428 8.53708 20.0319 8.05889 19.8982C7.58591 19.7659 7.22527 19.4867 6.88909 19.1001C6.50953 18.6636 6.28613 18.2618 5.8903 17.7266C5.55101 17.2679 5.07782 16.7144 4.35547 16.502L3.90478 18.0343C4.08755 18.0881 4.2932 18.2533 4.60612 18.6764C4.86252 19.0231 5.26471 19.6662 5.68378 20.1481C6.14623 20.68 6.75727 21.1927 7.62865 21.4364C8.49482 21.6787 9.51999 21.6279 10.7664 21.2221L10.2719 19.7033ZM17.7069 22.5924V18.8654H16.1096V22.5924H17.7069ZM17.7069 18.8654C17.7069 18.4212 17.7371 17.916 17.6694 17.5096C17.5845 17.0004 17.3579 16.5884 16.9405 16.171L15.8111 17.3005C16.0326 17.522 16.0722 17.6425 16.0938 17.7722C16.1326 18.0047 16.1096 18.2449 16.1096 18.8654H17.7069ZM16.4609 17.5298C18.0048 17.3644 19.6678 16.9679 20.945 15.862C22.2564 14.7265 23.0311 12.9609 23.0311 10.3467H21.4338C21.4338 12.6308 20.7709 13.9 19.8994 14.6545C18.9937 15.4388 17.7284 15.7876 16.2907 15.9417L16.4609 17.5298ZM23.0311 10.3459C23.0296 8.86588 22.4522 7.44455 21.4211 6.38281L20.2752 7.49558C21.0172 8.25964 21.4327 9.28246 21.4338 10.3475L23.0311 10.3459ZM21.5956 7.22037C22.0857 5.91765 22.0406 4.47398 21.4701 3.20439L20.0132 3.859C20.4107 4.74386 20.4422 5.75006 20.1006 6.65802L21.5956 7.22037ZM20.7417 3.5317C20.9518 2.7612 20.9511 2.76101 20.9503 2.76081C20.9501 2.76074 20.9494 2.76054 20.9489 2.76041C20.9479 2.76014 20.9469 2.75987 20.9458 2.7596C20.9438 2.75905 20.9416 2.75849 20.9394 2.75792C20.935 2.75679 20.9302 2.7556 20.9252 2.75439C20.9151 2.75196 20.9038 2.7494 20.8913 2.74679C20.8663 2.74156 20.8364 2.73611 20.8018 2.73105C20.7324 2.72091 20.644 2.71236 20.5365 2.70997C20.3209 2.70518 20.0318 2.72522 19.6669 2.80453C18.9378 2.96304 17.9144 3.35634 16.5717 4.25149L17.4577 5.5805C18.6706 4.7719 19.5107 4.47305 20.0062 4.36534C20.2536 4.31155 20.417 4.30497 20.501 4.30684C20.5432 4.30778 20.5663 4.31087 20.5709 4.31154C20.5733 4.31189 20.5711 4.31164 20.5645 4.31026C20.5612 4.30957 20.5568 4.3086 20.5513 4.30727C20.5485 4.30661 20.5455 4.30586 20.5422 4.30502C20.5406 4.30459 20.5388 4.30415 20.5371 4.30368C20.5362 4.30344 20.5353 4.3032 20.5343 4.30295C20.5339 4.30283 20.5332 4.30264 20.5329 4.30257C20.5322 4.30238 20.5315 4.30219 20.7417 3.5317ZM17.216 4.14314C14.9194 3.54502 12.508 3.54502 10.2114 4.14314L10.614 5.68884C12.6465 5.15948 14.7808 5.15948 16.8134 5.68884L17.216 4.14314ZM10.8557 4.25149C9.51295 3.35634 8.4896 2.96304 7.76049 2.80453C7.39563 2.72522 7.10645 2.70518 6.89093 2.70997C6.78339 2.71236 6.69503 2.72091 6.62562 2.73105C6.59094 2.73611 6.56111 2.74156 6.53609 2.74679C6.52358 2.7494 6.51228 2.75196 6.5022 2.75439C6.49716 2.7556 6.49242 2.75679 6.48798 2.75792C6.48577 2.75849 6.48362 2.75905 6.48156 2.7596C6.48053 2.75987 6.47951 2.76014 6.47852 2.76041C6.47802 2.76054 6.47729 2.76074 6.47704 2.76081C6.47631 2.76101 6.47559 2.7612 6.68572 3.5317C6.89586 4.30219 6.89514 4.30238 6.89443 4.30257C6.8942 4.30264 6.8935 4.30283 6.89304 4.30295C6.89211 4.3032 6.89121 4.30344 6.89032 4.30368C6.88854 4.30415 6.88682 4.30459 6.88518 4.30502C6.88189 4.30586 6.87887 4.30661 6.87612 4.30727C6.87063 4.3086 6.86622 4.30957 6.86292 4.31026C6.8563 4.31164 6.85413 4.31189 6.85647 4.31154C6.8611 4.31087 6.88422 4.30778 6.92642 4.30684C7.01038 4.30497 7.17376 4.31155 7.42119 4.36534C7.91665 4.47305 8.75678 4.7719 9.96967 5.5805L10.8557 4.25149ZM5.95724 3.20439C5.38682 4.47398 5.34171 5.91765 5.83174 7.22037L7.32674 6.65802C6.9852 5.75006 7.01664 4.74386 7.41421 3.859L5.95724 3.20439ZM6.00631 6.38281C4.97523 7.44455 4.39782 8.86588 4.39631 10.3459L5.99357 10.3475C5.99466 9.28246 6.41018 8.25964 7.15217 7.49558L6.00631 6.38281ZM4.39631 10.3467C4.39631 12.9609 5.17095 14.7265 6.48241 15.862C7.75961 16.9679 9.42259 17.3644 10.9665 17.5298L11.1367 15.9417C9.69901 15.7876 8.43367 15.4388 7.52794 14.6545C6.65647 13.9 5.99357 12.6308 5.99357 10.3467H4.39631ZM10.4869 16.171C10.0609 16.597 9.81997 17.0583 9.72159 17.5699C9.62941 18.0492 9.67243 18.5304 9.7267 18.9645L11.3116 18.7664C11.2594 18.3486 11.2492 18.0844 11.2901 17.8716C11.3248 17.691 11.4033 17.5135 11.6163 17.3005L10.4869 16.171ZM9.72053 18.8654V22.5924H11.3178V18.8654H9.72053Z" fill="#2C3E50"/>
</svg>