<svg width="26" height="26" viewBox="0 0 26 26" fill="none" xmlns="http://www.w3.org/2000/svg">
<path d="M13 1.36842C11.4724 1.36851 9.95984 1.66948 8.54858 2.25414C7.13732 2.8388 5.85504 3.6957 4.77495 4.77592C3.69486 5.85613 2.83811 7.13852 2.25361 8.54984C1.66912 9.96117 1.36833 11.4738 1.36842 13.0014C1.36851 14.5289 1.66948 16.0415 2.25414 17.4528C2.8388 18.864 3.6957 20.1463 4.77592 21.2264C5.85613 22.3065 7.13852 23.1633 8.54984 23.7478C9.96117 24.3322 11.4738 24.633 13.0014 24.6329C16.0864 24.6328 19.0451 23.4071 21.2264 21.2255C23.4078 19.0439 24.6331 16.0851 24.6329 13C24.6328 9.91493 23.4071 6.95629 21.2255 4.77495C19.0439 2.5936 16.0851 1.36824 13 1.36842V1.36842ZM13 0C16.4478 0 19.7544 1.36964 22.1924 3.80761C24.6304 6.24558 26 9.55219 26 13C26 16.4478 24.6304 19.7544 22.1924 22.1924C19.7544 24.6304 16.4478 26 13 26C9.55219 26 6.24558 24.6304 3.80761 22.1924C1.36964 19.7544 0 16.4478 0 13C0 9.55219 1.36964 6.24558 3.80761 3.80761C6.24558 1.36964 9.55219 0 13 0V0ZM12.3158 19.1579H13.6842V21.8947H12.3158V19.1579ZM13 4.10526C14.2702 4.10526 15.4885 4.60987 16.3867 5.50807C17.2849 6.40627 17.7895 7.62449 17.7895 8.89474C17.7895 10.1222 16.8329 10.9734 15.8203 11.8724L14.5408 13.1081C13.7362 14.0304 13.6486 15.7834 13.6828 16.3814V16.4211H12.3158C12.3103 16.3499 12.1762 13.7335 13.5118 12.2077L14.9103 10.8502C15.7204 10.1304 16.4211 9.50779 16.4211 8.89474C16.4211 7.98742 16.0606 7.11726 15.419 6.47569C14.7775 5.83412 13.9073 5.47368 13 5.47368C12.0927 5.47368 11.2225 5.83412 10.581 6.47569C9.93938 7.11726 9.57895 7.98742 9.57895 8.89474H8.21053C8.21053 7.62449 8.71513 6.40627 9.61333 5.50807C10.5115 4.60987 11.7298 4.10526 13 4.10526Z" fill="#5B5B5B"/>
</svg>
