<svg width="73" height="73" viewBox="0 0 73 73" fill="none" xmlns="http://www.w3.org/2000/svg">
<path d="M64.5703 59.7813C68.3172 55.2769 70.9231 49.9371 72.1678 44.2136C73.4124 38.4901 73.2591 32.5512 71.7208 26.8994C70.1824 21.2476 67.3044 16.0491 63.3301 11.7438C59.3558 7.43838 54.4022 4.15277 48.8883 2.16485C43.3743 0.176931 37.4623 -0.454804 31.6524 0.323085C25.8424 1.10097 20.3054 3.2656 15.5098 6.63385C10.7142 10.0021 6.80102 14.4749 4.10134 19.6738C1.40166 24.8728 -0.00512042 30.6449 1.40042e-05 36.502C0.00198426 45.0165 3.00492 53.2584 8.48189 59.7813L8.42971 59.8256C8.61234 60.0446 8.82106 60.2323 9.00891 60.4487C9.24372 60.7172 9.4968 60.97 9.73943 61.2307C10.47 62.0232 11.2214 62.7844 12.0093 63.4987C12.2493 63.7177 12.4972 63.921 12.7398 64.1296C13.5747 64.8491 14.433 65.5321 15.3227 66.1681C15.4375 66.2463 15.5419 66.348 15.6567 66.4288V66.3975C21.7672 70.6941 29.0568 73 36.5287 73C44.0006 73 51.2902 70.6941 57.4008 66.3975V66.4288C57.5156 66.348 57.6173 66.2463 57.7347 66.1681C58.6218 65.5295 59.4827 64.8491 60.3176 64.1296C60.5603 63.921 60.8081 63.7151 61.0482 63.4987C61.8361 62.7818 62.5875 62.0232 63.318 61.2307C63.5606 60.97 63.8111 60.7172 64.0485 60.4487C64.2337 60.2323 64.4451 60.0446 64.6277 59.823L64.5703 59.7813ZM36.5261 15.6471C38.8482 15.6471 41.1181 16.3351 43.0488 17.6241C44.9795 18.9131 46.4843 20.7452 47.3729 22.8888C48.2616 25.0323 48.4941 27.391 48.041 29.6666C47.588 31.9421 46.4699 34.0324 44.8279 35.673C43.186 37.3136 41.094 38.4308 38.8166 38.8835C36.5391 39.3361 34.1785 39.1038 32.0332 38.2159C29.8879 37.328 28.0543 35.8244 26.7642 33.8953C25.4741 31.9662 24.7856 29.6981 24.7856 27.378C24.7856 24.2667 26.0225 21.2829 28.2243 19.083C30.4261 16.883 33.4123 15.6471 36.5261 15.6471ZM15.6723 59.7813C15.7176 56.3584 17.1097 53.0909 19.5476 50.6858C21.9855 48.2807 25.2731 46.9312 28.6991 46.9295H44.3531C47.7791 46.9312 51.0667 48.2807 53.5046 50.6858C55.9425 53.0909 57.3346 56.3584 57.3799 59.7813C51.6579 64.9333 44.2286 67.7846 36.5261 67.7846C28.8236 67.7846 21.3943 64.9333 15.6723 59.7813Z" fill="#6FA4E9"/>
</svg>
