<svg width="75" height="75" viewBox="0 0 75 75" fill="none" xmlns="http://www.w3.org/2000/svg">
<rect x="0.5" y="0.5" width="74" height="74" rx="29.5" stroke="#74B9FF"/>
<path d="M31.6216 26.1172V30.5312H27.8521V51H22.481V30.5312H19.2778V26.1172H22.2856C21.5565 24.6458 21.1919 23.2982 21.1919 22.0742C21.1919 19.9128 22.0643 18.2201 23.8091 16.9961C25.5539 15.7591 27.9953 15.1406 31.1333 15.1406C34.7922 15.1406 38.2622 16.0521 41.5435 17.875C44.8377 19.6849 48.0734 22.5299 51.2505 26.4102H45.1372C43.0799 24.1445 40.9445 22.4453 38.731 21.3125C36.5174 20.1667 34.2323 19.5938 31.8755 19.5938C30.1698 19.5938 28.8612 19.8997 27.9497 20.5117C27.0382 21.1237 26.5825 21.9896 26.5825 23.1094C26.5825 24.151 26.856 25.1536 27.4028 26.1172H31.6216Z" fill="#74B9FF"/>
<path d="M42.7652 44.1055C41.2938 44.1055 40.1415 44.3919 39.3081 44.9648C38.4878 45.5378 38.0777 46.3451 38.0777 47.3867C38.0777 48.0117 38.2014 48.6042 38.4488 49.1641C38.7092 49.7109 39.23 50.375 40.0113 51.1562C40.8055 51.9505 42.0295 52.9661 43.6831 54.2031L40.2066 57.7578C37.355 55.3359 35.3954 53.3112 34.3277 51.6836C33.26 50.069 32.7261 48.4414 32.7261 46.8008C32.7261 45.8763 32.9084 45.0234 33.273 44.2422C33.6506 43.4609 34.217 42.7513 34.9722 42.1133C33.7873 40.9154 33.1949 39.5026 33.1949 37.875C33.1949 36.9896 33.3641 36.2279 33.7027 35.5898C34.0542 34.9518 34.549 34.418 35.1871 33.9883C35.8381 33.5456 36.5998 33.2331 37.4722 33.0508C38.3446 32.8685 39.549 32.7773 41.0855 32.7773H45.1675V30.5312H30.9097V26.1172H54.2691V30.5312H50.4995V37.1914H41.1441C40.3889 37.1914 39.842 37.25 39.5035 37.3672C39.1649 37.4714 38.898 37.6536 38.7027 37.9141C38.5204 38.1745 38.4292 38.4805 38.4292 38.832C38.4292 39.2747 38.6376 39.724 39.0542 40.1797C40.3693 39.8411 41.7691 39.6719 43.2535 39.6719C46.0399 39.6719 48.2144 40.2513 49.7769 41.4102C51.3394 42.569 52.1206 44.0794 52.1206 45.9414C52.1206 47.6341 51.5933 49.0078 50.5386 50.0625C49.4969 51.1042 47.9149 51.8724 45.7925 52.3672L44.3472 48.1094C46.0139 47.7188 46.8472 47.0547 46.8472 46.1172C46.8472 45.4531 46.5022 44.9518 45.812 44.6133C45.135 44.2747 44.1193 44.1055 42.7652 44.1055Z" fill="#74B9FF"/>
</svg>
