<svg width="45" height="45" viewBox="0 0 45 45" fill="none" xmlns="http://www.w3.org/2000/svg">
<path d="M37.4371 0.746094H8.0843C6.13809 0.746094 4.27158 1.51922 2.8954 2.8954C1.51922 4.27158 0.746094 6.13809 0.746094 8.0843V37.4371C0.746094 39.3833 1.51922 41.2498 2.8954 42.626C4.27158 44.0022 6.13809 44.7753 8.0843 44.7753H37.4371C39.3833 44.7753 41.2498 44.0022 42.626 42.626C44.0022 41.2498 44.7753 39.3833 44.7753 37.4371V8.0843C44.7753 6.13809 44.0022 4.27158 42.626 2.8954C41.2498 1.51922 39.3833 0.746094 37.4371 0.746094ZM12.9764 10.5304C13.7021 10.5304 14.4115 10.7456 15.0149 11.1487C15.6183 11.5519 16.0885 12.1249 16.3662 12.7954C16.6439 13.4658 16.7166 14.2035 16.575 14.9153C16.4335 15.627 16.084 16.2808 15.5709 16.7939C15.0577 17.307 14.404 17.6565 13.6922 17.7981C12.9805 17.9396 12.2428 17.867 11.5723 17.5893C10.9019 17.3116 10.3289 16.8413 9.92569 16.2379C9.52252 15.6345 9.30733 14.9251 9.30733 14.1995C9.30733 13.2264 9.6939 12.2931 10.382 11.605C11.0701 10.9169 12.0033 10.5304 12.9764 10.5304ZM39.8832 37.0213C39.9372 37.7249 39.7101 38.4213 39.2516 38.9577C38.7931 39.4942 38.1406 39.827 37.4371 39.8832H8.0843L26.601 23.201C26.912 22.9174 27.3176 22.7602 27.7385 22.7602C28.1593 22.7602 28.565 22.9174 28.8759 23.201L39.8832 34.1594V37.0213Z" fill="white"/>
</svg>
