<svg width="42" height="42" viewBox="0 0 42 42" fill="none" xmlns="http://www.w3.org/2000/svg">
<path d="M31.9176 40.9974L9.14128 41.019C4.13049 41.0236 0.0273354 36.9284 0.0216414 31.9176L3.7966e-06 9.14128C-0.00455147 4.13049 4.09063 0.0273354 9.10142 0.0216414L31.8777 3.7966e-06C36.8885 -0.00455147 40.9917 4.09063 40.9974 9.10142L41.019 31.8777C41.0247 36.8897 36.9284 40.9928 31.9176 40.9974Z" fill="url(#paint0_radial)"/>
<path d="M31.9176 40.9974L9.14128 41.019C4.13049 41.0236 0.0273354 36.9284 0.0216414 31.9176L3.7966e-06 9.14128C-0.00455147 4.13049 4.09063 0.0273354 9.10142 0.0216414L31.8777 3.7966e-06C36.8885 -0.00455147 40.9917 4.09063 40.9974 9.10142L41.019 31.8777C41.0247 36.8897 36.9284 40.9928 31.9176 40.9974Z" fill="url(#paint1_radial)"/>
<path d="M20.5101 28.4818C16.1154 28.4818 12.5384 24.9059 12.5384 20.5101C12.5384 16.1142 16.1154 12.5384 20.5101 12.5384C24.9048 12.5384 28.4818 16.1142 28.4818 20.5101C28.4818 24.9059 24.9048 28.4818 20.5101 28.4818ZM20.5101 14.816C17.3704 14.816 14.816 17.3704 14.816 20.5101C14.816 23.6498 17.3704 26.2041 20.5101 26.2041C23.6498 26.2041 26.2042 23.6498 26.2042 20.5101C26.2042 17.3704 23.6498 14.816 20.5101 14.816Z" fill="white"/>
<path d="M29.0512 13.6772C29.9946 13.6772 30.7594 12.9124 30.7594 11.969C30.7594 11.0255 29.9946 10.2607 29.0512 10.2607C28.1078 10.2607 27.343 11.0255 27.343 11.969C27.343 12.9124 28.1078 13.6772 29.0512 13.6772Z" fill="white"/>
<path d="M27.343 35.3147H13.6772C9.28253 35.3147 5.70551 31.7388 5.70551 27.343V13.6772C5.70551 9.28136 9.28253 5.70547 13.6772 5.70547H27.343C31.7377 5.70547 35.3147 9.28136 35.3147 13.6772V27.343C35.3147 31.7388 31.7377 35.3147 27.343 35.3147ZM13.6772 7.98311C10.5375 7.98311 7.98314 10.5375 7.98314 13.6772V27.343C7.98314 30.4827 10.5375 33.0371 13.6772 33.0371H27.343C30.4827 33.0371 33.0371 30.4827 33.0371 27.343V13.6772C33.0371 10.5375 30.4827 7.98311 27.343 7.98311H13.6772Z" fill="white"/>
<defs>
<radialGradient id="paint0_radial" cx="0" cy="0" r="1" gradientUnits="userSpaceOnUse" gradientTransform="translate(15.2487 41.0486) scale(51.1317)">
<stop stop-color="#FFDD55"/>
<stop offset="0.328" stop-color="#FF543F"/>
<stop offset="0.348" stop-color="#FC5245"/>
<stop offset="0.504" stop-color="#E64771"/>
<stop offset="0.643" stop-color="#D53E91"/>
<stop offset="0.761" stop-color="#CC39A4"/>
<stop offset="0.841" stop-color="#C837AB"/>
</radialGradient>
<radialGradient id="paint1_radial" cx="0" cy="0" r="1" gradientUnits="userSpaceOnUse" gradientTransform="translate(6.60058 -0.512119) scale(33.9515 22.6219)">
<stop stop-color="#4168C9"/>
<stop offset="0.999" stop-color="#4168C9" stop-opacity="0"/>
</radialGradient>
</defs>
</svg>
