<svg width="32" height="33" viewBox="0 0 32 33" fill="none" xmlns="http://www.w3.org/2000/svg">
<path d="M29.8054 16.3608H26.494C26.0549 16.3608 25.6337 16.5331 25.3232 16.8399C25.0127 17.1466 24.8383 17.5627 24.8383 17.9965C24.8383 18.4303 25.0127 18.8464 25.3232 19.1531C25.6337 19.4599 26.0549 19.6322 26.494 19.6322V22.9036H24.5303C24.727 22.3799 24.8307 21.8265 24.8366 21.2679C24.8366 20.1877 24.4758 19.1377 23.8101 18.2808C23.1445 17.4238 22.2113 16.8078 21.1551 16.5282C20.099 16.2486 18.979 16.3212 17.9689 16.7345C16.9587 17.1478 16.1148 17.8789 15.5681 18.8143C15.4576 19.0004 15.3856 19.2063 15.356 19.42C15.3264 19.6337 15.3399 19.8511 15.3957 20.0597C15.4515 20.2682 15.5485 20.4638 15.6812 20.6352C15.8138 20.8065 15.9794 20.9503 16.1685 21.0581C16.3576 21.166 16.5665 21.2358 16.783 21.2636C16.9995 21.2915 17.2195 21.2767 17.4302 21.2201C17.6409 21.1636 17.8383 21.0665 18.0108 20.9343C18.1834 20.8022 18.3278 20.6376 18.4357 20.45C18.581 20.2014 18.79 19.9949 19.0417 19.8513C19.2934 19.7078 19.5789 19.6322 19.8696 19.6322C20.3087 19.6322 20.7298 19.8045 21.0403 20.1113C21.3508 20.418 21.5253 20.8341 21.5253 21.2679C21.5253 21.7017 21.3508 22.1178 21.0403 22.4245C20.7298 22.7313 20.3087 22.9036 19.8696 22.9036C19.4304 22.9036 19.0093 23.0759 18.6988 23.3827C18.3883 23.6894 18.2139 24.1055 18.2139 24.5393C18.2139 24.9731 18.3883 25.3892 18.6988 25.6959C19.0093 26.0027 19.4304 26.175 19.8696 26.175C20.3087 26.175 20.7298 26.3473 21.0403 26.6541C21.3508 26.9608 21.5253 27.3769 21.5253 27.8107C21.5253 28.2445 21.3508 28.6606 21.0403 28.9673C20.7298 29.2741 20.3087 29.4464 19.8696 29.4464C19.5789 29.4464 19.2934 29.3708 19.0417 29.2272C18.79 29.0837 18.581 28.8772 18.4357 28.6285C18.3278 28.441 18.1834 28.2764 18.0108 28.1443C17.8383 28.0121 17.6409 27.915 17.4302 27.8584C17.2195 27.8019 16.9995 27.7871 16.783 27.8149C16.5665 27.8428 16.3576 27.9126 16.1685 28.0205C15.9794 28.1283 15.8138 28.2721 15.6812 28.4434C15.5485 28.6148 15.4515 28.8104 15.3957 29.0189C15.3399 29.2275 15.3264 29.4449 15.356 29.6586C15.3856 29.8723 15.4576 30.0782 15.5681 30.2642C16.1148 31.1997 16.9587 31.9308 17.9689 32.3441C18.979 32.7574 20.099 32.8299 21.1551 32.5504C22.2113 32.2708 23.1445 31.6548 23.8101 30.7978C24.4758 29.9409 24.8366 28.8909 24.8366 27.8107C24.8307 27.2521 24.727 26.6987 24.5303 26.175H26.4923V31.0821C26.4923 31.5159 26.6668 31.932 26.9773 32.2387C27.2878 32.5455 27.7089 32.7178 28.148 32.7178C28.5872 32.7178 29.0083 32.5455 29.3188 32.2387C29.6293 31.932 29.8037 31.5159 29.8037 31.0821V19.6322C30.2428 19.6322 30.664 19.4599 30.9745 19.1531C31.285 18.8464 31.4594 18.4303 31.4594 17.9965C31.4594 17.5627 31.285 17.1466 30.9745 16.8399C30.664 16.5331 30.2428 16.3608 29.8037 16.3608H29.8054ZM9.98671 15.1226C10.0383 15.3323 10.1313 15.5298 10.2605 15.7038C10.3897 15.8778 10.5524 16.0248 10.7394 16.1364C10.9263 16.248 11.1338 16.322 11.3498 16.354C11.5658 16.386 11.7861 16.3755 11.998 16.3231C12.2098 16.2707 12.4091 16.1773 12.5843 16.0485C12.7595 15.9196 12.9072 15.7578 13.0188 15.5723C13.1304 15.3868 13.2038 15.1813 13.2347 14.9677C13.2656 14.7541 13.2534 14.5366 13.1988 14.3276L10.2897 2.82866C10.0862 2.02092 9.61504 1.30366 8.9512 0.791062C8.28737 0.278465 7.46903 0 6.62648 0C5.78393 0 4.96559 0.278465 4.30176 0.791062C3.63793 1.30366 3.16675 2.02092 2.96326 2.82866L0.0525443 14.3276C-0.00204581 14.5366 -0.0142495 14.7541 0.0166364 14.9677C0.0475224 15.1813 0.120887 15.3868 0.232505 15.5723C0.344123 15.7578 0.491787 15.9196 0.66699 16.0485C0.842194 16.1773 1.04147 16.2707 1.25335 16.3231C1.46523 16.3755 1.68551 16.386 1.90152 16.354C2.11752 16.322 2.32497 16.248 2.51192 16.1364C2.69887 16.0248 2.86162 15.8778 2.9908 15.7038C3.11998 15.5298 3.21303 15.3323 3.26459 15.1226L4.19013 11.4537H9.05787L9.98671 15.1226ZM5.01963 8.1823L6.17365 3.6236C6.20845 3.53301 6.27033 3.45501 6.35106 3.39997C6.4318 3.34493 6.52756 3.31546 6.62565 3.31546C6.72374 3.31546 6.81951 3.34493 6.90024 3.39997C6.98098 3.45501 7.04285 3.53301 7.07766 3.6236L8.23168 8.1823H5.01963ZM18.2155 8.1823H19.8712C20.3102 8.18273 20.7311 8.3552 21.0415 8.66186C21.3519 8.96852 21.5265 9.38432 21.5269 9.818V11.4537C21.5269 11.8875 21.7013 12.3036 22.0119 12.6103C22.3224 12.9171 22.7435 13.0894 23.1826 13.0894C23.6217 13.0894 24.0429 12.9171 24.3534 12.6103C24.6639 12.3036 24.8383 11.8875 24.8383 11.4537V9.818C24.837 8.51695 24.3132 7.26957 23.382 6.34959C22.4508 5.42961 21.1882 4.9122 19.8712 4.9109H18.2155C17.7764 4.9109 17.3553 5.08323 17.0448 5.38999C16.7343 5.69674 16.5598 6.11279 16.5598 6.5466C16.5598 6.98041 16.7343 7.39646 17.0448 7.70321C17.3553 8.00997 17.7764 8.1823 18.2155 8.1823ZM11.5927 22.9036H9.93704C9.49806 22.9032 9.07718 22.7307 8.76678 22.424C8.45637 22.1174 8.28179 21.7016 8.28135 21.2679V19.6322C8.28135 19.1984 8.10691 18.7823 7.79641 18.4756C7.4859 18.1688 7.06477 17.9965 6.62565 17.9965C6.18654 17.9965 5.7654 18.1688 5.4549 18.4756C5.1444 18.7823 4.96996 19.1984 4.96996 19.6322V21.2679C4.97127 22.5689 5.49501 23.8163 6.42624 24.7363C7.35746 25.6563 8.62009 26.1737 9.93704 26.175H11.5927C12.0319 26.175 12.453 26.0027 12.7635 25.6959C13.074 25.3892 13.2484 24.9731 13.2484 24.5393C13.2484 24.1055 13.074 23.6894 12.7635 23.3827C12.453 23.0759 12.0319 22.9036 11.5927 22.9036Z" fill="#6FA4E9"/>
</svg>
