<svg width="28" height="28" viewBox="0 0 28 28" fill="none" xmlns="http://www.w3.org/2000/svg">
<path fill-rule="evenodd" clip-rule="evenodd" d="M4.16327 1H23.1429C23.9818 1 24.7864 1.33327 25.3796 1.9265C25.9728 2.51973 26.3061 3.32432 26.3061 4.16327V23.127C26.3061 23.966 25.9728 24.7706 25.3796 25.3638C24.7864 25.957 23.9818 26.2903 23.1429 26.2903H4.16327C3.32432 26.2903 2.51973 25.957 1.9265 25.3638C1.33327 24.7706 1 23.966 1 23.127V4.16327C1 3.32432 1.33327 2.51973 1.9265 1.9265C2.51973 1.33327 3.32432 1 4.16327 1V1Z" stroke="black" stroke-width="2" stroke-linecap="round" stroke-linejoin="round"/>
<path d="M1.25146 7.32666H26.3061" stroke="black" stroke-width="2" stroke-linecap="round" stroke-linejoin="round"/>
<path fill-rule="evenodd" clip-rule="evenodd" d="M7.82635 17.8522V16.1456H9.21818C10.2747 16.1456 10.9928 15.5209 10.9928 14.6083C10.9928 13.7748 10.3364 13.1421 9.24823 13.1421C8.12053 13.1421 7.42619 13.721 7.34869 14.7174H5.19135C5.27201 12.6629 6.85364 11.2805 9.36369 11.2805C11.8358 11.2805 13.2102 12.647 13.2023 14.2777C13.1944 15.6284 12.3451 16.5173 11.1478 16.8099V16.957C12.6994 17.18 13.642 18.1685 13.642 19.66C13.642 21.6133 11.8042 22.9973 9.28619 22.9973C6.76823 22.9973 5.05374 21.6197 4.9541 19.5113H7.18578C7.25538 20.454 8.05885 21.0566 9.25614 21.0566C10.4376 21.0566 11.2648 20.4144 11.2648 19.4497C11.2648 18.4611 10.4914 17.8522 9.24033 17.8522H7.82635Z" fill="black"/>
<path fill-rule="evenodd" clip-rule="evenodd" d="M18.423 22.7113V13.8368H18.2854L15.5508 15.7221V13.5521L18.4309 11.5671H20.7559V22.7113H18.423Z" fill="black"/>
</svg>
