<svg width="28" height="28" viewBox="0 0 28 28" fill="none" xmlns="http://www.w3.org/2000/svg">
<path fill-rule="evenodd" clip-rule="evenodd" d="M4.16327 1H23.1429C23.9818 1 24.7864 1.33327 25.3796 1.9265C25.9728 2.51973 26.3061 3.32432 26.3061 4.16327V23.127C26.3061 23.966 25.9728 24.7706 25.3796 25.3638C24.7864 25.957 23.9818 26.2903 23.1429 26.2903H4.16327C3.32432 26.2903 2.51973 25.957 1.9265 25.3638C1.33327 24.7706 1 23.966 1 23.127V4.16327C1 3.32432 1.33327 2.51973 1.9265 1.9265C2.51973 1.33327 3.32432 1 4.16327 1V1Z" stroke="black" stroke-width="2" stroke-linecap="round" stroke-linejoin="round"/>
<path d="M1.25146 7.32666H26.3061" stroke="black" stroke-width="2" stroke-linecap="round" stroke-linejoin="round"/>
<path d="M9.22475 20.8497C9.22475 21.2901 9.04978 21.7125 8.73834 22.024C8.42689 22.3354 8.00448 22.5104 7.56403 22.5104C7.12359 22.5104 6.70118 22.3354 6.38973 22.024C6.07829 21.7125 5.90332 21.2901 5.90332 20.8497C5.90332 20.4092 6.07829 19.9868 6.38973 19.6754C6.70118 19.3639 7.12359 19.189 7.56403 19.189C8.00448 19.189 8.42689 19.3639 8.73834 19.6754C9.04978 19.9868 9.22475 20.4092 9.22475 20.8497Z" fill="black"/>
<path d="M15.8673 14.2069C15.8673 14.6473 15.6924 15.0697 15.3809 15.3812C15.0695 15.6926 14.6471 15.8676 14.2066 15.8676C13.7662 15.8676 13.3438 15.6926 13.0323 15.3812C12.7209 15.0697 12.5459 14.6473 12.5459 14.2069C12.5459 13.7664 12.7209 13.344 13.0323 13.0326C13.3438 12.7211 13.7662 12.5461 14.2066 12.5461C14.6471 12.5461 15.0695 12.7211 15.3809 13.0326C15.6924 13.344 15.8673 13.7664 15.8673 14.2069Z" fill="black"/>
<path d="M22.5104 14.2069C22.5104 14.6473 22.3354 15.0697 22.024 15.3812C21.7125 15.6926 21.2901 15.8676 20.8497 15.8676C20.4092 15.8676 19.9868 15.6926 19.6754 15.3812C19.3639 15.0697 19.189 14.6473 19.189 14.2069C19.189 13.7664 19.3639 13.344 19.6754 13.0326C19.9868 12.7211 20.4092 12.5461 20.8497 12.5461C21.2901 12.5461 21.7125 12.7211 22.024 13.0326C22.3354 13.344 22.5104 13.7664 22.5104 14.2069Z" fill="black"/>
<path d="M22.5104 20.8497C22.5104 21.2901 22.3354 21.7125 22.024 22.024C21.7125 22.3354 21.2901 22.5104 20.8497 22.5104C20.4092 22.5104 19.9868 22.3354 19.6754 22.024C19.3639 21.7125 19.189 21.2901 19.189 20.8497C19.189 20.4092 19.3639 19.9868 19.6754 19.6754C19.9868 19.3639 20.4092 19.189 20.8497 19.189C21.2901 19.189 21.7125 19.3639 22.024 19.6754C22.3354 19.9868 22.5104 20.4092 22.5104 20.8497Z" fill="black"/>
<path d="M15.8673 20.8497C15.8673 21.2901 15.6924 21.7125 15.3809 22.024C15.0695 22.3354 14.6471 22.5104 14.2066 22.5104C13.7662 22.5104 13.3438 22.3354 13.0323 22.024C12.7209 21.7125 12.5459 21.2901 12.5459 20.8497C12.5459 20.4092 12.7209 19.9868 13.0323 19.6754C13.3438 19.3639 13.7662 19.189 14.2066 19.189C14.6471 19.189 15.0695 19.3639 15.3809 19.6754C15.6924 19.9868 15.8673 20.4092 15.8673 20.8497Z" fill="black"/>
</svg>
