<svg width="41" height="41" viewBox="0 0 41 41" fill="none" xmlns="http://www.w3.org/2000/svg">
<path d="M20.5 0C9.17802 0 0 9.17802 0 20.5C0 31.822 9.17802 41 20.5 41C31.822 41 41 31.822 41 20.5C41 9.17802 31.822 0 20.5 0ZM15.4818 28.9968H11.3305V15.6377H15.4818V28.9968ZM13.3805 13.9977C12.0694 13.9977 11.2216 13.0687 11.2216 11.9199C11.2216 10.7476 12.095 9.84641 13.4339 9.84641C14.7728 9.84641 15.5928 10.7476 15.6184 11.9199C15.6184 13.0687 14.7728 13.9977 13.3805 13.9977ZM30.6432 28.9968H26.492V21.5933C26.492 19.8701 25.8898 18.6998 24.3886 18.6998C23.2419 18.6998 22.5607 19.4921 22.2596 20.2544C22.1485 20.5256 22.1208 20.91 22.1208 21.2922V28.9947H17.9674V19.8978C17.9674 18.2301 17.914 16.8356 17.8585 15.6355H21.4652L21.6553 17.4912H21.7385C22.2852 16.6199 23.6241 15.3344 25.8642 15.3344C28.5954 15.3344 30.6432 17.1645 30.6432 21.0979V28.9968Z" fill="#0A66C2"/>
</svg>
