<svg width="32" height="30" viewBox="0 0 32 30" fill="none" xmlns="http://www.w3.org/2000/svg">
<path d="M5.55076 4.47623C6.04147 4.47623 6.51209 4.28565 6.85908 3.94641C7.20607 3.60717 7.40101 3.14707 7.40101 2.66732C7.40101 2.18756 7.20607 1.72746 6.85908 1.38822C6.51209 1.04898 6.04147 0.858398 5.55076 0.858398H1.85025C1.35953 0.858398 0.888916 1.04898 0.541927 1.38822C0.194937 1.72746 0 2.18756 0 2.66732V27.9922C0 28.4719 0.194937 28.932 0.541927 29.2712C0.888916 29.6105 1.35953 29.8011 1.85025 29.8011H5.55076C6.04147 29.8011 6.51209 29.6105 6.85908 29.2712C7.20607 28.932 7.40101 28.4719 7.40101 27.9922C7.40101 27.5124 7.20607 27.0523 6.85908 26.7131C6.51209 26.3738 6.04147 26.1832 5.55076 26.1832H3.70051V4.47623H5.55076ZM31.1212 14.2806L25.9035 7.04489C25.6206 6.65491 25.1912 6.39032 24.7092 6.30897C24.2273 6.22762 23.732 6.33612 23.3317 6.61075C23.1316 6.74784 22.9612 6.92233 22.8305 7.12413C22.6997 7.32594 22.6111 7.55107 22.5698 7.78652C22.5285 8.02198 22.5354 8.2631 22.5899 8.49596C22.6445 8.72882 22.7456 8.94881 22.8876 9.14324L26.0701 13.5208H11.1015C10.6108 13.5208 10.1402 13.7114 9.79319 14.0506C9.4462 14.3899 9.25126 14.85 9.25126 15.3297C9.25126 15.8095 9.4462 16.2696 9.79319 16.6088C10.1402 16.9481 10.6108 17.1386 11.1015 17.1386H25.9035L22.5731 21.48C22.4273 21.6701 22.3212 21.8863 22.2609 22.1165C22.2006 22.3466 22.1873 22.5861 22.2216 22.8212C22.256 23.0564 22.3374 23.2826 22.4612 23.487C22.585 23.6914 22.7487 23.87 22.9431 24.0125C23.2634 24.2474 23.6529 24.3743 24.0533 24.3743C24.3405 24.3743 24.6238 24.3089 24.8807 24.1833C25.1377 24.0578 25.3611 23.8754 25.5335 23.6508L31.0842 16.4151C31.3212 16.1091 31.4525 15.7374 31.4592 15.3537C31.4658 14.97 31.3475 14.5942 31.1212 14.2806Z" fill="#6FA4E9"/>
</svg>
