<svg width="75" height="75" viewBox="0 0 75 75" fill="none" xmlns="http://www.w3.org/2000/svg">
<rect x="0.5" y="0.5" width="74" height="74" rx="29.5" stroke="#55EFC4"/>
<path d="M27.3923 31.2193C25.6114 31.2193 24.1707 29.7794 24.1707 27.9995C24.1707 27.1456 24.5101 26.3266 25.1143 25.7228C25.7185 25.1189 26.5379 24.7797 27.3923 24.7797C29.1732 24.7797 30.6139 26.2196 30.6139 27.9995C30.6139 28.8535 30.2744 29.6724 29.6703 30.2763C29.0661 30.8801 28.2467 31.2193 27.3923 31.2193ZM27.3923 19C22.3899 19 18.3879 22.9998 18.3879 27.9995C18.3879 34.7391 27.3923 44.7186 27.3923 44.7186C27.3923 44.7186 36.3966 34.7391 36.3966 27.9995C36.3966 22.9998 32.3947 19 27.3923 19ZM49.4029 31.2193C48.5485 31.2193 47.7291 30.8801 47.125 30.2763C46.5208 29.6724 46.1814 28.8535 46.1814 27.9995C46.1814 27.5767 46.2647 27.158 46.4266 26.7673C46.5885 26.3767 46.8258 26.0217 47.125 25.7228C47.4241 25.4238 47.7792 25.1866 48.1701 25.0248C48.561 24.863 48.9799 24.7797 49.4029 24.7797C49.826 24.7797 50.2449 24.863 50.6358 25.0248C51.0266 25.1866 51.3818 25.4238 51.6809 25.7228C51.9801 26.0217 52.2174 26.3767 52.3793 26.7673C52.5412 27.158 52.6245 27.5767 52.6245 27.9995C52.6245 28.8535 52.2851 29.6724 51.6809 30.2763C51.0768 30.8801 50.2573 31.2193 49.4029 31.2193ZM49.4029 19C44.4005 19 40.3986 22.9998 40.3986 27.9995C40.3986 34.7391 49.4029 44.7186 49.4029 44.7186C49.4029 44.7186 58.4073 34.7391 58.4073 27.9995C58.4073 22.9998 54.4054 19 49.4029 19ZM49.4029 46.9985C46.8617 46.9985 44.6006 48.5984 43.7602 50.9983H33.035C32.5048 49.5015 31.4026 48.2758 29.9698 47.5898C28.537 46.9038 26.8906 46.8134 25.3913 47.3385C24.6461 47.5994 23.9597 48.0046 23.3713 48.5309C22.7829 49.0572 22.304 49.6942 21.9621 50.4056C21.6201 51.1169 21.4218 51.8887 21.3785 52.6767C21.3352 53.4647 21.4477 54.2535 21.7095 54.998C22.2469 56.4987 23.3566 57.7259 24.7963 58.4116C26.2359 59.0974 27.8885 59.1859 29.3933 58.6578C31.0941 58.0579 32.3947 56.698 33.035 54.998H43.7802C44.8807 58.1179 48.3224 59.7578 51.4039 58.6578C52.1514 58.3996 52.8404 57.9962 53.4314 57.4709C54.0224 56.9456 54.5037 56.3088 54.8477 55.5971C55.1917 54.8853 55.3916 54.1126 55.4358 53.3234C55.4801 52.5342 55.3679 51.744 55.1057 50.9983C54.2453 48.5984 51.9642 46.9985 49.4029 46.9985ZM49.4029 55.998C48.6069 55.998 47.8435 55.6819 47.2806 55.1194C46.7177 54.5568 46.4015 53.7938 46.4015 52.9982C46.4015 52.2025 46.7177 51.4395 47.2806 50.8769C47.8435 50.3144 48.6069 49.9983 49.4029 49.9983C50.199 49.9983 50.9624 50.3144 51.5253 50.8769C52.0882 51.4395 52.4044 52.2025 52.4044 52.9982C52.4044 53.7938 52.0882 54.5568 51.5253 55.1194C50.9624 55.6819 50.199 55.998 49.4029 55.998Z" fill="#55EFC4"/>
</svg>
