<svg width="35" height="45" viewBox="10 10 35 40" fill="none" xmlns="http://www.w3.org/2000/svg">
<g filter="url(#filter0_d)">
<path d="M21.5 7C18.4511 7.00344 15.5281 8.16347 13.3723 10.2256C11.2164 12.2878 10.0036 15.0837 10 18C9.99636 20.3832 10.8102 22.7018 12.3167 24.6C12.3167 24.6 12.6304 24.995 12.6816 25.052L21.5 35L30.3226 25.047C30.3686 24.994 30.6833 24.6 30.6833 24.6L30.6843 24.597C32.1901 22.6996 33.0036 20.3821 33 18C32.9964 15.0837 31.7836 12.2878 29.6277 10.2256C27.4719 8.16347 24.5489 7.00344 21.5 7ZM25.2636 23L21.5 20.709L17.7364 23L18.3636 18.926L15.2273 16.173L19.6182 15.666L21.5 12L23.4989 15.667L27.7727 16.173L24.6364 18.926L25.2636 23Z" fill="#E23535"/>
</g>
<defs>
<filter id="filter0_d" x="0" y="0" width="35" height="40" filterUnits="userSpaceOnUse" color-interpolation-filters="sRGB">
<feFlood flood-opacity="0" result="BackgroundImageFix"/>
<!-- <feColorMatrix in="SourceAlpha" type="matrix" values="0 0 0 0 0 0 0 0 0 0 0 0 0 0 0 0 0 0 127 0"/> -->
<!-- <feOffset dy="3"/> -->
<!-- <feGaussianBlur stdDeviation="5"/> -->
<feColorMatrix type="matrix" values="0 0 0 0 0 0 0 0 0 0 0 0 0 0 0 0 0 0 0.25 0"/>
<feBlend mode="normal" in2="BackgroundImageFix" result="effect1_dropShadow"/>
<feBlend mode="normal" in="SourceGraphic" in2="effect1_dropShadow" result="shape"/>
</filter>
</defs>
</svg>
