<svg width="19" height="29" viewBox="0 0 19 29" fill="none" xmlns="http://www.w3.org/2000/svg">
<path d="M16.9459 0H2.05405C0.921115 0 0 0.921115 0 2.05405V26.7027C0 27.8356 0.921115 28.7568 2.05405 28.7568H16.9459C18.0789 28.7568 19 27.8356 19 26.7027V2.05405C19 0.921115 18.0789 0 16.9459 0ZM16.6892 26.4459H2.31081V2.31081H16.6892V26.4459ZM8.21622 23.1723C8.21622 23.5128 8.35147 23.8393 8.59223 24.0801C8.83298 24.3208 9.15952 24.4561 9.5 24.4561C9.84048 24.4561 10.167 24.3208 10.4078 24.0801C10.6485 23.8393 10.7838 23.5128 10.7838 23.1723C10.7838 22.8318 10.6485 22.5053 10.4078 22.2645C10.167 22.0238 9.84048 21.8885 9.5 21.8885C9.15952 21.8885 8.83298 22.0238 8.59223 22.2645C8.35147 22.5053 8.21622 22.8318 8.21622 23.1723Z" fill="#FA5805"/>
</svg>
