<svg width="102" height="91" viewBox="0 0 102 91" fill="none" xmlns="http://www.w3.org/2000/svg">
<path d="M50.9789 84.0893H50.9776C46.1055 84.0957 41.2537 83.4811 36.5467 82.2615L36.1872 82.1684L35.8541 82.3324C32.2915 84.0866 23.999 87.5083 9.98504 89.7415C9.51864 89.8136 9.16731 89.3421 9.34749 88.93L9.34793 88.9289C11.5964 83.7703 13.6312 76.8973 14.2437 70.5994L14.2902 70.1218L13.9467 69.7868C6.45069 62.4746 1.93018 52.9388 1.93018 42.5447C1.93018 19.7463 23.7333 1 50.9789 1C78.2245 1 100.028 19.7463 100.028 42.5447C100.028 65.343 78.2245 84.0893 50.9789 84.0893ZM33.2106 42.5447C33.2106 40.658 32.4389 38.8547 31.0751 37.5298C29.7122 36.2057 27.8698 35.4669 25.9545 35.4669C24.0393 35.4669 22.1968 36.2057 20.834 37.5298C19.4702 38.8547 18.6984 40.658 18.6984 42.5447C18.6984 44.4313 19.4702 46.2346 20.834 47.5596C22.1968 48.8836 24.0393 49.6225 25.9545 49.6225C27.8698 49.6225 29.7122 48.8836 31.0751 47.5596C32.4389 46.2346 33.2106 44.4313 33.2106 42.5447ZM58.235 42.5447C58.235 40.658 57.4632 38.8547 56.0994 37.5298C54.7366 36.2057 52.8941 35.4669 50.9789 35.4669C49.0636 35.4669 47.2212 36.2057 45.8583 37.5298C44.4945 38.8547 43.7228 40.658 43.7228 42.5447C43.7228 44.4313 44.4945 46.2346 45.8583 47.5596C47.2212 48.8836 49.0636 49.6225 50.9789 49.6225C52.8941 49.6225 54.7366 48.8836 56.0994 47.5596C57.4632 46.2346 58.235 44.4313 58.235 42.5447ZM76.0032 49.6225C77.9185 49.6225 79.7609 48.8836 81.1238 47.5596C82.4876 46.2346 83.2593 44.4313 83.2593 42.5447C83.2593 40.658 82.4876 38.8547 81.1238 37.5298C79.7609 36.2057 77.9185 35.4669 76.0032 35.4669C74.088 35.4669 72.2455 36.2057 70.8827 37.5298C69.5189 38.8547 68.7471 40.658 68.7471 42.5447C68.7471 44.4313 69.5189 46.2346 70.8827 47.5596C72.2455 48.8836 74.088 49.6225 76.0032 49.6225Z" stroke="#ACB2BE" stroke-width="2"/>
</svg>
