<svg width="31" height="27" viewBox="0 0 31 27" fill="none" xmlns="http://www.w3.org/2000/svg">
<path d="M30.1144 12.4659C30.1144 19.3506 23.5483 24.9318 15.4498 24.9318C13.9974 24.9337 12.5509 24.7505 11.1476 24.3869C10.077 24.914 7.61888 25.9255 3.48345 26.5844C3.11683 26.6414 2.83821 26.271 2.98302 25.9398C3.63193 24.451 4.21851 22.4671 4.39449 20.6578C2.14897 18.4673 0.785156 15.6002 0.785156 12.4659C0.785156 5.58116 7.35125 0 15.4498 0C23.5483 0 30.1144 5.58116 30.1144 12.4659ZM9.95056 12.4659C9.95056 11.9936 9.75743 11.5406 9.41366 11.2067C9.06989 10.8727 8.60364 10.6851 8.11748 10.6851C7.63131 10.6851 7.16506 10.8727 6.82129 11.2067C6.47752 11.5406 6.2844 11.9936 6.2844 12.4659C6.2844 12.9382 6.47752 13.3912 6.82129 13.7251C7.16506 14.0591 7.63131 14.2467 8.11748 14.2467C8.60364 14.2467 9.06989 14.0591 9.41366 13.7251C9.75743 13.3912 9.95056 12.9382 9.95056 12.4659ZM17.2829 12.4659C17.2829 11.9936 17.0897 11.5406 16.746 11.2067C16.4022 10.8727 15.936 10.6851 15.4498 10.6851C14.9636 10.6851 14.4974 10.8727 14.1536 11.2067C13.8098 11.5406 13.6167 11.9936 13.6167 12.4659C13.6167 12.9382 13.8098 13.3912 14.1536 13.7251C14.4974 14.0591 14.9636 14.2467 15.4498 14.2467C15.936 14.2467 16.4022 14.0591 16.746 13.7251C17.0897 13.3912 17.2829 12.9382 17.2829 12.4659ZM22.7821 14.2467C23.2683 14.2467 23.7345 14.0591 24.0783 13.7251C24.4221 13.3912 24.6152 12.9382 24.6152 12.4659C24.6152 11.9936 24.4221 11.5406 24.0783 11.2067C23.7345 10.8727 23.2683 10.6851 22.7821 10.6851C22.296 10.6851 21.8297 10.8727 21.4859 11.2067C21.1422 11.5406 20.949 11.9936 20.949 12.4659C20.949 12.9382 21.1422 13.3912 21.4859 13.7251C21.8297 14.0591 22.296 14.2467 22.7821 14.2467Z" fill="#E3E6E9"/>
</svg>
