<svg width="43" height="34" viewBox="0 0 43 34" fill="none" xmlns="http://www.w3.org/2000/svg">
<path d="M40.0764 7.5127H3.41715C2.17982 7.5127 1.17676 8.51575 1.17676 9.75309V30.7092C1.17676 31.9465 2.17982 32.9496 3.41715 32.9496H40.0764C41.3137 32.9496 42.3168 31.9465 42.3168 30.7092V9.75309C42.3168 8.51575 41.3137 7.5127 40.0764 7.5127Z" fill="#6FA4E9"/>
<path d="M23.6147 1.23828H19.7444C19.1793 1.23828 18.7212 1.69641 18.7212 2.26154V10.5153C18.7212 11.0804 19.1793 11.5386 19.7444 11.5386H23.6147C24.1798 11.5386 24.638 11.0804 24.638 10.5153V2.26154C24.638 1.69641 24.1798 1.23828 23.6147 1.23828Z" fill="#6FA4E9"/>
<path d="M9.52526 14.416H34.3036C34.7997 14.4159 35.291 14.5136 35.7494 14.7034C36.2077 14.8932 36.6242 15.1715 36.975 15.5223C37.3258 15.873 37.604 16.2895 37.7938 16.7479C37.9837 17.2062 38.0813 17.6975 38.0812 18.1936V27.5942C38.0813 27.8461 38.0317 28.0956 37.9354 28.3284C37.839 28.5612 37.6977 28.7727 37.5195 28.9509C37.3414 29.129 37.1299 29.2703 36.8971 29.3667C36.6643 29.4631 36.4148 29.5126 36.1629 29.5125H6.489C6.2371 29.5125 5.98768 29.4629 5.75497 29.3665C5.52226 29.2701 5.31082 29.1288 5.13274 28.9506C4.95466 28.7725 4.81341 28.561 4.71708 28.3282C4.62074 28.0955 4.5712 27.8461 4.57129 27.5942V19.3713C4.57146 18.0575 5.09345 16.7975 6.02247 15.8685C6.95148 14.9395 8.21144 14.4175 9.52526 14.4173V14.416Z" fill="#6FA4E9"/>
<path d="M35.2563 14.8877H7.54613C6.487 14.8877 5.62842 15.7463 5.62842 16.8054V25.9372C5.62842 26.9963 6.487 27.8549 7.54613 27.8549H35.2563C36.3154 27.8549 37.174 26.9963 37.174 25.9372V16.8054C37.174 15.7463 36.3154 14.8877 35.2563 14.8877Z" fill="white"/>
<path d="M24.7058 7.8418H40.0764C40.6707 7.8418 41.2408 8.07791 41.661 8.49818C42.0813 8.91846 42.3174 9.48848 42.3174 10.0828V31.0383C42.3174 31.6327 42.0813 32.2027 41.661 32.623C41.2408 33.0432 40.6707 33.2793 40.0764 33.2793H3.41781C2.82344 33.2793 2.25342 33.0432 1.83315 32.623C1.41287 32.2027 1.17676 31.6327 1.17676 31.0383V10.0828C1.17676 9.48848 1.41287 8.91846 1.83315 8.49818C2.25342 8.07791 2.82344 7.8418 3.41781 7.8418H18.7213" stroke="black" stroke-linecap="round" stroke-linejoin="round"/>
<path d="M35.2568 14.8877H7.54661C6.48749 14.8877 5.62891 15.7463 5.62891 16.8054V25.9372C5.62891 26.9963 6.48749 27.8549 7.54661 27.8549H35.2568C36.3159 27.8549 37.1745 26.9963 37.1745 25.9372V16.8054C37.1745 15.7463 36.3159 14.8877 35.2568 14.8877Z" stroke="black" stroke-linecap="round" stroke-linejoin="round"/>
<path d="M32.5228 19.3389H29.894V23.9393H32.5228" stroke="black" stroke-linecap="round" stroke-linejoin="round"/>
<path d="M29.894 21.6387H31.8656" stroke="black" stroke-linecap="round" stroke-linejoin="round"/>
<path d="M20.6932 23.9393L18.7216 19.3389L16.75 23.9393" stroke="black" stroke-linecap="round" stroke-linejoin="round"/>
<path d="M17.4072 22.8379H20.036" stroke="black" stroke-linecap="round" stroke-linejoin="round"/>
<path d="M10.835 23.9393V19.3389L14.121 23.9393V19.3389" stroke="black" stroke-linecap="round" stroke-linejoin="round"/>
<path d="M27.265 23.9393V19.3389L25.2934 23.2821L23.3218 19.3389V23.9393" stroke="black" stroke-linecap="round" stroke-linejoin="round"/>
<path d="M23.6826 1H19.8123C19.2472 1 18.7891 1.45813 18.7891 2.02326V10.277C18.7891 10.8422 19.2472 11.3003 19.8123 11.3003H23.6826C24.2477 11.3003 24.7058 10.8422 24.7058 10.277V2.02326C24.7058 1.45813 24.2477 1 23.6826 1Z" stroke="black" stroke-miterlimit="10"/>
</svg>
