<svg width="75" height="75" viewBox="0 0 75 75" fill="none" xmlns="http://www.w3.org/2000/svg">
<rect x="0.5" y="0.5" width="74" height="74" rx="29.5" stroke="#6FA4E9"/>
<path d="M56.0764 26.5127H19.4171C18.1798 26.5127 17.1768 27.5158 17.1768 28.7531V49.7092C17.1768 50.9465 18.1798 51.9496 19.4171 51.9496H56.0764C57.3137 51.9496 58.3168 50.9465 58.3168 49.7092V28.7531C58.3168 27.5158 57.3137 26.5127 56.0764 26.5127Z" fill="#6FA4E9"/>
<path d="M39.6147 20.2383H35.7444C35.1793 20.2383 34.7212 20.6964 34.7212 21.2615V29.5153C34.7212 30.0804 35.1793 30.5386 35.7444 30.5386H39.6147C40.1798 30.5386 40.638 30.0804 40.638 29.5153V21.2615C40.638 20.6964 40.1798 20.2383 39.6147 20.2383Z" fill="#6FA4E9"/>
<path d="M25.5253 33.416H50.3036C50.7997 33.4159 51.291 33.5136 51.7494 33.7034C52.2077 33.8932 52.6242 34.1715 52.975 34.5223C53.3258 34.873 53.604 35.2895 53.7938 35.7479C53.9837 36.2062 54.0813 36.6975 54.0812 37.1936V46.5942C54.0813 46.8461 54.0317 47.0956 53.9354 47.3284C53.839 47.5612 53.6977 47.7727 53.5195 47.9509C53.3414 48.129 53.1299 48.2703 52.8971 48.3667C52.6643 48.4631 52.4148 48.5126 52.1629 48.5125H22.489C22.2371 48.5125 21.9877 48.4629 21.755 48.3665C21.5223 48.2701 21.3108 48.1288 21.1327 47.9506C20.9547 47.7725 20.8134 47.561 20.7171 47.3282C20.6207 47.0955 20.5712 46.8461 20.5713 46.5942V38.3713C20.5715 37.0575 21.0935 35.7975 22.0225 34.8685C22.9515 33.9395 24.2114 33.4175 25.5253 33.4173V33.416Z" fill="#6FA4E9"/>
<path d="M51.2563 33.8877H23.5461C22.487 33.8877 21.6284 34.7463 21.6284 35.8054V44.9372C21.6284 45.9963 22.487 46.8549 23.5461 46.8549H51.2563C52.3154 46.8549 53.174 45.9963 53.174 44.9372V35.8054C53.174 34.7463 52.3154 33.8877 51.2563 33.8877Z" fill="white"/>
<path d="M40.7058 26.8418H56.0764C56.6707 26.8418 57.2408 27.0779 57.661 27.4982C58.0813 27.9185 58.3174 28.4885 58.3174 29.0828V50.0383C58.3174 50.6327 58.0813 51.2027 57.661 51.623C57.2408 52.0432 56.6707 52.2793 56.0764 52.2793H19.4178C18.8234 52.2793 18.2534 52.0432 17.8331 51.623C17.4129 51.2027 17.1768 50.6327 17.1768 50.0383V29.0828C17.1768 28.4885 17.4129 27.9185 17.8331 27.4982C18.2534 27.0779 18.8234 26.8418 19.4178 26.8418H34.7213" stroke="black" stroke-linecap="round" stroke-linejoin="round"/>
<path d="M51.2568 33.8877H23.5466C22.4875 33.8877 21.6289 34.7463 21.6289 35.8054V44.9372C21.6289 45.9963 22.4875 46.8549 23.5466 46.8549H51.2568C52.3159 46.8549 53.1745 45.9963 53.1745 44.9372V35.8054C53.1745 34.7463 52.3159 33.8877 51.2568 33.8877Z" stroke="black" stroke-linecap="round" stroke-linejoin="round"/>
<path d="M48.5228 38.3389H45.894V42.9393H48.5228" stroke="black" stroke-linecap="round" stroke-linejoin="round"/>
<path d="M45.894 40.6387H47.8656" stroke="black" stroke-linecap="round" stroke-linejoin="round"/>
<path d="M36.6932 42.9393L34.7216 38.3389L32.75 42.9393" stroke="black" stroke-linecap="round" stroke-linejoin="round"/>
<path d="M33.4072 41.8379H36.036" stroke="black" stroke-linecap="round" stroke-linejoin="round"/>
<path d="M26.835 42.9393V38.3389L30.121 42.9393V38.3389" stroke="black" stroke-linecap="round" stroke-linejoin="round"/>
<path d="M43.265 42.9393V38.3389L41.2934 42.2821L39.3218 38.3389V42.9393" stroke="black" stroke-linecap="round" stroke-linejoin="round"/>
<path d="M39.6826 20H35.8123C35.2472 20 34.7891 20.4581 34.7891 21.0233V29.277C34.7891 29.8422 35.2472 30.3003 35.8123 30.3003H39.6826C40.2477 30.3003 40.7058 29.8422 40.7058 29.277V21.0233C40.7058 20.4581 40.2477 20 39.6826 20Z" stroke="black" stroke-miterlimit="10"/>
</svg>
