<svg width="22" height="22" viewBox="0 0 22 22" fill="none" xmlns="http://www.w3.org/2000/svg">
<path d="M20.7838 0H1.075C0.789893 0 0.516462 0.113259 0.314861 0.314861C0.113259 0.516462 0 0.789893 0 1.075V2.0667C0 2.35181 0.113259 2.62524 0.314861 2.82684C0.516462 3.02845 0.789893 3.1417 1.075 3.1417H20.7838C21.0689 3.1417 21.3423 3.02845 21.5439 2.82684C21.7455 2.62524 21.8588 2.35181 21.8588 2.0667V1.075C21.8588 0.789893 21.7455 0.516462 21.5439 0.314861C21.3423 0.113259 21.0689 0 20.7838 0Z" fill="#6FA4E9"/>
<path d="M20.7838 18.8584H1.075C0.789893 18.8584 0.516462 18.9717 0.314861 19.1733C0.113259 19.3749 0 19.6483 0 19.9334V20.9251C0 21.2102 0.113259 21.4836 0.314861 21.6852C0.516462 21.8868 0.789893 22.0001 1.075 22.0001H20.7838C21.0689 22.0001 21.3423 21.8868 21.5439 21.6852C21.7455 21.4836 21.8588 21.2102 21.8588 20.9251V19.9334C21.8587 19.6483 21.7454 19.3749 21.5438 19.1734C21.3422 18.9718 21.0689 18.8585 20.7838 18.8584Z" fill="#6FA4E9"/>
<path d="M21.8592 13.6474C21.8592 13.3623 21.746 13.0888 21.5444 12.8872C21.3428 12.6856 21.0693 12.5724 20.7842 12.5724H8.53545C8.25034 12.5724 7.97691 12.6856 7.77531 12.8872C7.57371 13.0888 7.46045 13.3623 7.46045 13.6474V14.6391C7.46045 14.7802 7.48826 14.92 7.54228 15.0504C7.59631 15.1808 7.6755 15.2993 7.77533 15.3991C7.87516 15.4989 7.99367 15.5781 8.12409 15.6321C8.25451 15.6861 8.39429 15.7138 8.53545 15.7138H20.7842C21.0693 15.7138 21.3427 15.6006 21.5442 15.399C21.7458 15.1975 21.8591 14.9241 21.8592 14.6391V13.6474Z" fill="#6FA4E9"/>
<path d="M21.8592 7.39568C21.8592 7.11057 21.746 6.83714 21.5444 6.63554C21.3428 6.43394 21.0693 6.32068 20.7842 6.32068H8.53545C8.39428 6.32068 8.25449 6.34849 8.12406 6.40251C7.99364 6.45653 7.87513 6.53572 7.77531 6.63554C7.67549 6.73536 7.5963 6.85387 7.54228 6.9843C7.48825 7.11472 7.46045 7.25451 7.46045 7.39568V8.38738C7.46045 8.52854 7.48826 8.66831 7.54228 8.79872C7.59631 8.92913 7.6755 9.04761 7.77533 9.14741C7.87516 9.24721 7.99367 9.32636 8.12409 9.38035C8.25451 9.43434 8.39429 9.46211 8.53545 9.46207H20.7842C21.0693 9.46207 21.3427 9.34885 21.5442 9.14732C21.7458 8.94579 21.8591 8.67244 21.8592 8.38738V7.39568Z" fill="#6FA4E9"/>
<path d="M0.17922 13.4759C0.203115 13.4758 0.226761 13.471 0.248763 13.4617C0.270765 13.4524 0.290677 13.4387 0.307324 13.4216L4.22838 11.1577L4.22396 11.1501C4.25131 11.135 4.27415 11.1129 4.29017 11.0861C4.30619 11.0592 4.31481 11.0286 4.31515 10.9974C4.31511 10.9626 4.30495 10.9286 4.2859 10.8995C4.26684 10.8705 4.23973 10.8476 4.20787 10.8336L4.20976 10.8305L0.304799 8.57572C0.279935 8.55143 0.248532 8.5349 0.214429 8.52817C0.180325 8.52144 0.144999 8.52478 0.112767 8.5378C0.0805358 8.55082 0.0527954 8.57295 0.032937 8.60148C0.0130786 8.63001 0.00196209 8.66371 0.000946641 8.69846H2.78766e-07V13.2966C-4.12873e-05 13.3202 0.00456589 13.3435 0.0135578 13.3653C0.0225497 13.387 0.0357492 13.4068 0.0523996 13.4235C0.0690499 13.4401 0.0888233 13.4533 0.110586 13.4623C0.132349 13.4713 0.155673 13.4759 0.17922 13.4759Z" fill="#6FA4E9"/>
</svg>
