<svg width="26" height="26" viewBox="0 0 26 26" fill="none" xmlns="http://www.w3.org/2000/svg">
<path d="M16.2497 6.4999V1.62497C16.2497 0.731239 15.5185 0 14.6248 0H11.3748C10.4811 0 9.74985 0.731239 9.74985 1.62497V6.4999C9.74985 7.39364 10.4811 8.12487 11.3748 8.12487H14.6248C15.5185 8.12487 16.2497 7.39364 16.2497 6.4999ZM12.9998 1.62497C13.8935 1.62497 14.6248 2.35621 14.6248 3.24995C14.6248 4.14369 13.8935 4.87492 12.9998 4.87492C12.1061 4.87492 11.3748 4.14369 11.3748 3.24995C11.3748 2.35621 12.1061 1.62497 12.9998 1.62497ZM25.9996 22.7496V9.74985C25.9996 7.96238 24.5371 6.4999 22.7496 6.4999H17.8747V7.03614C17.8747 8.53112 16.656 9.74985 15.161 9.74985H10.8386C9.34361 9.74985 8.12487 8.53112 8.12487 7.03614V6.4999H3.24995C1.46248 6.4999 0 7.96238 0 9.74985V22.7496C0 24.5371 1.46248 25.9996 3.24995 25.9996H22.7496C24.5371 25.9996 25.9996 24.5371 25.9996 22.7496ZM24.3746 12.9998V22.7496H1.62497V12.9998H24.3746ZM11.3748 16.2497C11.3748 15.356 11.0173 14.6248 10.5623 14.6248C10.1073 14.6248 9.74985 15.356 9.74985 16.2497C9.74985 17.1435 10.1073 17.8747 10.5623 17.8747C11.0173 17.8747 11.3748 17.1435 11.3748 16.2497ZM16.2497 16.2497C16.2497 15.356 15.8923 14.6248 15.4373 14.6248C14.9823 14.6248 14.6248 15.356 14.6248 16.2497C14.6248 17.1435 14.9823 17.8747 15.4373 17.8747C15.8923 17.8747 16.2497 17.1435 16.2497 16.2497ZM6.5649 18.216C8.05988 18.996 10.3673 19.4997 12.9998 19.4997C15.6323 19.4997 17.9397 18.996 19.4347 18.216C19.0935 19.8409 16.3635 21.1247 12.9998 21.1247C9.6361 21.1247 6.90614 19.8409 6.5649 18.216Z" fill="#545762"/>
</svg>
