<svg width="26" height="23" viewBox="0 0 26 23" fill="none" xmlns="http://www.w3.org/2000/svg">
<path d="M1 4.38294H15.1719C15.3788 4.96763 15.7618 5.47382 16.2683 5.83183C16.7748 6.18985 17.3798 6.38208 18 6.38208C18.6202 6.38208 19.2252 6.18985 19.7317 5.83183C20.2382 5.47382 20.6212 4.96763 20.8281 4.38294H25C25.2652 4.38294 25.5196 4.27758 25.7071 4.09004C25.8946 3.90251 26 3.64815 26 3.38294C26 3.11772 25.8946 2.86336 25.7071 2.67583C25.5196 2.48829 25.2652 2.38294 25 2.38294H20.8281C20.6212 1.79824 20.2382 1.29205 19.7317 0.934038C19.2252 0.576025 18.6202 0.383789 18 0.383789C17.3798 0.383789 16.7748 0.576025 16.2683 0.934038C15.7618 1.29205 15.3788 1.79824 15.1719 2.38294H1C0.734784 2.38294 0.48043 2.48829 0.292893 2.67583C0.105357 2.86336 0 3.11772 0 3.38294C0 3.64815 0.105357 3.90251 0.292893 4.09004C0.48043 4.27758 0.734784 4.38294 1 4.38294Z" fill="#7B8794"/>
<path d="M25 18.3829H20.8281C20.6212 17.7982 20.2382 17.2921 19.7317 16.934C19.2252 16.576 18.6202 16.3838 18 16.3838C17.3798 16.3838 16.7748 16.576 16.2683 16.934C15.7618 17.2921 15.3788 17.7982 15.1719 18.3829H1C0.734784 18.3829 0.48043 18.4883 0.292893 18.6758C0.105357 18.8634 0 19.1177 0 19.3829C0 19.6482 0.105357 19.9025 0.292893 20.09C0.48043 20.2776 0.734784 20.3829 1 20.3829H15.1719C15.3788 20.9676 15.7618 21.4738 16.2683 21.8318C16.7748 22.1898 17.3798 22.3821 18 22.3821C18.6202 22.3821 19.2252 22.1898 19.7317 21.8318C20.2382 21.4738 20.6212 20.9676 20.8281 20.3829H25C25.2652 20.3829 25.5196 20.2776 25.7071 20.09C25.8946 19.9025 26 19.6482 26 19.3829C26 19.1177 25.8946 18.8634 25.7071 18.6758C25.5196 18.4883 25.2652 18.3829 25 18.3829Z" fill="#7B8794"/>
<path d="M25 10.3829H10.8281C10.6212 9.79824 10.2381 9.29205 9.73168 8.93404C9.22521 8.57602 8.62023 8.38379 8 8.38379C7.37977 8.38379 6.77479 8.57602 6.26832 8.93404C5.76185 9.29205 5.37879 9.79824 5.17188 10.3829H1C0.734784 10.3829 0.48043 10.4883 0.292893 10.6758C0.105357 10.8634 0 11.1177 0 11.3829C0 11.6482 0.105357 11.9025 0.292893 12.09C0.48043 12.2776 0.734784 12.3829 1 12.3829H5.17188C5.37879 12.9676 5.76185 13.4738 6.26832 13.8318C6.77479 14.1898 7.37977 14.3821 8 14.3821C8.62023 14.3821 9.22521 14.1898 9.73168 13.8318C10.2381 13.4738 10.6212 12.9676 10.8281 12.3829H25C25.2652 12.3829 25.5196 12.2776 25.7071 12.09C25.8946 11.9025 26 11.6482 26 11.3829C26 11.1177 25.8946 10.8634 25.7071 10.6758C25.5196 10.4883 25.2652 10.3829 25 10.3829Z" fill="#7B8794"/>
</svg>
