<svg width="35" height="35" viewBox="0 0 35 35" fill="none" xmlns="http://www.w3.org/2000/svg">
<path fill-rule="evenodd" clip-rule="evenodd" d="M17.3485 15.8616C16.2054 15.8616 15.2788 16.975 15.2788 18.3483C15.2788 19.7216 16.2054 20.835 17.3485 20.835C18.4916 20.835 19.4182 19.7216 19.4182 18.3483C19.4182 16.975 18.4916 15.8616 17.3485 15.8616Z" fill="#D0CECF"/>
<path fill-rule="evenodd" clip-rule="evenodd" d="M9.0697 15.8616C7.92664 15.8616 7 16.975 7 18.3483C7 19.7216 7.92664 20.835 9.0697 20.835C10.2128 20.835 11.1394 19.7216 11.1394 18.3483C11.1394 16.975 10.2128 15.8616 9.0697 15.8616Z" fill="#D0CECF"/>
<path fill-rule="evenodd" clip-rule="evenodd" d="M25.6273 15.8616C24.4842 15.8616 23.5576 16.975 23.5576 18.3483C23.5576 19.7216 24.4842 20.835 25.6273 20.835C26.7704 20.835 27.697 19.7216 27.697 18.3483C27.697 16.975 26.7704 15.8616 25.6273 15.8616Z" fill="#D0CECF"/>
</svg>
