<svg width="132" height="72" viewBox="0 0 132 72" fill="none" xmlns="http://www.w3.org/2000/svg">
<path d="M125.997 53.1844L76.5693 71.9998L83.8244 42.7314L125.997 53.1844Z" fill="#2A2833"/>
<path d="M6.57617 53.3521L125.997 53.1849L126.154 11.9584L6.57617 5.9375V53.3521Z" fill="#FED008"/>
<path d="M123.022 8.19506L67.0174 5.26823C66.913 5.26823 66.8086 5.10099 66.8086 4.85011C66.8086 4.68287 66.913 4.51562 67.0696 4.51562L123.074 7.44245C123.179 7.44245 123.283 7.6097 123.283 7.86057C123.231 8.02782 123.126 8.19506 123.022 8.19506Z" fill="black"/>
<path d="M75.1595 69.2405H75.0551C74.9507 69.1568 74.8985 68.9896 74.9507 68.7388L77.8736 56.6969L45.5652 56.6133C45.4608 56.6133 45.3564 56.4461 45.3564 56.2788C45.3564 56.1116 45.4608 55.9443 45.5652 55.9443L78.1867 56.1116C78.2389 56.1116 78.3433 56.1952 78.3955 56.2788C78.4477 56.3624 78.4477 56.5297 78.3955 56.6133L75.3682 69.1569C75.3682 69.1569 75.2638 69.2405 75.1595 69.2405Z" fill="black"/>
<path d="M114.045 61.7143C113.941 61.7143 113.836 61.6306 113.836 61.4634C113.784 61.2962 113.888 61.0453 113.993 61.0453L127.668 55.5261L127.772 35.5401C127.772 35.3728 127.876 35.2056 127.981 35.2056C128.085 35.2056 128.19 35.3728 128.19 35.5401L128.085 55.777C128.085 55.9442 128.033 56.1115 127.929 56.1115L114.045 61.6307V61.7143Z" fill="black"/>
<path d="M4.90605 56.7808C4.85385 56.7808 4.80166 56.7808 4.74946 56.6971C4.69727 56.6135 4.69727 56.5299 4.69727 56.4463V35.0386C4.69727 34.8714 4.80166 34.7041 4.90605 34.7041C5.01044 34.7041 5.11482 34.8714 5.11482 35.0386V56.1118L19.4161 55.9445C19.5205 55.9445 19.6249 56.1118 19.6249 56.279C19.6249 56.4463 19.5205 56.6135 19.4161 56.6135L4.90605 56.7808Z" fill="black"/>
<path d="M1.40925 10.7873C0.887303 10.7873 0.469755 11.4563 0.469755 12.2925C0.469755 13.1288 0.887303 13.7977 1.40925 13.7977C1.93119 13.7977 2.34875 13.1288 2.34875 12.2925C2.34875 11.4563 1.93119 10.7873 1.40925 10.7873ZM1.40925 14.5504C0.626331 14.5504 0 13.5469 0 12.2925C0 11.0382 0.626331 10.0347 1.40925 10.0347C2.19216 10.0347 2.8185 11.0382 2.8185 12.2925C2.8185 13.5469 2.19216 14.5504 1.40925 14.5504Z" fill="black"/>
<path d="M62.4766 0.669005C61.9547 0.669005 61.5371 1.33798 61.5371 2.17422C61.5371 3.01046 61.9547 3.67946 62.4766 3.67946C62.9986 3.67946 63.4161 3.01046 63.4161 2.17422C63.4161 1.33798 62.9986 0.669005 62.4766 0.669005ZM62.4766 4.5157C61.6937 4.5157 61.0674 3.51221 61.0674 2.25785C61.0674 1.00349 61.6937 0 62.4766 0C63.2595 0 63.8859 1.00349 63.8859 2.25785C63.8859 3.51221 63.2595 4.5157 62.4766 4.5157Z" fill="black"/>
<path d="M130.382 28.0137L131.53 29.1008V26.9266L130.382 28.0137ZM131.791 30.0207L131.687 29.937L129.86 28.2645C129.808 28.1809 129.756 28.0973 129.756 27.9301C129.756 27.7628 129.808 27.6792 129.86 27.5955L131.687 25.9231C131.739 25.8394 131.844 25.8394 131.896 25.9231C131.948 26.0067 132 26.0903 132 26.2576V29.6861C132 29.8534 131.948 29.937 131.896 30.0207H131.791Z" fill="black"/>
<path d="M30.8994 58.4531V60.6273L32.0477 59.5402L30.8994 58.4531ZM30.6385 61.5471L30.5341 61.4635C30.4819 61.3799 30.4297 61.2963 30.4297 61.129V57.7004C30.4297 57.5332 30.4819 57.4496 30.5341 57.3659C30.5863 57.2823 30.6907 57.2823 30.7429 57.3659L32.5697 59.0384C32.6219 59.122 32.674 59.2057 32.674 59.3729C32.674 59.5402 32.6219 59.6238 32.5697 59.7074L30.7429 61.3799L30.6385 61.5471Z" fill="black"/>
<path d="M119.474 4.9338L81.0066 2.67595C80.9022 2.67595 80.7979 2.5087 80.7979 2.25783C80.7979 2.09058 80.9022 1.92334 81.0588 1.92334L119.474 4.18116C119.578 4.18116 119.683 4.34841 119.683 4.59928C119.683 4.85015 119.578 4.9338 119.474 4.9338Z" fill="black"/>
<path d="M61.589 60.0418L39.2498 59.8745C39.1454 59.8745 39.041 59.7073 39.041 59.5401C39.041 59.3728 39.1454 59.2056 39.2498 59.2056L61.589 59.3728C61.6934 59.3728 61.7978 59.5401 61.7978 59.7073C61.7978 59.8746 61.6934 60.0418 61.589 60.0418Z" fill="black"/>
<path d="M29.3032 26H24.8613V18.1475H29.3032V19.2324H26.145V21.3701H29.1045V22.4443H26.145V24.9097H29.3032V26ZM34.5884 26L34.3359 25.1729H34.293C34.0065 25.5345 33.7183 25.7816 33.4282 25.9141C33.1382 26.043 32.7658 26.1074 32.311 26.1074C31.7274 26.1074 31.2708 25.9499 30.9414 25.6348C30.6156 25.3197 30.4526 24.8739 30.4526 24.2974C30.4526 23.6851 30.68 23.2231 31.1348 22.9116C31.5895 22.6001 32.2824 22.43 33.2134 22.4014L34.2393 22.3691V22.0522C34.2393 21.6727 34.1497 21.3898 33.9707 21.2036C33.7952 21.0138 33.5213 20.9189 33.1489 20.9189C32.8446 20.9189 32.5527 20.9637 32.2734 21.0532C31.9941 21.1427 31.7256 21.2484 31.4678 21.3701L31.0596 20.4678C31.3818 20.2995 31.7345 20.1724 32.1177 20.0864C32.5008 19.9969 32.8625 19.9521 33.2026 19.9521C33.9582 19.9521 34.5275 20.1169 34.9106 20.4463C35.2974 20.7757 35.4907 21.2931 35.4907 21.9985V26H34.5884ZM32.7085 25.1406C33.1668 25.1406 33.5339 25.0135 33.8096 24.7593C34.0889 24.5015 34.2285 24.1416 34.2285 23.6797V23.1641L33.4658 23.1963C32.8714 23.2178 32.4382 23.318 32.166 23.4971C31.8975 23.6725 31.7632 23.9429 31.7632 24.3081C31.7632 24.5731 31.842 24.779 31.9995 24.9258C32.1571 25.069 32.3934 25.1406 32.7085 25.1406ZM40.2656 19.9521C40.5199 19.9521 40.7293 19.9701 40.894 20.0059L40.7705 21.1821C40.5915 21.1392 40.4053 21.1177 40.2119 21.1177C39.707 21.1177 39.297 21.2824 38.9819 21.6118C38.6704 21.9412 38.5146 22.3691 38.5146 22.8955V26H37.2524V20.0596H38.2407L38.4072 21.1069H38.4717C38.6686 20.7524 38.9246 20.4714 39.2397 20.2637C39.5584 20.056 39.9004 19.9521 40.2656 19.9521ZM47.2266 26H45.959V22.3477C45.959 21.8893 45.8659 21.5474 45.6797 21.3218C45.4971 21.0962 45.2052 20.9834 44.8042 20.9834C44.2707 20.9834 43.8804 21.141 43.6333 21.4561C43.3862 21.7712 43.2627 22.2993 43.2627 23.0405V26H42.0005V20.0596H42.9888L43.166 20.8384H43.2305C43.4095 20.5555 43.6637 20.3371 43.9932 20.1831C44.3226 20.0291 44.6878 19.9521 45.0889 19.9521C46.514 19.9521 47.2266 20.6772 47.2266 22.1274V26ZM53.633 26L51.653 22.546V21.732H52.313C52.7017 21.732 53.028 21.6477 53.292 21.479C53.556 21.303 53.7247 21.061 53.798 20.753H51.653V19.939H53.787C53.721 19.6603 53.5853 19.4293 53.38 19.246C53.1747 19.0553 52.8887 18.96 52.522 18.96H51.653V18.146H56.614V18.96H54.887C55.1437 19.2387 55.305 19.565 55.371 19.939H56.614V20.753H55.393C55.3197 21.2957 55.1107 21.721 54.766 22.029C54.4213 22.3297 53.9777 22.535 53.435 22.645L55.591 26H53.633ZM63.1626 26H57.6733V24.8452L59.6445 22.8525C60.2282 22.2546 60.6095 21.841 60.7886 21.6118C60.9676 21.3791 61.0965 21.1642 61.1753 20.9673C61.2541 20.7703 61.2935 20.5662 61.2935 20.355C61.2935 20.0399 61.2057 19.8053 61.0303 19.6514C60.8584 19.4974 60.6274 19.4204 60.3374 19.4204C60.033 19.4204 59.7376 19.4902 59.4512 19.6299C59.1647 19.7695 58.8657 19.9683 58.5542 20.2261L57.6519 19.1572C58.0386 18.8278 58.359 18.5951 58.6133 18.459C58.8675 18.3229 59.145 18.2191 59.4458 18.1475C59.7466 18.0723 60.0832 18.0347 60.4556 18.0347C60.9461 18.0347 61.3794 18.1242 61.7554 18.3032C62.1313 18.4823 62.4232 18.7329 62.6309 19.0552C62.8385 19.3774 62.9424 19.7463 62.9424 20.1616C62.9424 20.5233 62.8779 20.8634 62.749 21.1821C62.6237 21.4972 62.4268 21.8213 62.1582 22.1543C61.8932 22.4873 61.4242 22.9618 60.751 23.5776L59.7412 24.5283V24.6035H63.1626V26ZM66.8149 20.9834C67.5741 20.9834 68.1774 21.1965 68.625 21.6226C69.0762 22.0487 69.3018 22.6323 69.3018 23.3735C69.3018 24.2508 69.0314 24.9258 68.4907 25.3984C67.95 25.8711 67.1766 26.1074 66.1704 26.1074C65.2967 26.1074 64.5913 25.966 64.0542 25.6831V24.249C64.3371 24.3994 64.6665 24.5229 65.0425 24.6196C65.4185 24.7127 65.7747 24.7593 66.1113 24.7593C67.1247 24.7593 67.6313 24.3439 67.6313 23.5132C67.6313 22.7218 67.1068 22.3262 66.0576 22.3262C65.8678 22.3262 65.6584 22.3459 65.4292 22.3853C65.2 22.4211 65.0138 22.4604 64.8706 22.5034L64.21 22.1489L64.5054 18.1475H68.7646V19.5547H65.9609L65.8159 21.0962L66.0039 21.0586C66.2223 21.0085 66.4927 20.9834 66.8149 20.9834ZM75.688 22.0737C75.688 23.4451 75.4624 24.4603 75.0112 25.1191C74.5636 25.778 73.8726 26.1074 72.938 26.1074C72.0321 26.1074 71.3481 25.7673 70.8862 25.0869C70.4279 24.4066 70.1987 23.4022 70.1987 22.0737C70.1987 20.688 70.4225 19.6675 70.8701 19.0122C71.3177 18.3534 72.007 18.0239 72.938 18.0239C73.8439 18.0239 74.5278 18.3677 74.9897 19.0552C75.4552 19.7427 75.688 20.7489 75.688 22.0737ZM71.8477 22.0737C71.8477 23.0369 71.93 23.728 72.0947 24.147C72.263 24.5623 72.5441 24.77 72.938 24.77C73.3247 24.77 73.604 24.5588 73.7759 24.1362C73.9478 23.7137 74.0337 23.0262 74.0337 22.0737C74.0337 21.1105 73.946 20.4194 73.7705 20.0005C73.5986 19.578 73.3211 19.3667 72.938 19.3667C72.5477 19.3667 72.2684 19.578 72.1001 20.0005C71.9318 20.4194 71.8477 21.1105 71.8477 22.0737ZM84.7168 26L83.9487 23.2285C83.8556 22.9349 83.6873 22.2528 83.4438 21.1821H83.3955C83.1878 22.1489 83.0231 22.8346 82.9014 23.2393L82.1118 26H80.7153L79.0503 20.0596H80.3394L81.0967 22.9868C81.2686 23.7101 81.3903 24.3296 81.4619 24.8452H81.4941C81.5299 24.5838 81.5837 24.2848 81.6553 23.9482C81.7305 23.6081 81.7949 23.3538 81.8486 23.1855L82.751 20.0596H84.1367L85.0122 23.1855C85.0659 23.361 85.1322 23.6296 85.2109 23.9912C85.2933 24.3529 85.3416 24.634 85.356 24.8345H85.3989C85.4526 24.394 85.578 23.7782 85.7749 22.9868L86.543 20.0596H87.8105L86.1348 26H84.7168ZM90.0986 26H88.8364V20.0596H90.0986V26ZM88.7612 18.4858C88.7612 18.2603 88.8221 18.0866 88.9438 17.9648C89.0692 17.8431 89.2464 17.7822 89.4756 17.7822C89.6976 17.7822 89.8695 17.8431 89.9912 17.9648C90.1165 18.0866 90.1792 18.2603 90.1792 18.4858C90.1792 18.7007 90.1165 18.8708 89.9912 18.9961C89.8695 19.1178 89.6976 19.1787 89.4756 19.1787C89.2464 19.1787 89.0692 19.1178 88.9438 18.9961C88.8221 18.8708 88.7612 18.7007 88.7612 18.4858ZM94.1216 25.0869C94.4295 25.0869 94.7375 25.0386 95.0454 24.9419V25.8926C94.9058 25.9535 94.7249 26.0036 94.5029 26.043C94.2845 26.0859 94.0571 26.1074 93.8208 26.1074C92.6248 26.1074 92.0269 25.4772 92.0269 24.2168V21.0156H91.2158V20.457L92.0859 19.9951L92.5156 18.7383H93.2944V20.0596H94.9863V21.0156H93.2944V24.1953C93.2944 24.4997 93.3696 24.7253 93.52 24.8721C93.674 25.0153 93.8745 25.0869 94.1216 25.0869ZM101.464 26H100.196V22.3477C100.196 21.8893 100.103 21.5474 99.917 21.3218C99.7344 21.0962 99.4425 20.9834 99.0415 20.9834C98.5116 20.9834 98.1213 21.1427 97.8706 21.4614C97.6235 21.7765 97.5 22.3065 97.5 23.0513V26H96.2378V17.6426H97.5V19.7642C97.5 20.1043 97.4785 20.4678 97.4355 20.8545H97.5161C97.688 20.568 97.9261 20.346 98.2305 20.1885C98.5384 20.0309 98.8965 19.9521 99.3047 19.9521C100.744 19.9521 101.464 20.6772 101.464 22.1274V26ZM12.4917 41.1074C11.5679 41.1074 10.8446 40.8389 10.3218 40.3018C9.80257 39.7611 9.54297 39.0181 9.54297 38.0728C9.54297 37.1024 9.78467 36.3397 10.2681 35.7847C10.7515 35.2297 11.4157 34.9521 12.2607 34.9521C13.0449 34.9521 13.6644 35.1903 14.1191 35.6665C14.5739 36.1427 14.8013 36.798 14.8013 37.6323V38.3145H10.8428C10.8607 38.891 11.0164 39.335 11.3101 39.6465C11.6037 39.9544 12.0173 40.1084 12.5508 40.1084C12.9017 40.1084 13.2275 40.0762 13.5283 40.0117C13.8327 39.9437 14.1585 39.8327 14.5059 39.6787V40.7046C14.1979 40.8514 13.8864 40.9552 13.5713 41.0161C13.2562 41.077 12.8963 41.1074 12.4917 41.1074ZM12.2607 35.9082C11.8597 35.9082 11.5374 36.0353 11.2939 36.2896C11.054 36.5438 10.9108 36.9144 10.8643 37.4014H13.5605C13.5534 36.9108 13.4352 36.5402 13.2061 36.2896C12.9769 36.0353 12.6618 35.9082 12.2607 35.9082ZM17.5889 41L15.333 35.0596H16.665L17.8735 38.5132C18.0812 39.0933 18.2065 39.5623 18.2495 39.9204H18.2925C18.3247 39.6626 18.45 39.1935 18.6685 38.5132L19.877 35.0596H21.2197L18.9531 41H17.5889ZM24.7163 41.1074C23.7925 41.1074 23.0692 40.8389 22.5464 40.3018C22.0272 39.7611 21.7676 39.0181 21.7676 38.0728C21.7676 37.1024 22.0093 36.3397 22.4927 35.7847C22.9761 35.2297 23.6403 34.9521 24.4854 34.9521C25.2695 34.9521 25.889 35.1903 26.3438 35.6665C26.7985 36.1427 27.0259 36.798 27.0259 37.6323V38.3145H23.0674C23.0853 38.891 23.241 39.335 23.5347 39.6465C23.8283 39.9544 24.2419 40.1084 24.7754 40.1084C25.1263 40.1084 25.4521 40.0762 25.7529 40.0117C26.0573 39.9437 26.3831 39.8327 26.7305 39.6787V40.7046C26.4225 40.8514 26.111 40.9552 25.7959 41.0161C25.4808 41.077 25.1209 41.1074 24.7163 41.1074ZM24.4854 35.9082C24.0843 35.9082 23.762 36.0353 23.5186 36.2896C23.2786 36.5438 23.1354 36.9144 23.0889 37.4014H25.7852C25.778 36.9108 25.6598 36.5402 25.4307 36.2896C25.2015 36.0353 24.8864 35.9082 24.4854 35.9082ZM31.4731 34.9521C31.7274 34.9521 31.9368 34.9701 32.1016 35.0059L31.978 36.1821C31.799 36.1392 31.6128 36.1177 31.4194 36.1177C30.9146 36.1177 30.5046 36.2824 30.1895 36.6118C29.8779 36.9412 29.7222 37.3691 29.7222 37.8955V41H28.46V35.0596H29.4482L29.6147 36.1069H29.6792C29.8761 35.7524 30.1322 35.4714 30.4473 35.2637C30.766 35.056 31.1079 34.9521 31.4731 34.9521ZM32.3057 35.0596H33.6807L34.8892 38.4272C35.0718 38.9071 35.1935 39.3582 35.2544 39.7808H35.2974C35.3296 39.5838 35.3887 39.3457 35.4746 39.0664C35.5605 38.7835 36.0153 37.4479 36.8389 35.0596H38.2031L35.6626 41.7896C35.2007 43.0249 34.4308 43.6426 33.353 43.6426C33.0737 43.6426 32.8016 43.6121 32.5366 43.5513V42.5522C32.7264 42.5952 32.943 42.6167 33.1865 42.6167C33.7952 42.6167 34.2231 42.264 34.4702 41.5586L34.6904 41L32.3057 35.0596ZM45.9536 39.3081C45.9536 39.8882 45.7424 40.334 45.3198 40.6455C44.8973 40.9535 44.2922 41.1074 43.5044 41.1074C42.7131 41.1074 42.0775 40.9875 41.5977 40.7476V39.6572C42.2959 39.9795 42.9458 40.1406 43.5474 40.1406C44.3244 40.1406 44.7129 39.9061 44.7129 39.437C44.7129 39.2866 44.6699 39.1613 44.584 39.061C44.498 38.9608 44.3566 38.8569 44.1597 38.7495C43.9627 38.6421 43.6888 38.5203 43.3379 38.3843C42.654 38.1193 42.1903 37.8543 41.9468 37.5894C41.7069 37.3244 41.5869 36.9806 41.5869 36.5581C41.5869 36.0496 41.791 35.6558 42.1992 35.3765C42.611 35.0936 43.1696 34.9521 43.875 34.9521C44.5732 34.9521 45.2339 35.0936 45.8569 35.3765L45.4487 36.3271C44.8078 36.0622 44.2689 35.9297 43.832 35.9297C43.166 35.9297 42.833 36.1195 42.833 36.499C42.833 36.6852 42.9189 36.8428 43.0908 36.9717C43.2663 37.1006 43.6458 37.2778 44.2295 37.5034C44.7201 37.6932 45.0763 37.8669 45.2983 38.0244C45.5203 38.182 45.6851 38.3646 45.7925 38.5723C45.8999 38.7764 45.9536 39.0216 45.9536 39.3081ZM49.9175 41.1074C48.9937 41.1074 48.2703 40.8389 47.7476 40.3018C47.2284 39.7611 46.9688 39.0181 46.9688 38.0728C46.9688 37.1024 47.2104 36.3397 47.6938 35.7847C48.1772 35.2297 48.8415 34.9521 49.6865 34.9521C50.4707 34.9521 51.0902 35.1903 51.5449 35.6665C51.9997 36.1427 52.2271 36.798 52.2271 37.6323V38.3145H48.2686C48.2865 38.891 48.4422 39.335 48.7358 39.6465C49.0295 39.9544 49.443 40.1084 49.9766 40.1084C50.3275 40.1084 50.6533 40.0762 50.9541 40.0117C51.2585 39.9437 51.5843 39.8327 51.9316 39.6787V40.7046C51.6237 40.8514 51.3122 40.9552 50.9971 41.0161C50.682 41.077 50.3221 41.1074 49.9175 41.1074ZM49.6865 35.9082C49.2855 35.9082 48.9632 36.0353 48.7197 36.2896C48.4798 36.5438 48.3366 36.9144 48.29 37.4014H50.9863C50.9792 36.9108 50.861 36.5402 50.6318 36.2896C50.4027 36.0353 50.0876 35.9082 49.6865 35.9082ZM55.874 40.0869C56.182 40.0869 56.4899 40.0386 56.7979 39.9419V40.8926C56.6582 40.9535 56.4774 41.0036 56.2554 41.043C56.0369 41.0859 55.8096 41.1074 55.5732 41.1074C54.3773 41.1074 53.7793 40.4772 53.7793 39.2168V36.0156H52.9683V35.457L53.8384 34.9951L54.2681 33.7383H55.0469V35.0596H56.7388V36.0156H55.0469V39.1953C55.0469 39.4997 55.1221 39.7253 55.2725 39.8721C55.4264 40.0153 55.627 40.0869 55.874 40.0869ZM63.2432 41.1074C62.3444 41.1074 61.6605 40.846 61.1914 40.3232C60.7259 39.7969 60.4932 39.0431 60.4932 38.062C60.4932 37.063 60.7367 36.2949 61.2236 35.7578C61.7142 35.2207 62.4214 34.9521 63.3452 34.9521C63.9718 34.9521 64.5358 35.0685 65.0371 35.3013L64.6558 36.3164C64.1222 36.1087 63.6818 36.0049 63.3345 36.0049C62.3068 36.0049 61.793 36.687 61.793 38.0513C61.793 38.7173 61.9201 39.2186 62.1743 39.5552C62.4321 39.8882 62.8081 40.0547 63.3022 40.0547C63.8644 40.0547 64.3962 39.915 64.8975 39.6357V40.7368C64.6719 40.8693 64.4302 40.9642 64.1724 41.0215C63.9181 41.0788 63.6084 41.1074 63.2432 41.1074ZM71.563 38.019C71.563 38.9894 71.3141 39.7467 70.8164 40.291C70.3187 40.8353 69.6258 41.1074 68.7378 41.1074C68.1828 41.1074 67.6922 40.9821 67.2661 40.7314C66.84 40.4808 66.5124 40.1209 66.2832 39.6519C66.054 39.1828 65.9395 38.6385 65.9395 38.019C65.9395 37.0558 66.1865 36.3039 66.6807 35.7632C67.1748 35.2225 67.8713 34.9521 68.77 34.9521C69.6294 34.9521 70.3097 35.2297 70.811 35.7847C71.3123 36.3361 71.563 37.0809 71.563 38.019ZM67.2393 38.019C67.2393 39.3905 67.7459 40.0762 68.7593 40.0762C69.7619 40.0762 70.2632 39.3905 70.2632 38.019C70.2632 36.6619 69.7583 35.9834 68.7485 35.9834C68.2186 35.9834 67.8337 36.1589 67.5938 36.5098C67.3574 36.8607 67.2393 37.3638 67.2393 38.019ZM78.0244 41H76.7568V37.3369C76.7568 36.8822 76.6709 36.5438 76.499 36.3218C76.3271 36.0962 76.0586 35.9834 75.6934 35.9834C75.2064 35.9834 74.8483 36.1427 74.6191 36.4614C74.3936 36.7765 74.2808 37.3029 74.2808 38.0405V41H73.0186V35.0596H74.0068L74.1841 35.8384H74.2485C74.4132 35.5555 74.6514 35.3371 74.9629 35.1831C75.278 35.0291 75.6235 34.9521 75.9995 34.9521C76.9126 34.9521 77.5177 35.2637 77.8149 35.8867H77.9009C78.0763 35.5931 78.3234 35.3639 78.6421 35.1992C78.9608 35.0345 79.326 34.9521 79.7378 34.9521C80.4468 34.9521 80.9624 35.1312 81.2847 35.4893C81.6105 35.8473 81.7734 36.3934 81.7734 37.1274V41H80.5112V37.3369C80.5112 36.8822 80.4235 36.5438 80.248 36.3218C80.0762 36.0962 79.8076 35.9834 79.4424 35.9834C78.9518 35.9834 78.592 36.1374 78.3628 36.4453C78.1372 36.7497 78.0244 37.2188 78.0244 37.8525V41ZM86.5483 41.1074C85.7964 41.1074 85.2127 40.8371 84.7974 40.2964H84.7222C84.7723 40.7977 84.7974 41.1021 84.7974 41.2095V43.6426H83.5352V35.0596H84.5557C84.5843 35.1706 84.6434 35.4355 84.7329 35.8545H84.7974C85.1912 35.2529 85.7821 34.9521 86.5698 34.9521C87.311 34.9521 87.8875 35.2207 88.2993 35.7578C88.7147 36.2949 88.9224 37.0487 88.9224 38.019C88.9224 38.9894 88.7111 39.7467 88.2886 40.291C87.8696 40.8353 87.2896 41.1074 86.5483 41.1074ZM86.2422 35.9834C85.7409 35.9834 85.3739 36.1302 85.1411 36.4238C84.9119 36.7174 84.7974 37.1865 84.7974 37.8311V38.019C84.7974 38.7424 84.9119 39.2669 85.1411 39.5928C85.3703 39.915 85.7445 40.0762 86.2637 40.0762C86.7005 40.0762 87.0371 39.8971 87.2734 39.5391C87.5098 39.181 87.6279 38.6707 87.6279 38.0083C87.6279 37.3423 87.5098 36.8392 87.2734 36.499C87.0407 36.1553 86.6969 35.9834 86.2422 35.9834ZM91.6509 41H90.3887V32.6426H91.6509V41ZM96.0552 41.1074C95.1313 41.1074 94.408 40.8389 93.8853 40.3018C93.366 39.7611 93.1064 39.0181 93.1064 38.0728C93.1064 37.1024 93.3481 36.3397 93.8315 35.7847C94.3149 35.2297 94.9792 34.9521 95.8242 34.9521C96.6084 34.9521 97.2279 35.1903 97.6826 35.6665C98.1374 36.1427 98.3647 36.798 98.3647 37.6323V38.3145H94.4062C94.4242 38.891 94.5799 39.335 94.8735 39.6465C95.1672 39.9544 95.5807 40.1084 96.1143 40.1084C96.4652 40.1084 96.791 40.0762 97.0918 40.0117C97.3962 39.9437 97.722 39.8327 98.0693 39.6787V40.7046C97.7614 40.8514 97.4499 40.9552 97.1348 41.0161C96.8197 41.077 96.4598 41.1074 96.0552 41.1074ZM95.8242 35.9082C95.4232 35.9082 95.1009 36.0353 94.8574 36.2896C94.6175 36.5438 94.4743 36.9144 94.4277 37.4014H97.124C97.1169 36.9108 96.9987 36.5402 96.7695 36.2896C96.5404 36.0353 96.2253 35.9082 95.8242 35.9082ZM102.012 40.0869C102.32 40.0869 102.628 40.0386 102.936 39.9419V40.8926C102.796 40.9535 102.615 41.0036 102.393 41.043C102.175 41.0859 101.947 41.1074 101.711 41.1074C100.515 41.1074 99.917 40.4772 99.917 39.2168V36.0156H99.106V35.457L99.9761 34.9951L100.406 33.7383H101.185V35.0596H102.876V36.0156H101.185V39.1953C101.185 39.4997 101.26 39.7253 101.41 39.8721C101.564 40.0153 101.765 40.0869 102.012 40.0869ZM105.39 41H104.128V35.0596H105.39V41ZM104.053 33.4858C104.053 33.2603 104.114 33.0866 104.235 32.9648C104.361 32.8431 104.538 32.7822 104.767 32.7822C104.989 32.7822 105.161 32.8431 105.283 32.9648C105.408 33.0866 105.471 33.2603 105.471 33.4858C105.471 33.7007 105.408 33.8708 105.283 33.9961C105.161 34.1178 104.989 34.1787 104.767 34.1787C104.538 34.1787 104.361 34.1178 104.235 33.9961C104.114 33.8708 104.053 33.7007 104.053 33.4858ZM112.469 38.019C112.469 38.9894 112.22 39.7467 111.723 40.291C111.225 40.8353 110.532 41.1074 109.644 41.1074C109.089 41.1074 108.598 40.9821 108.172 40.7314C107.746 40.4808 107.419 40.1209 107.189 39.6519C106.96 39.1828 106.846 38.6385 106.846 38.019C106.846 37.0558 107.093 36.3039 107.587 35.7632C108.081 35.2225 108.778 34.9521 109.676 34.9521C110.536 34.9521 111.216 35.2297 111.717 35.7847C112.219 36.3361 112.469 37.0809 112.469 38.019ZM108.146 38.019C108.146 39.3905 108.652 40.0762 109.666 40.0762C110.668 40.0762 111.169 39.3905 111.169 38.019C111.169 36.6619 110.665 35.9834 109.655 35.9834C109.125 35.9834 108.74 36.1589 108.5 36.5098C108.264 36.8607 108.146 37.3638 108.146 38.019ZM119.151 41H117.883V37.3477C117.883 36.8893 117.79 36.5474 117.604 36.3218C117.421 36.0962 117.13 35.9834 116.729 35.9834C116.195 35.9834 115.805 36.141 115.558 36.4561C115.311 36.7712 115.187 37.2993 115.187 38.0405V41H113.925V35.0596H114.913L115.09 35.8384H115.155C115.334 35.5555 115.588 35.3371 115.917 35.1831C116.247 35.0291 116.612 34.9521 117.013 34.9521C118.438 34.9521 119.151 35.6772 119.151 37.1274V41Z" fill="#123868"/>
</svg>
