<svg width="139" height="71" viewBox="0 0 139 71" fill="none" xmlns="http://www.w3.org/2000/svg">
<path d="M6.32129 52.4677L58.3157 71.0002L50.6759 42.1719L6.32129 52.4677Z" fill="#EF3F67"/>
<path d="M132.075 52.6324L6.32114 52.4677L6.15625 11.8609L132.075 5.84814V52.6324Z" fill="#3DC1CD"/>
<path d="M9.45324 8.07188C9.34332 8.07188 9.2334 7.90715 9.2334 7.74242C9.2334 7.57769 9.34332 7.41295 9.45324 7.33059L68.4278 4.44775C68.5927 4.44775 68.6477 4.61248 68.7026 4.77722C68.7026 4.94195 68.5927 5.10668 68.4828 5.18905L9.45324 8.07188Z" fill="black"/>
<path d="M59.8003 68.1995C59.6903 68.1995 59.6354 68.1171 59.5804 67.9524L56.3926 55.5974C56.3376 55.5151 56.3926 55.3503 56.3926 55.2679C56.4476 55.1856 56.5025 55.1032 56.6124 55.1032L90.9639 54.9385C91.0738 54.9385 91.1838 55.1032 91.1838 55.2679C91.1838 55.4327 91.0738 55.5974 90.9639 55.5974L56.9422 55.7621L60.0201 67.6229C60.0751 67.7877 60.0201 68.0348 59.8552 68.1171L59.8003 68.1995Z" fill="black"/>
<path d="M18.8511 60.7866H18.7962L4.17618 55.3504C4.06625 55.3504 4.0113 55.1857 4.0113 55.021L3.90137 35.0883C3.90137 34.9235 4.0113 34.7588 4.12122 34.7588C4.23115 34.7588 4.34107 34.9235 4.34107 35.0883L4.45099 54.7739L18.8511 60.2101C18.9611 60.2924 19.071 60.4572 19.016 60.6219C19.071 60.7043 18.9611 60.7866 18.8511 60.7866Z" fill="black"/>
<path d="M133.834 55.9269L118.499 55.7622C118.389 55.7622 118.279 55.5974 118.279 55.4327C118.279 55.268 118.389 55.1032 118.499 55.1032L133.559 55.268V34.5116C133.559 34.3469 133.669 34.1821 133.779 34.1821C133.889 34.1821 133.999 34.3469 133.999 34.5116V55.5974C133.999 55.6798 133.999 55.7622 133.944 55.8445C133.944 55.9269 133.889 55.9269 133.834 55.9269Z" fill="black"/>
<path d="M137.516 10.6251C136.967 10.6251 136.527 11.284 136.527 12.1077C136.527 12.9313 136.967 13.5903 137.516 13.5903C138.066 13.5903 138.506 12.9313 138.506 12.1077C138.506 11.284 138.066 10.6251 137.516 10.6251ZM137.516 14.3316C136.692 14.3316 136.032 13.3432 136.032 12.1077C136.032 10.8722 136.692 9.88379 137.516 9.88379C138.341 9.88379 139 10.8722 139 12.1077C139 13.3432 138.341 14.3316 137.516 14.3316Z" fill="black"/>
<path d="M73.2096 0.658923C72.66 0.658923 72.2203 1.31785 72.2203 2.14151C72.2203 2.96518 72.66 3.62413 73.2096 3.62413C73.7592 3.62413 74.1989 2.96518 74.1989 2.14151C74.1989 1.40021 73.7592 0.658923 73.2096 0.658923ZM73.2096 4.44779C72.3851 4.44779 71.7256 3.45938 71.7256 2.22388C71.7256 0.988384 72.3851 0 73.2096 0C74.034 0 74.6936 0.988384 74.6936 2.22388C74.6936 3.45938 74.034 4.44779 73.2096 4.44779Z" fill="black"/>
<path d="M0.4397 26.5218V28.6634L1.64887 27.5926L0.4397 26.5218ZM0.219846 29.6518L0.109923 29.5694C0.0549607 29.487 0 29.4047 0 29.24V25.8629C0 25.6982 0.0549607 25.6158 0.109923 25.5335C0.164885 25.4511 0.274807 25.4511 0.329769 25.5335L2.25345 27.1808C2.30841 27.2632 2.36338 27.3455 2.36338 27.5102C2.36338 27.675 2.30841 27.7573 2.25345 27.8397L0.329769 29.487L0.219846 29.6518Z" fill="black"/>
<path d="M105.254 58.6449L106.463 59.7156V57.5741L105.254 58.6449ZM106.683 60.6217L106.573 60.5393L104.649 58.892C104.594 58.8096 104.539 58.7272 104.539 58.5625C104.539 58.3978 104.594 58.3154 104.649 58.233L106.573 56.5857C106.628 56.5033 106.738 56.5033 106.793 56.5857C106.847 56.6681 106.902 56.7504 106.902 56.9152V60.2922C106.902 60.4569 106.847 60.5393 106.793 60.6217H106.683Z" fill="black"/>
<path d="M13.1906 4.94177C13.0806 4.94177 12.9707 4.77701 12.9707 4.61228C12.9707 4.44755 13.0806 4.28281 13.1906 4.20045L53.6428 1.97656C53.7528 1.97656 53.8627 2.14129 53.9176 2.30602C53.9176 2.47076 53.8077 2.63549 53.6978 2.71786L13.1906 4.94177Z" fill="black"/>
<path d="M74.1447 59.2216C74.0347 59.2216 73.9248 59.0569 73.9248 58.8922C73.9248 58.7274 74.0347 58.5627 74.1447 58.5627L97.6685 58.3979C97.7785 58.3979 97.8884 58.5627 97.8884 58.7274C97.8884 58.8921 97.7785 59.0569 97.6685 59.0569L74.1447 59.2216Z" fill="black"/>
<path d="M19.4785 29H15.0366V21.1475H19.4785V22.2324H16.3203V24.3701H19.2798V25.4443H16.3203V27.9097H19.4785V29ZM24.7637 29L24.5112 28.1729H24.4683C24.1818 28.5345 23.8936 28.7816 23.6035 28.9141C23.3135 29.043 22.9411 29.1074 22.4863 29.1074C21.9027 29.1074 21.4461 28.9499 21.1167 28.6348C20.7909 28.3197 20.6279 27.8739 20.6279 27.2974C20.6279 26.6851 20.8553 26.2231 21.3101 25.9116C21.7648 25.6001 22.4577 25.43 23.3887 25.4014L24.4146 25.3691V25.0522C24.4146 24.6727 24.325 24.3898 24.146 24.2036C23.9705 24.0138 23.6966 23.9189 23.3242 23.9189C23.0199 23.9189 22.728 23.9637 22.4487 24.0532C22.1694 24.1427 21.9009 24.2484 21.6431 24.3701L21.2349 23.4678C21.5571 23.2995 21.9098 23.1724 22.293 23.0864C22.6761 22.9969 23.0378 22.9521 23.3779 22.9521C24.1335 22.9521 24.7028 23.1169 25.0859 23.4463C25.4727 23.7757 25.666 24.2931 25.666 24.9985V29H24.7637ZM22.8838 28.1406C23.3421 28.1406 23.7091 28.0135 23.9849 27.7593C24.2642 27.5015 24.4038 27.1416 24.4038 26.6797V26.1641L23.6411 26.1963C23.0467 26.2178 22.6134 26.318 22.3413 26.4971C22.0728 26.6725 21.9385 26.9429 21.9385 27.3081C21.9385 27.5731 22.0173 27.779 22.1748 27.9258C22.3324 28.069 22.5687 28.1406 22.8838 28.1406ZM30.4409 22.9521C30.6951 22.9521 30.9046 22.9701 31.0693 23.0059L30.9458 24.1821C30.7668 24.1392 30.5806 24.1177 30.3872 24.1177C29.8823 24.1177 29.4723 24.2824 29.1572 24.6118C28.8457 24.9412 28.6899 25.3691 28.6899 25.8955V29H27.4277V23.0596H28.416L28.5825 24.1069H28.647C28.8439 23.7524 29.0999 23.4714 29.415 23.2637C29.7337 23.056 30.0757 22.9521 30.4409 22.9521ZM37.4019 29H36.1343V25.3477C36.1343 24.8893 36.0412 24.5474 35.855 24.3218C35.6724 24.0962 35.3805 23.9834 34.9795 23.9834C34.446 23.9834 34.0557 24.141 33.8086 24.4561C33.5615 24.7712 33.438 25.2993 33.438 26.0405V29H32.1758V23.0596H33.1641L33.3413 23.8384H33.4058C33.5848 23.5555 33.839 23.3371 34.1685 23.1831C34.4979 23.0291 34.8631 22.9521 35.2642 22.9521C36.6893 22.9521 37.4019 23.6772 37.4019 25.1274V29ZM44.2983 29L41.9583 24.918V23.956H42.7383C43.1976 23.956 43.5833 23.8563 43.8953 23.657C44.2073 23.449 44.4066 23.163 44.4933 22.799H41.9583V21.837H44.4803C44.4023 21.5077 44.2419 21.2347 43.9993 21.018C43.7566 20.7927 43.4186 20.68 42.9853 20.68H41.9583V19.718H47.8213V20.68H45.7803C46.0836 21.0093 46.2743 21.395 46.3523 21.837H47.8213V22.799H46.3783C46.2916 23.4403 46.0446 23.943 45.6373 24.307C45.2299 24.6623 44.7056 24.905 44.0643 25.035L46.6123 29H44.2983ZM52.4502 23.0713C53.3473 23.0713 54.0604 23.3231 54.5894 23.8267C55.1226 24.3302 55.3892 25.02 55.3892 25.896C55.3892 26.9328 55.0697 27.7305 54.4307 28.2891C53.7917 28.8477 52.8776 29.127 51.6885 29.127C50.6559 29.127 49.8223 28.9598 49.1875 28.6255V26.9307C49.5218 27.1084 49.9111 27.2544 50.3555 27.3687C50.7998 27.4787 51.2209 27.5337 51.6187 27.5337C52.8162 27.5337 53.415 27.0428 53.415 26.061C53.415 25.1258 52.7951 24.6582 51.5552 24.6582C51.3309 24.6582 51.0833 24.6815 50.8125 24.728C50.5417 24.7703 50.3216 24.8169 50.1523 24.8677L49.3716 24.4487L49.7207 19.7197H54.7544V21.3828H51.4409L51.2695 23.2046L51.4917 23.1602C51.7498 23.1009 52.0693 23.0713 52.4502 23.0713ZM62.9365 24.3599C62.9365 25.9806 62.6699 27.1803 62.1367 27.959C61.6077 28.7376 60.791 29.127 59.6865 29.127C58.6159 29.127 57.8076 28.7249 57.2617 27.9209C56.7201 27.1169 56.4492 25.9299 56.4492 24.3599C56.4492 22.7222 56.7137 21.5161 57.2427 20.7417C57.7716 19.9631 58.5863 19.5737 59.6865 19.5737C60.7572 19.5737 61.5654 19.98 62.1113 20.7925C62.6615 21.605 62.9365 22.7941 62.9365 24.3599ZM58.3979 24.3599C58.3979 25.4982 58.4953 26.3149 58.6899 26.8101C58.8888 27.3009 59.221 27.5464 59.6865 27.5464C60.1436 27.5464 60.4736 27.2967 60.6768 26.7974C60.8799 26.298 60.9814 25.4855 60.9814 24.3599C60.9814 23.2215 60.8778 22.4048 60.6704 21.9097C60.4673 21.4103 60.1393 21.1606 59.6865 21.1606C59.2253 21.1606 58.8952 21.4103 58.6963 21.9097C58.4974 22.4048 58.3979 23.2215 58.3979 24.3599ZM72.0376 29L71.2695 26.2285C71.1764 25.9349 71.0081 25.2528 70.7646 24.1821H70.7163C70.5086 25.1489 70.3439 25.8346 70.2222 26.2393L69.4326 29H68.0361L66.3711 23.0596H67.6602L68.4175 25.9868C68.5894 26.7101 68.7111 27.3296 68.7827 27.8452H68.8149C68.8507 27.5838 68.9045 27.2848 68.9761 26.9482C69.0513 26.6081 69.1157 26.3538 69.1694 26.1855L70.0718 23.0596H71.4575L72.333 26.1855C72.3867 26.361 72.453 26.6296 72.5317 26.9912C72.6141 27.3529 72.6624 27.634 72.6768 27.8345H72.7197C72.7734 27.394 72.8988 26.7782 73.0957 25.9868L73.8638 23.0596H75.1313L73.4556 29H72.0376ZM77.4194 29H76.1572V23.0596H77.4194V29ZM76.082 21.4858C76.082 21.2603 76.1429 21.0866 76.2646 20.9648C76.39 20.8431 76.5672 20.7822 76.7964 20.7822C77.0184 20.7822 77.1903 20.8431 77.312 20.9648C77.4373 21.0866 77.5 21.2603 77.5 21.4858C77.5 21.7007 77.4373 21.8708 77.312 21.9961C77.1903 22.1178 77.0184 22.1787 76.7964 22.1787C76.5672 22.1787 76.39 22.1178 76.2646 21.9961C76.1429 21.8708 76.082 21.7007 76.082 21.4858ZM81.4424 28.0869C81.7503 28.0869 82.0583 28.0386 82.3662 27.9419V28.8926C82.2266 28.9535 82.0457 29.0036 81.8237 29.043C81.6053 29.0859 81.3779 29.1074 81.1416 29.1074C79.9456 29.1074 79.3477 28.4772 79.3477 27.2168V24.0156H78.5366V23.457L79.4067 22.9951L79.8364 21.7383H80.6152V23.0596H82.3071V24.0156H80.6152V27.1953C80.6152 27.4997 80.6904 27.7253 80.8408 27.8721C80.9948 28.0153 81.1953 28.0869 81.4424 28.0869ZM88.7847 29H87.5171V25.3477C87.5171 24.8893 87.424 24.5474 87.2378 24.3218C87.0552 24.0962 86.7633 23.9834 86.3623 23.9834C85.8324 23.9834 85.4421 24.1427 85.1914 24.4614C84.9443 24.7765 84.8208 25.3065 84.8208 26.0513V29H83.5586V20.6426H84.8208V22.7642C84.8208 23.1043 84.7993 23.4678 84.7563 23.8545H84.8369C85.0088 23.568 85.2469 23.346 85.5513 23.1885C85.8592 23.0309 86.2173 22.9521 86.6255 22.9521C88.0649 22.9521 88.7847 23.6772 88.7847 25.1274V29ZM95.9927 29.1074C95.0688 29.1074 94.3455 28.8389 93.8228 28.3018C93.3035 27.7611 93.0439 27.0181 93.0439 26.0728C93.0439 25.1024 93.2856 24.3397 93.769 23.7847C94.2524 23.2297 94.9167 22.9521 95.7617 22.9521C96.5459 22.9521 97.1654 23.1903 97.6201 23.6665C98.0749 24.1427 98.3022 24.798 98.3022 25.6323V26.3145H94.3438C94.3617 26.891 94.5174 27.335 94.811 27.6465C95.1047 27.9544 95.5182 28.1084 96.0518 28.1084C96.4027 28.1084 96.7285 28.0762 97.0293 28.0117C97.3337 27.9437 97.6595 27.8327 98.0068 27.6787V28.7046C97.6989 28.8514 97.3874 28.9552 97.0723 29.0161C96.7572 29.077 96.3973 29.1074 95.9927 29.1074ZM95.7617 23.9082C95.3607 23.9082 95.0384 24.0353 94.7949 24.2896C94.555 24.5438 94.4118 24.9144 94.3652 25.4014H97.0615C97.0544 24.9108 96.9362 24.5402 96.707 24.2896C96.4779 24.0353 96.1628 23.9082 95.7617 23.9082ZM101.09 29L98.834 23.0596H100.166L101.375 26.5132C101.582 27.0933 101.708 27.5623 101.75 27.9204H101.793C101.826 27.6626 101.951 27.1935 102.169 26.5132L103.378 23.0596H104.721L102.454 29H101.09ZM108.217 29.1074C107.293 29.1074 106.57 28.8389 106.047 28.3018C105.528 27.7611 105.269 27.0181 105.269 26.0728C105.269 25.1024 105.51 24.3397 105.994 23.7847C106.477 23.2297 107.141 22.9521 107.986 22.9521C108.771 22.9521 109.39 23.1903 109.845 23.6665C110.299 24.1427 110.527 24.798 110.527 25.6323V26.3145H106.568C106.586 26.891 106.742 27.335 107.036 27.6465C107.329 27.9544 107.743 28.1084 108.276 28.1084C108.627 28.1084 108.953 28.0762 109.254 28.0117C109.558 27.9437 109.884 27.8327 110.231 27.6787V28.7046C109.924 28.8514 109.612 28.9552 109.297 29.0161C108.982 29.077 108.622 29.1074 108.217 29.1074ZM107.986 23.9082C107.585 23.9082 107.263 24.0353 107.02 24.2896C106.78 24.5438 106.636 24.9144 106.59 25.4014H109.286C109.279 24.9108 109.161 24.5402 108.932 24.2896C108.702 24.0353 108.387 23.9082 107.986 23.9082ZM114.974 22.9521C115.228 22.9521 115.438 22.9701 115.603 23.0059L115.479 24.1821C115.3 24.1392 115.114 24.1177 114.92 24.1177C114.416 24.1177 114.006 24.2824 113.69 24.6118C113.379 24.9412 113.223 25.3691 113.223 25.8955V29H111.961V23.0596H112.949L113.116 24.1069H113.18C113.377 23.7524 113.633 23.4714 113.948 23.2637C114.267 23.056 114.609 22.9521 114.974 22.9521ZM115.807 23.0596H117.182L118.39 26.4272C118.573 26.9071 118.694 27.3582 118.755 27.7808H118.798C118.831 27.5838 118.89 27.3457 118.976 27.0664C119.062 26.7835 119.516 25.4479 120.34 23.0596H121.704L119.164 29.7896C118.702 31.0249 117.932 31.6426 116.854 31.6426C116.575 31.6426 116.303 31.6121 116.038 31.5513V30.5522C116.227 30.5952 116.444 30.6167 116.688 30.6167C117.296 30.6167 117.724 30.264 117.971 29.5586L118.191 29L115.807 23.0596ZM17.937 37.9521C18.6782 37.9521 19.2547 38.2207 19.6665 38.7578C20.0819 39.2949 20.2896 40.0487 20.2896 41.019C20.2896 41.993 20.0801 42.7521 19.6611 43.2964C19.2422 43.8371 18.6603 44.1074 17.9155 44.1074C17.1636 44.1074 16.5799 43.8371 16.1646 43.2964H16.0786L15.8477 44H14.9023V35.6426H16.1646V37.6299C16.1646 37.7767 16.1574 37.9951 16.1431 38.2852C16.1287 38.5752 16.118 38.7596 16.1108 38.8384H16.1646C16.5656 38.2476 17.1564 37.9521 17.937 37.9521ZM17.6094 38.9834C17.1009 38.9834 16.7339 39.1338 16.5083 39.4346C16.2863 39.7318 16.1717 40.2313 16.1646 40.9331V41.019C16.1646 41.7424 16.2791 42.2669 16.5083 42.5928C16.7375 42.915 17.1117 43.0762 17.6309 43.0762C18.0785 43.0762 18.4168 42.8989 18.646 42.5444C18.8787 42.1899 18.9951 41.6779 18.9951 41.0083C18.9951 39.6584 18.5332 38.9834 17.6094 38.9834ZM25.9453 44L25.7681 43.2212H25.7036C25.5282 43.4969 25.2775 43.7135 24.9517 43.8711C24.6294 44.0286 24.2606 44.1074 23.8452 44.1074C23.1255 44.1074 22.5884 43.9284 22.2339 43.5703C21.8794 43.2122 21.7021 42.6698 21.7021 41.9429V38.0596H22.9751V41.7227C22.9751 42.1774 23.0682 42.5194 23.2544 42.7485C23.4406 42.9741 23.7324 43.0869 24.1299 43.0869C24.6598 43.0869 25.0483 42.9294 25.2954 42.6143C25.5461 42.2956 25.6714 41.7638 25.6714 41.019V38.0596H26.939V44H25.9453ZM32.729 42.3081C32.729 42.8882 32.5177 43.334 32.0952 43.6455C31.6727 43.9535 31.0675 44.1074 30.2798 44.1074C29.4884 44.1074 28.8529 43.9875 28.373 43.7476V42.6572C29.0713 42.9795 29.7212 43.1406 30.3228 43.1406C31.0998 43.1406 31.4883 42.9061 31.4883 42.437C31.4883 42.2866 31.4453 42.1613 31.3594 42.061C31.2734 41.9608 31.132 41.8569 30.9351 41.7495C30.7381 41.6421 30.4642 41.5203 30.1133 41.3843C29.4294 41.1193 28.9657 40.8543 28.7222 40.5894C28.4823 40.3244 28.3623 39.9806 28.3623 39.5581C28.3623 39.0496 28.5664 38.6558 28.9746 38.3765C29.3864 38.0936 29.945 37.9521 30.6504 37.9521C31.3486 37.9521 32.0093 38.0936 32.6323 38.3765L32.2241 39.3271C31.5832 39.0622 31.0443 38.9297 30.6074 38.9297C29.9414 38.9297 29.6084 39.1195 29.6084 39.499C29.6084 39.6852 29.6943 39.8428 29.8662 39.9717C30.0417 40.1006 30.4212 40.2778 31.0049 40.5034C31.4954 40.6932 31.8517 40.8669 32.0737 41.0244C32.2957 41.182 32.4604 41.3646 32.5679 41.5723C32.6753 41.7764 32.729 42.0216 32.729 42.3081ZM35.3608 44H34.0986V38.0596H35.3608V44ZM34.0234 36.4858C34.0234 36.2603 34.0843 36.0866 34.2061 35.9648C34.3314 35.8431 34.5086 35.7822 34.7378 35.7822C34.9598 35.7822 35.1317 35.8431 35.2534 35.9648C35.3787 36.0866 35.4414 36.2603 35.4414 36.4858C35.4414 36.7007 35.3787 36.8708 35.2534 36.9961C35.1317 37.1178 34.9598 37.1787 34.7378 37.1787C34.5086 37.1787 34.3314 37.1178 34.2061 36.9961C34.0843 36.8708 34.0234 36.7007 34.0234 36.4858ZM42.397 44H41.1294V40.3477C41.1294 39.8893 41.0363 39.5474 40.8501 39.3218C40.6675 39.0962 40.3757 38.9834 39.9746 38.9834C39.4411 38.9834 39.0508 39.141 38.8037 39.4561C38.5566 39.7712 38.4331 40.2993 38.4331 41.0405V44H37.1709V38.0596H38.1592L38.3364 38.8384H38.4009C38.5799 38.5555 38.8341 38.3371 39.1636 38.1831C39.493 38.0291 39.8582 37.9521 40.2593 37.9521C41.6844 37.9521 42.397 38.6772 42.397 40.1274V44ZM46.7476 44.1074C45.8237 44.1074 45.1004 43.8389 44.5776 43.3018C44.0584 42.7611 43.7988 42.0181 43.7988 41.0728C43.7988 40.1024 44.0405 39.3397 44.5239 38.7847C45.0073 38.2297 45.6715 37.9521 46.5166 37.9521C47.3008 37.9521 47.9202 38.1903 48.375 38.6665C48.8298 39.1427 49.0571 39.798 49.0571 40.6323V41.3145H45.0986C45.1165 41.891 45.2723 42.335 45.5659 42.6465C45.8595 42.9544 46.2731 43.1084 46.8066 43.1084C47.1576 43.1084 47.4834 43.0762 47.7842 43.0117C48.0885 42.9437 48.4144 42.8327 48.7617 42.6787V43.7046C48.4538 43.8514 48.1423 43.9552 47.8271 44.0161C47.512 44.077 47.1522 44.1074 46.7476 44.1074ZM46.5166 38.9082C46.1156 38.9082 45.7933 39.0353 45.5498 39.2896C45.3099 39.5438 45.1667 39.9144 45.1201 40.4014H47.8164C47.8092 39.9108 47.6911 39.5402 47.4619 39.2896C47.2327 39.0353 46.9176 38.9082 46.5166 38.9082ZM54.4819 42.3081C54.4819 42.8882 54.2707 43.334 53.8481 43.6455C53.4256 43.9535 52.8205 44.1074 52.0327 44.1074C51.2414 44.1074 50.6058 43.9875 50.126 43.7476V42.6572C50.8242 42.9795 51.4741 43.1406 52.0757 43.1406C52.8527 43.1406 53.2412 42.9061 53.2412 42.437C53.2412 42.2866 53.1982 42.1613 53.1123 42.061C53.0264 41.9608 52.8849 41.8569 52.688 41.7495C52.491 41.6421 52.2171 41.5203 51.8662 41.3843C51.1823 41.1193 50.7186 40.8543 50.4751 40.5894C50.2352 40.3244 50.1152 39.9806 50.1152 39.5581C50.1152 39.0496 50.3193 38.6558 50.7275 38.3765C51.1393 38.0936 51.6979 37.9521 52.4033 37.9521C53.1016 37.9521 53.7622 38.0936 54.3853 38.3765L53.9771 39.3271C53.3361 39.0622 52.7972 38.9297 52.3604 38.9297C51.6943 38.9297 51.3613 39.1195 51.3613 39.499C51.3613 39.6852 51.4473 39.8428 51.6191 39.9717C51.7946 40.1006 52.1742 40.2778 52.7578 40.5034C53.2484 40.6932 53.6047 40.8669 53.8267 41.0244C54.0487 41.182 54.2134 41.3646 54.3208 41.5723C54.4282 41.7764 54.4819 42.0216 54.4819 42.3081ZM59.8423 42.3081C59.8423 42.8882 59.631 43.334 59.2085 43.6455C58.786 43.9535 58.1808 44.1074 57.3931 44.1074C56.6017 44.1074 55.9661 43.9875 55.4863 43.7476V42.6572C56.1846 42.9795 56.8345 43.1406 57.436 43.1406C58.2131 43.1406 58.6016 42.9061 58.6016 42.437C58.6016 42.2866 58.5586 42.1613 58.4727 42.061C58.3867 41.9608 58.2453 41.8569 58.0483 41.7495C57.8514 41.6421 57.5775 41.5203 57.2266 41.3843C56.5426 41.1193 56.0789 40.8543 55.8354 40.5894C55.5955 40.3244 55.4756 39.9806 55.4756 39.5581C55.4756 39.0496 55.6797 38.6558 56.0879 38.3765C56.4997 38.0936 57.0583 37.9521 57.7637 37.9521C58.4619 37.9521 59.1226 38.0936 59.7456 38.3765L59.3374 39.3271C58.6965 39.0622 58.1576 38.9297 57.7207 38.9297C57.0547 38.9297 56.7217 39.1195 56.7217 39.499C56.7217 39.6852 56.8076 39.8428 56.9795 39.9717C57.1549 40.1006 57.5345 40.2778 58.1182 40.5034C58.6087 40.6932 58.965 40.8669 59.187 41.0244C59.409 41.182 59.5737 41.3646 59.6812 41.5723C59.7886 41.7764 59.8423 42.0216 59.8423 42.3081ZM67.7861 44L67.5337 43.1729H67.4907C67.2043 43.5345 66.916 43.7816 66.626 43.9141C66.3359 44.043 65.9635 44.1074 65.5088 44.1074C64.9251 44.1074 64.4686 43.9499 64.1392 43.6348C63.8133 43.3197 63.6504 42.8739 63.6504 42.2974C63.6504 41.6851 63.8778 41.2231 64.3325 40.9116C64.7873 40.6001 65.4801 40.43 66.4111 40.4014L67.437 40.3691V40.0522C67.437 39.6727 67.3475 39.3898 67.1685 39.2036C66.993 39.0138 66.7191 38.9189 66.3467 38.9189C66.0423 38.9189 65.7505 38.9637 65.4712 39.0532C65.1919 39.1427 64.9233 39.2484 64.6655 39.3701L64.2573 38.4678C64.5796 38.2995 64.9323 38.1724 65.3154 38.0864C65.6986 37.9969 66.0602 37.9521 66.4004 37.9521C67.1559 37.9521 67.7253 38.1169 68.1084 38.4463C68.4951 38.7757 68.6885 39.2931 68.6885 39.9985V44H67.7861ZM65.9062 43.1406C66.3646 43.1406 66.7316 43.0135 67.0073 42.7593C67.2866 42.5015 67.4263 42.1416 67.4263 41.6797V41.1641L66.6636 41.1963C66.0692 41.2178 65.6359 41.318 65.3638 41.4971C65.0952 41.6725 64.9609 41.9429 64.9609 42.3081C64.9609 42.5731 65.0397 42.779 65.1973 42.9258C65.3548 43.069 65.5911 43.1406 65.9062 43.1406ZM72.4536 44.1074C71.7124 44.1074 71.1341 43.8389 70.7188 43.3018C70.3034 42.7646 70.0957 42.0109 70.0957 41.0405C70.0957 40.0666 70.3052 39.3092 70.7241 38.7686C71.1466 38.2243 71.7303 37.9521 72.4751 37.9521C73.2557 37.9521 73.8501 38.2404 74.2583 38.8169H74.3228C74.2619 38.3908 74.2314 38.0542 74.2314 37.8071V35.6426H75.499V44H74.5107L74.2905 43.2212H74.2314C73.8268 43.812 73.2342 44.1074 72.4536 44.1074ZM72.792 43.0869C73.3112 43.0869 73.689 42.9419 73.9253 42.6519C74.1616 42.3582 74.2834 41.8838 74.2905 41.2285V41.0513C74.2905 40.3029 74.1688 39.7712 73.9253 39.4561C73.6818 39.141 73.3005 38.9834 72.7812 38.9834C72.3372 38.9834 71.9953 39.1642 71.7554 39.5259C71.5155 39.884 71.3955 40.396 71.3955 41.062C71.3955 41.7209 71.5119 42.224 71.7446 42.5713C71.9774 42.915 72.3265 43.0869 72.792 43.0869ZM79.3071 44.1074C78.5659 44.1074 77.9876 43.8389 77.5723 43.3018C77.1569 42.7646 76.9492 42.0109 76.9492 41.0405C76.9492 40.0666 77.1587 39.3092 77.5776 38.7686C78.0002 38.2243 78.5838 37.9521 79.3286 37.9521C80.1092 37.9521 80.7036 38.2404 81.1118 38.8169H81.1763C81.1154 38.3908 81.085 38.0542 81.085 37.8071V35.6426H82.3525V44H81.3643L81.144 43.2212H81.085C80.6803 43.812 80.0877 44.1074 79.3071 44.1074ZM79.6455 43.0869C80.1647 43.0869 80.5425 42.9419 80.7788 42.6519C81.0151 42.3582 81.1369 41.8838 81.144 41.2285V41.0513C81.144 40.3029 81.0223 39.7712 80.7788 39.4561C80.5353 39.141 80.154 38.9834 79.6348 38.9834C79.1908 38.9834 78.8488 39.1642 78.6089 39.5259C78.369 39.884 78.249 40.396 78.249 41.062C78.249 41.7209 78.3654 42.224 78.5981 42.5713C78.8309 42.915 79.18 43.0869 79.6455 43.0869ZM86.7515 44.1074C85.8276 44.1074 85.1043 43.8389 84.5815 43.3018C84.0623 42.7611 83.8027 42.0181 83.8027 41.0728C83.8027 40.1024 84.0444 39.3397 84.5278 38.7847C85.0112 38.2297 85.6755 37.9521 86.5205 37.9521C87.3047 37.9521 87.9242 38.1903 88.3789 38.6665C88.8337 39.1427 89.061 39.798 89.061 40.6323V41.3145H85.1025C85.1204 41.891 85.2762 42.335 85.5698 42.6465C85.8634 42.9544 86.277 43.1084 86.8105 43.1084C87.1615 43.1084 87.4873 43.0762 87.7881 43.0117C88.0924 42.9437 88.4183 42.8327 88.7656 42.6787V43.7046C88.4577 43.8514 88.1462 43.9552 87.8311 44.0161C87.516 44.077 87.1561 44.1074 86.7515 44.1074ZM86.5205 38.9082C86.1195 38.9082 85.7972 39.0353 85.5537 39.2896C85.3138 39.5438 85.1706 39.9144 85.124 40.4014H87.8203C87.8132 39.9108 87.695 39.5402 87.4658 39.2896C87.2367 39.0353 86.9215 38.9082 86.5205 38.9082ZM92.4985 44.1074C91.7573 44.1074 91.179 43.8389 90.7637 43.3018C90.3483 42.7646 90.1406 42.0109 90.1406 41.0405C90.1406 40.0666 90.3501 39.3092 90.769 38.7686C91.1916 38.2243 91.7752 37.9521 92.52 37.9521C93.3006 37.9521 93.895 38.2404 94.3032 38.8169H94.3677C94.3068 38.3908 94.2764 38.0542 94.2764 37.8071V35.6426H95.5439V44H94.5557L94.3354 43.2212H94.2764C93.8717 43.812 93.2791 44.1074 92.4985 44.1074ZM92.8369 43.0869C93.3561 43.0869 93.7339 42.9419 93.9702 42.6519C94.2065 42.3582 94.3283 41.8838 94.3354 41.2285V41.0513C94.3354 40.3029 94.2137 39.7712 93.9702 39.4561C93.7267 39.141 93.3454 38.9834 92.8262 38.9834C92.3822 38.9834 92.0402 39.1642 91.8003 39.5259C91.5604 39.884 91.4404 40.396 91.4404 41.062C91.4404 41.7209 91.5568 42.224 91.7896 42.5713C92.0223 42.915 92.3714 43.0869 92.8369 43.0869Z" fill="white"/>
</svg>
