<svg width="75" height="75" viewBox="0 0 75 75" fill="none" xmlns="http://www.w3.org/2000/svg">
<rect width="75" height="75" fill="#282828"/>
<g clip-path="url(#clip0)">
<rect width="411" height="823" transform="translate(-27 -484)" fill="#F2F2F2"/>
<rect x="-15" y="-8" width="387" height="90" rx="8" fill="white"/>
<rect x="0.5" y="0.5" width="74" height="74" rx="29.5" stroke="#42CE27"/>
<path d="M22.518 20.0491C24.5045 18.9717 27.0375 18.7193 29.4589 19.3143C30.6382 19.6028 31.6453 20.3443 32.2501 21.3654L34.3389 24.895C35.0833 26.1533 35.2984 27.6413 34.9392 29.0494C34.58 30.4575 33.6743 31.6771 32.4106 32.4545L30.573 33.586C29.8124 34.0525 29.5333 34.767 29.7078 35.3327C30.3311 37.3567 31.7105 39.6016 33.227 41.1388C33.6783 41.5985 34.5063 41.7067 35.3158 41.2492L36.3323 40.6744C36.9992 40.2977 37.7369 40.0535 38.5023 39.956C39.2677 39.8584 40.0455 39.9095 40.7903 40.1063C41.5351 40.3031 42.2321 40.6416 42.8404 41.1022C43.4488 41.5627 43.9564 42.136 44.3338 42.7886L46.2062 46.0229C46.8179 47.0823 46.918 48.3467 46.4853 49.4849C45.6224 51.7456 43.9593 53.5667 41.9147 54.4818C39.8376 55.4081 37.4069 55.3698 35.2065 53.9476C31.7221 51.6982 27.5236 47.9117 23.7206 41.5963C19.8687 35.1952 18.8988 29.7476 19.0081 25.6861C19.0779 23.0873 20.4967 21.1445 22.518 20.0491Z" fill="url(#paint0_linear)"/>
</g>
<defs>
<linearGradient id="paint0_linear" x1="-5.37832" y1="53.1154" x2="55.1526" y2="85.3436" gradientUnits="userSpaceOnUse">
<stop stop-color="#4DF149"/>
<stop offset="1" stop-color="#36A800"/>
</linearGradient>
<clipPath id="clip0">
<rect width="411" height="823" fill="white" transform="translate(-27 -484)"/>
</clipPath>
</defs>
</svg>
