<svg width="109" height="109" viewBox="0 0 109 109" fill="none" xmlns="http://www.w3.org/2000/svg">
<circle cx="54.5" cy="54.5" r="54.5" fill="#EAEAEA"/>
<path d="M54 14C48.9545 14 45.0128 15.8483 42.1747 19.5448C39.3366 23.2414 37.9176 27.9667 37.9176 33.7208C37.8826 40.8698 40.1951 46.5367 44.8551 50.7215C45.4508 51.2794 45.661 51.9943 45.4858 52.8662L44.277 55.377C43.8916 56.214 43.3222 56.8679 42.5689 57.3387C41.8156 57.8094 40.2301 58.4808 37.8125 59.3526C37.7074 59.3875 35.4912 60.1024 31.1641 61.4973C26.8369 62.8922 24.5331 63.6594 24.2528 63.7989C21.3097 65.0195 19.3826 66.2923 18.4716 67.6175C17.4905 69.8145 17 75.3768 17 84.3043H91C91 75.3768 90.5095 69.8145 89.5284 67.6175C88.6174 66.2923 86.6903 65.0195 83.7472 63.7989C83.4669 63.6594 81.1631 62.8922 76.8359 61.4973C72.5088 60.1024 70.2926 59.3875 70.1875 59.3526C67.7699 58.4808 66.1844 57.8094 65.4311 57.3387C64.6778 56.8679 64.1084 56.214 63.723 55.377L62.5142 52.8662C62.339 51.9943 62.5492 51.2794 63.1449 50.7215C67.8049 46.5367 70.1174 40.8698 70.0824 33.7208C70.0824 27.9667 68.6633 23.2414 65.8253 19.5448C62.9872 15.8483 59.0455 14 54 14Z" fill="#B1B1B1"/>
</svg>
