<svg width="28" height="28" viewBox="0 0 28 28" fill="none" xmlns="http://www.w3.org/2000/svg">
<path d="M10.5 6.3V10.5H6.3V6.3H10.5ZM12.6 4.2H4.2V12.6H12.6V4.2ZM10.5 17.5V21.7H6.3V17.5H10.5ZM12.6 15.4H4.2V23.8H12.6V15.4ZM21.7 6.3V10.5H17.5V6.3H21.7ZM23.8 4.2H15.4V12.6H23.8V4.2ZM15.4 15.4H17.5V17.5H15.4V15.4ZM17.5 17.5H19.6V19.6H17.5V17.5ZM19.6 15.4H21.7V17.5H19.6V15.4ZM15.4 19.6H17.5V21.7H15.4V19.6ZM17.5 21.7H19.6V23.8H17.5V21.7ZM19.6 19.6H21.7V21.7H19.6V19.6ZM21.7 17.5H23.8V19.6H21.7V17.5ZM21.7 21.7H23.8V23.8H21.7V21.7ZM28 7H25.2V2.8H21V0H28V7ZM28 28V21H25.2V25.2H21V28H28ZM0 28H7V25.2H2.8V21H0V28ZM0 0V7H2.8V2.8H7V0H0Z" fill="#6FA4E9"/>
</svg>
