<svg width="75" height="75" viewBox="0 0 75 75" fill="none" xmlns="http://www.w3.org/2000/svg">
<rect x="0.5" y="0.5" width="74" height="74" rx="29.5" stroke="#6FA4E9"/>
<path d="M33.5 28.1V33.5H28.1V28.1H33.5ZM36.2 25.4H25.4V36.2H36.2V25.4ZM33.5 42.5V47.9H28.1V42.5H33.5ZM36.2 39.8H25.4V50.6H36.2V39.8ZM47.9 28.1V33.5H42.5V28.1H47.9ZM50.6 25.4H39.8V36.2H50.6V25.4ZM39.8 39.8H42.5V42.5H39.8V39.8ZM42.5 42.5H45.2V45.2H42.5V42.5ZM45.2 39.8H47.9V42.5H45.2V39.8ZM39.8 45.2H42.5V47.9H39.8V45.2ZM42.5 47.9H45.2V50.6H42.5V47.9ZM45.2 45.2H47.9V47.9H45.2V45.2ZM47.9 42.5H50.6V45.2H47.9V42.5ZM47.9 47.9H50.6V50.6H47.9V47.9ZM56 29H52.4V23.6H47V20H56V29ZM56 56V47H52.4V52.4H47V56H56ZM20 56H29V52.4H23.6V47H20V56ZM20 20V29H23.6V23.6H29V20H20Z" fill="#6FA4E9"/>
</svg>
