<svg width="26" height="26" viewBox="0 0 26 26" fill="none" xmlns="http://www.w3.org/2000/svg">
<path d="M17.8054 0H8.20898C7.83322 0 7.45746 0.158889 7.19731 0.418889L0.419121 7.19333C0.158977 7.45333 0 7.82889 0 8.20444V17.7811C0 18.1711 0.158977 18.5322 0.419121 18.8067L7.18286 25.5667C7.45746 25.8411 7.83322 26 8.20898 26H17.7909C18.1812 26 18.5425 25.8411 18.8171 25.5811L25.5808 18.8211C25.7154 18.6866 25.8218 18.5266 25.8938 18.3505C25.9657 18.1744 26.0018 17.9858 25.9999 17.7956V8.20444C25.9999 7.81444 25.841 7.45333 25.5808 7.17889L18.8171 0.418889C18.5569 0.158889 18.1812 0 17.8054 0ZM13.0072 20.6556C11.9666 20.6556 11.1284 19.8178 11.1284 18.7778C11.1284 17.7378 11.9666 16.9 13.0072 16.9C14.0478 16.9 14.886 17.7378 14.886 18.7778C14.886 19.8178 14.0478 20.6556 13.0072 20.6556ZM13.0072 14.4444C12.2123 14.4444 11.5619 13.7944 11.5619 13V7.22222C11.5619 6.42778 12.2123 5.77778 13.0072 5.77778C13.8021 5.77778 14.4524 6.42778 14.4524 7.22222V13C14.4524 13.7944 13.8021 14.4444 13.0072 14.4444Z" fill="#545762"/>
</svg>
