<svg width="75" height="75" viewBox="0 0 75 75" fill="none" xmlns="http://www.w3.org/2000/svg">
<rect x="0.5" y="0.5" width="74" height="74" rx="29.5" stroke="#FC79A8"/>
<path fill-rule="evenodd" clip-rule="evenodd" d="M29.25 20C28.0565 20 26.9119 20.4741 26.068 21.318C25.2241 22.1619 24.75 23.3065 24.75 24.5V51.5C24.75 52.6935 25.2241 53.8381 26.068 54.682C26.9119 55.5259 28.0565 56 29.25 56H47.25C48.4435 56 49.5881 55.5259 50.432 54.682C51.2759 53.8381 51.75 52.6935 51.75 51.5V32.1815C51.7497 30.9881 51.2755 29.8437 50.4315 29L42.75 21.3185C41.9063 20.4745 40.7619 20.0003 39.5685 20H29.25ZM33.75 42.5C33.75 41.9033 33.5129 41.331 33.091 40.909C32.669 40.4871 32.0967 40.25 31.5 40.25C30.9033 40.25 30.331 40.4871 29.909 40.909C29.4871 41.331 29.25 41.9033 29.25 42.5V49.25C29.25 49.8467 29.4871 50.419 29.909 50.841C30.331 51.2629 30.9033 51.5 31.5 51.5C32.0967 51.5 32.669 51.2629 33.091 50.841C33.5129 50.419 33.75 49.8467 33.75 49.25V42.5ZM38.25 35.75C38.8467 35.75 39.419 35.9871 39.841 36.409C40.2629 36.831 40.5 37.4033 40.5 38V49.25C40.5 49.8467 40.2629 50.419 39.841 50.841C39.419 51.2629 38.8467 51.5 38.25 51.5C37.6533 51.5 37.081 51.2629 36.659 50.841C36.2371 50.419 36 49.8467 36 49.25V38C36 37.4033 36.2371 36.831 36.659 36.409C37.081 35.9871 37.6533 35.75 38.25 35.75ZM47.25 33.5C47.25 32.9033 47.0129 32.331 46.591 31.909C46.169 31.4871 45.5967 31.25 45 31.25C44.4033 31.25 43.831 31.4871 43.409 31.909C42.9871 32.331 42.75 32.9033 42.75 33.5V49.25C42.75 49.8467 42.9871 50.419 43.409 50.841C43.831 51.2629 44.4033 51.5 45 51.5C45.5967 51.5 46.169 51.2629 46.591 50.841C47.0129 50.419 47.25 49.8467 47.25 49.25V33.5Z" fill="#FC79A8"/>
<rect x="26.0835" y="28.6665" width="22" height="23.3333" fill="#FC79A8"/>
<path d="M38.0835 46.6668C39.1881 46.6668 40.0835 45.9206 40.0835 45.0002C40.0835 44.0797 39.1881 43.3335 38.0835 43.3335C36.9789 43.3335 36.0835 44.0797 36.0835 45.0002C36.0835 45.9206 36.9789 46.6668 38.0835 46.6668Z" fill="white"/>
<path d="M36.0835 29.3335H40.0835V41.3335H36.0835V29.3335Z" fill="white"/>
</svg>
