<svg width="75" height="75" viewBox="0 0 75 75" fill="none" xmlns="http://www.w3.org/2000/svg">
<rect x="0.5" y="0.5" width="74" height="74" rx="29.5" stroke="#55EFC4"/>
<path d="M33.1766 41.1765C36.1011 41.1765 38.7481 39.9906 40.6646 38.0741C42.5789 36.1598 43.7648 33.5127 43.7648 30.5882C43.7648 27.6638 42.5789 25.0167 40.6646 23.1024C38.7481 21.1859 36.1011 20 33.1766 20C30.2521 20 27.6051 21.1859 25.6886 23.1024C23.7742 25.0167 22.5884 27.6638 22.5884 30.5882C22.5884 33.5127 23.7742 36.1598 25.6886 38.0741C26.6708 39.0591 27.8379 39.8402 29.123 40.3726C30.408 40.905 31.7856 41.1782 33.1766 41.1765ZM33.1766 56C40.6265 56 45.8825 53.8824 45.8825 51.7647C45.8825 47.5294 40.8975 43.2941 33.1766 43.2941C25.2354 43.2941 20.4707 47.5294 20.4707 51.7647C20.4707 53.8824 25.2354 56 33.1766 56ZM58.5884 36.9412H54.3531V32.7059C54.3531 32.1442 54.13 31.6056 53.7328 31.2085C53.3357 30.8113 52.797 30.5882 52.2354 30.5882C51.6738 30.5882 51.1351 30.8113 50.738 31.2085C50.3409 31.6056 50.1178 32.1442 50.1178 32.7059V36.9412H45.8825C45.3208 36.9412 44.7822 37.1643 44.3851 37.5614C43.9879 37.9586 43.7648 38.4972 43.7648 39.0588C43.7648 39.6205 43.9879 40.1591 44.3851 40.5562C44.7822 40.9534 45.3208 41.1765 45.8825 41.1765H50.1178V45.4118C50.1178 45.9734 50.3409 46.512 50.738 46.9092C51.1351 47.3063 51.6738 47.5294 52.2354 47.5294C52.797 47.5294 53.3357 47.3063 53.7328 46.9092C54.13 46.512 54.3531 45.9734 54.3531 45.4118V41.1765H58.5884C59.15 41.1765 59.6886 40.9534 60.0858 40.5562C60.4829 40.1591 60.706 39.6205 60.706 39.0588C60.706 38.4972 60.4829 37.9586 60.0858 37.5614C59.6886 37.1643 59.15 36.9412 58.5884 36.9412Z" fill="#55EFC4"/>
</svg>
