<svg width="30" height="29" viewBox="0 0 30 29" fill="none" xmlns="http://www.w3.org/2000/svg">
<path d="M28.2 8.05292H21.2759C21.6194 7.87118 21.935 7.63841 22.2125 7.36213C23.0001 6.55335 23.4426 5.45642 23.4426 4.31264C23.4426 3.16885 23.0001 2.07192 22.2125 1.26314C21.8224 0.862676 21.3594 0.54501 20.8499 0.32828C20.3403 0.11155 19.7942 0 19.2426 0C18.1287 0 17.0604 0.454366 16.2728 1.26314C15.7388 1.81146 15.3134 2.67091 15 3.82562C14.6865 2.67091 14.2611 1.81146 13.7273 1.26314C12.9396 0.454366 11.8713 0 10.7574 0C9.64349 0 8.5752 0.454366 7.78755 1.26314C6.9999 2.07192 6.5574 3.16885 6.5574 4.31264C6.5574 5.45642 6.9999 6.55335 7.78755 7.36213C8.06499 7.63841 8.38058 7.87118 8.72415 8.05292H1.8C1.32277 8.05345 0.865231 8.24835 0.527778 8.59485C0.190324 8.94136 0.000516162 9.41116 0 9.90119V14.8299C0.000516162 15.3199 0.190324 15.7898 0.527778 16.1363C0.865231 16.4828 1.32277 16.6777 1.8 16.6782H2.4V27.1517C2.40052 27.6418 2.59032 28.1116 2.92778 28.4581C3.26523 28.8046 3.72277 28.9995 4.2 29H25.8C26.2772 28.9995 26.7348 28.8046 27.0722 28.4581C27.4097 28.1116 27.5995 27.6418 27.6 27.1517V16.6782H28.2C28.6772 16.6777 29.1348 16.4828 29.4722 16.1363C29.8097 15.7898 29.9995 15.3199 30 14.8299V9.90119C29.9995 9.41116 29.8097 8.94136 29.4722 8.59485C29.1348 8.24835 28.6772 8.05345 28.2 8.05292ZM17.1213 2.13445C17.6839 1.55674 18.447 1.23217 19.2426 1.23216C19.6366 1.23215 20.0267 1.31182 20.3907 1.46662C20.7547 1.62143 21.0854 1.84833 21.364 2.13437C21.6426 2.42041 21.8635 2.76 22.0143 3.13374C22.1651 3.50748 22.2427 3.90805 22.2427 4.31258C22.2427 4.71712 22.1651 5.11769 22.0144 5.49143C21.8636 5.86518 21.6426 6.20477 21.3641 6.49082C20.2751 7.60887 17.2577 7.96528 15.6149 8.03783C15.6854 6.35082 16.0324 3.25234 17.1213 2.13445ZM8.63595 2.13445C9.19903 1.55762 9.96194 1.23368 10.7573 1.23368C11.5527 1.23368 12.3156 1.55762 12.8787 2.13445C13.9677 3.2525 14.3147 6.35082 14.3852 8.03783C12.7424 7.96528 9.72495 7.60887 8.63595 6.49082C8.07427 5.91263 7.75884 5.1293 7.75884 4.31264C7.75884 3.49597 8.07427 2.71264 8.63595 2.13445ZM1.2 14.8299V9.90119C1.20016 9.73785 1.26342 9.58124 1.37591 9.46573C1.4884 9.35023 1.64092 9.28526 1.8 9.2851H14.4V15.446H1.8C1.64092 15.4458 1.4884 15.3809 1.37591 15.2654C1.26342 15.1499 1.20016 14.9933 1.2 14.8299ZM3.6 27.1517V16.6782H14.4V27.7678H4.2C4.04092 27.7677 3.8884 27.7027 3.77591 27.5872C3.66342 27.4717 3.60016 27.3151 3.6 27.1517ZM26.4 27.1517C26.3998 27.3151 26.3366 27.4717 26.2241 27.5872C26.1116 27.7027 25.9591 27.7677 25.8 27.7678H15.6V16.6782H26.4V27.1517ZM28.8 14.8299C28.7998 14.9933 28.7366 15.1499 28.6241 15.2654C28.5116 15.3809 28.3591 15.4458 28.2 15.446H15.6V9.2851H28.2C28.3591 9.28526 28.5116 9.35023 28.6241 9.46573C28.7366 9.58124 28.7998 9.73785 28.8 9.90119V14.8299Z" fill="#5B5B5B"/>
</svg>
