<svg width="18" height="18" viewBox="0 0 18 18" fill="none" xmlns="http://www.w3.org/2000/svg">
<path d="M1.36718 0.0975597L17.4575 8.10423C17.62 8.18511 17.7571 8.31214 17.8531 8.47064C17.9491 8.62915 18 8.81266 18 9C18 9.18734 17.9491 9.37085 17.8531 9.52936C17.7571 9.68786 17.62 9.81489 17.4575 9.89577L1.36718 17.9024C1.20216 17.9847 1.01789 18.0159 0.836302 17.9923C0.654718 17.9688 0.483478 17.8914 0.342977 17.7694C0.202476 17.6474 0.0986361 17.486 0.0438253 17.3044C-0.0109855 17.1227 -0.0144573 16.9285 0.0338236 16.7449L1.64362 10.6052C1.66333 10.53 1.70389 10.4624 1.76025 10.411C1.8166 10.3596 1.88626 10.3266 1.96054 10.316L9.75754 9.21411C9.79005 9.20936 9.82083 9.19598 9.84692 9.17524C9.873 9.1545 9.89351 9.12712 9.90645 9.09573L9.9202 9.04568C9.92622 9.00133 9.91766 8.95615 9.89589 8.9175C9.87413 8.87885 9.84044 8.84899 9.8003 8.83276L9.7583 8.82085L1.96894 7.71971C1.8948 7.70905 1.82531 7.67596 1.7691 7.62454C1.71289 7.57313 1.67244 7.50566 1.65279 7.43052L0.0338236 1.2551C-0.0144573 1.07147 -0.0109855 0.877273 0.0438253 0.695637C0.0986361 0.514001 0.202476 0.352582 0.342977 0.230607C0.483478 0.108632 0.654718 0.0312416 0.836302 0.00765314C1.01789 -0.0159353 1.20216 0.0152726 1.36718 0.0975597Z" fill="#6FA4E9"/>
</svg>
