<svg width="27" height="29" viewBox="0 0 27 29" fill="none" xmlns="http://www.w3.org/2000/svg">
<path d="M26.9989 18.4907C27.0082 18.2764 26.9516 18.0643 26.8367 17.883C26.7218 17.7018 26.5541 17.5601 26.3562 17.4771L24.8357 17.0245C24.7543 16.8073 24.6728 16.5901 24.5732 16.3819L25.2792 15.0786C25.3852 14.879 25.424 14.6505 25.3897 14.4271C25.3555 14.2037 25.2501 13.9973 25.0891 13.8386L23.8039 12.5625C23.6442 12.403 23.4373 12.2993 23.2139 12.2667C22.9906 12.2341 22.7626 12.2743 22.564 12.3815L21.2516 13.0693C21.0276 12.9608 20.7979 12.8641 20.5637 12.7797L20.1293 11.3497C20.0568 11.1424 19.9206 10.9633 19.7401 10.8382C19.5597 10.713 19.3442 10.6481 19.1247 10.6528H17.3145C17.0896 10.6526 16.8707 10.7246 16.6898 10.8582C16.509 10.9918 16.3758 11.1799 16.3099 11.3949L15.8845 12.7887C15.6472 12.8727 15.4145 12.9694 15.1876 13.0784L13.9024 12.3905C13.7047 12.2855 13.4786 12.2465 13.2572 12.2791C13.0358 12.3116 12.8305 12.4141 12.6715 12.5715L11.3591 13.8386C11.1961 13.998 11.0894 14.206 11.0552 14.4314C11.0209 14.6567 11.0608 14.887 11.169 15.0876L11.8388 16.2914C11.7336 16.5096 11.6399 16.7331 11.5582 16.9612L10.1282 17.3865C9.91075 17.4495 9.71978 17.5817 9.58422 17.763C9.44866 17.9443 9.3759 18.1648 9.37696 18.3912V20.2013C9.37786 20.4262 9.45153 20.6446 9.58694 20.8241C9.72236 21.0036 9.91224 21.1344 10.1282 21.1969L11.5673 21.6223C11.6494 21.8443 11.7431 22.0618 11.8478 22.274L11.1419 23.5954C11.0359 23.795 10.9971 24.0235 11.0314 24.2469C11.0656 24.4703 11.171 24.6767 11.3319 24.8353L12.6171 26.1025C12.7758 26.2634 12.9822 26.3688 13.2056 26.403C13.429 26.4373 13.6575 26.3985 13.8571 26.2925L15.1966 25.5866C15.4048 25.6861 15.622 25.7676 15.8483 25.849L16.2918 27.3153C16.3593 27.5286 16.4931 27.7147 16.6739 27.8466C16.8546 27.9785 17.0727 28.0492 17.2964 28.0484H19.1066C19.3314 28.0486 19.5504 27.9765 19.7313 27.8429C19.9121 27.7093 20.0453 27.5212 20.1112 27.3062L20.5366 25.8762C20.7538 25.8038 20.962 25.7133 21.1701 25.6137L22.5278 26.3287C22.7254 26.4337 22.9515 26.4728 23.1729 26.4402C23.3943 26.4076 23.5996 26.3051 23.7587 26.1477L25.0439 24.8806C25.2068 24.7213 25.3135 24.5132 25.3478 24.2879C25.3821 24.0626 25.3421 23.8322 25.2339 23.6316L24.5189 22.3192C24.6155 22.1141 24.703 21.9059 24.7814 21.6947L26.2476 21.2693C26.4651 21.2063 26.656 21.0742 26.7916 20.8929C26.9272 20.7116 26.9999 20.4911 26.9989 20.2647V18.4907ZM25.5507 19.966L23.641 20.5272L23.5324 20.9073C23.4207 21.2815 23.269 21.6427 23.0799 21.9843L22.8898 22.3283L23.7949 24.057L22.8898 24.9621L21.0796 24.057L20.7448 24.238C20.3992 24.4233 20.0352 24.5719 19.6587 24.6815L19.2785 24.7901L18.7083 26.6817H17.577L17.0068 24.7991L16.6266 24.6905C16.2471 24.5815 15.88 24.4328 15.5315 24.247L15.1966 24.066L13.4408 24.9711L12.5357 24.066L13.4408 22.3102L13.2417 21.9662C13.06 21.6 12.9204 21.2144 12.8253 20.8168L12.6715 20.4819L10.8613 19.9117V18.7261L12.6715 18.174L12.7891 17.8029C12.9065 17.4149 13.0674 17.0415 13.2688 16.6896L13.486 16.2914L12.5809 14.617L13.486 13.7662L15.1966 14.6713L15.5406 14.4812C15.9023 14.2831 16.2847 14.1253 16.681 14.0106L17.052 13.902L17.6222 12.0918H18.8712L19.4324 13.902L19.8035 14.0106C20.1873 14.1276 20.5575 14.2854 20.9077 14.4812L21.2516 14.6713L22.9893 13.7662L23.8944 14.6713L22.9893 16.3819L23.1794 16.7258C23.3692 17.0735 23.521 17.4407 23.632 17.821L23.7406 18.2011L25.605 18.7532L25.5507 19.966Z" fill="#5B5B5B"/>
<path d="M18.21 15.7031C17.4972 15.7174 16.8045 15.9418 16.2188 16.3482C15.633 16.7545 15.1803 17.3248 14.9174 17.9875C14.6544 18.6501 14.593 19.3756 14.7407 20.0731C14.8885 20.7705 15.2389 21.4088 15.7479 21.9079C16.257 22.407 16.9021 22.7447 17.6023 22.8786C18.3026 23.0125 19.0267 22.9367 19.6841 22.6607C20.3414 22.3847 20.9026 21.9208 21.2973 21.3271C21.692 20.7334 21.9026 20.0364 21.9027 19.3235C21.8884 18.3552 21.4925 17.4317 20.801 16.7538C20.1095 16.0758 19.1784 15.6983 18.21 15.7031V15.7031ZM18.21 21.5499C17.7771 21.541 17.3564 21.4045 17.0007 21.1575C16.645 20.9105 16.3702 20.564 16.2106 20.1614C16.0511 19.7588 16.0139 19.3181 16.1039 18.8945C16.1938 18.4709 16.4067 18.0832 16.716 17.7801C17.0253 17.4771 17.4172 17.2721 17.8426 17.1908C18.2679 17.1095 18.7078 17.1557 19.107 17.3234C19.5063 17.4911 19.8471 17.7729 20.0869 18.1336C20.3266 18.4942 20.4545 18.9176 20.4546 19.3506C20.4522 19.643 20.3923 19.9321 20.2782 20.2013C20.1641 20.4705 19.9981 20.7146 19.7897 20.9197C19.5813 21.1248 19.3345 21.2868 19.0635 21.3965C18.7924 21.5062 18.5024 21.5614 18.21 21.559V21.5499Z" fill="#5B5B5B"/>
<path d="M9.49428 25.3422H1.81016V1.81016H19.9117V8.95123C20.3068 9.06715 20.6725 9.26596 20.9847 9.5344C21.2968 9.80284 21.5481 10.1347 21.7219 10.508V1.81016C21.7219 1.33007 21.5312 0.869653 21.1917 0.530183C20.8522 0.190712 20.3918 0 19.9117 0H1.81016C1.33007 0 0.869653 0.190712 0.530183 0.530183C0.190712 0.869653 0 1.33007 0 1.81016V25.3422C0 25.8223 0.190712 26.2827 0.530183 26.6222C0.869653 26.9617 1.33007 27.1524 1.81016 27.1524H11.0691L10.0735 26.1749C9.83162 25.9347 9.63535 25.6526 9.49428 25.3422V25.3422Z" fill="#5B5B5B"/>
</svg>
