<svg width="13" height="17" viewBox="0 0 13 17" fill="none" xmlns="http://www.w3.org/2000/svg">
<path d="M0 2.12503C0 1.56144 0.223883 1.02093 0.622398 0.622408C1.02091 0.223887 1.56141 0 2.125 0L10.625 0C11.1886 0 11.7291 0.223887 12.1276 0.622408C12.5261 1.02093 12.75 1.56144 12.75 2.12503V16.469C12.75 16.5651 12.7238 16.6594 12.6744 16.7418C12.625 16.8243 12.5542 16.8917 12.4695 16.9371C12.3848 16.9825 12.2894 17.004 12.1934 16.9994C12.0974 16.9948 12.0044 16.9643 11.9244 16.911L6.375 13.92L0.825562 16.911C0.745562 16.9643 0.65262 16.9948 0.556635 16.9994C0.46065 17.004 0.365216 16.9825 0.280499 16.9371C0.195782 16.8917 0.124954 16.8243 0.0755587 16.7418C0.026163 16.6594 4.96404e-05 16.5651 0 16.469V2.12503ZM2.125 1.06252C1.84321 1.06252 1.57296 1.17446 1.3737 1.37372C1.17444 1.57298 1.0625 1.84324 1.0625 2.12503V15.4766L6.08069 12.8395C6.16788 12.7814 6.27027 12.7505 6.375 12.7505C6.47973 12.7505 6.58212 12.7814 6.66931 12.8395L11.6875 15.4766V2.12503C11.6875 1.84324 11.5756 1.57298 11.3763 1.37372C11.177 1.17446 10.9068 1.06252 10.625 1.06252H2.125Z" fill="#5B5B5B"/>
</svg>
