<svg width="42" height="42" viewBox="0 0 42 42" fill="none" xmlns="http://www.w3.org/2000/svg">
<path d="M41.9259 20.9629C41.9259 15.114 33.4631 5.40895 26.2425 1.60457C24.3274 0.595243 22.5157 0 20.9629 0C19.0996 0 16.8221 0.854042 14.467 2.27745C12.1896 3.6491 9.83446 5.56424 7.71229 7.68641C5.56424 9.83446 3.6491 12.2154 2.25157 14.5188C0.854045 16.8221 0 19.0737 0 20.9371C0 28.3388 13.5353 41.9 20.9629 41.9C22.8263 41.9 25.1038 41.046 27.433 39.6225C29.7104 38.2509 32.0914 36.3358 34.2136 34.2136C36.3358 32.0914 38.2768 29.6846 39.6484 27.4071C41.0718 25.0779 41.9259 22.8263 41.9259 20.9629Z" fill="#494949"/>
<path d="M27.8474 14.0786C25.6993 11.8012 23.396 9.65314 20.9891 7.66036C18.9705 6.00403 16.9001 4.52887 14.8297 3.36426C12.6816 4.65827 10.4559 6.46988 8.46313 8.46265L20.9633 20.9628L27.8474 14.0786Z" fill="#40C9FF"/>
<path d="M25.9582 2.71736C24.1466 1.75979 22.4385 1.21631 20.9633 1.21631C19.2035 1.21631 17.0554 2.04447 14.8556 3.36436C16.926 4.52897 18.9964 6.03002 21.0151 7.66047L25.9582 2.71736Z" fill="#9661BA"/>
<path d="M27.4848 27.4848L20.963 20.963L8.4629 8.46289C6.44425 10.4815 4.63263 12.7331 3.31274 14.9071C7.50533 22.1276 15.4505 29.3741 21.0148 33.929L27.4848 27.4848Z" fill="#FFA233"/>
<path d="M27.0707 38.5615C26.579 38.1991 24.1721 36.491 21.0148 33.903C15.4505 29.374 7.50531 22.1275 3.31273 14.907C2.01872 17.0809 1.19055 19.2031 1.19055 20.9629C1.19055 27.9506 13.9754 40.7095 20.9371 40.7095C22.7487 40.7095 24.8709 39.9072 27.0707 38.5615Z" fill="#FF5A7E"/>
<path d="M40.7355 20.963C40.7355 15.4506 32.7385 6.31487 25.9579 2.71753L21.0148 7.66064C23.4216 9.65341 25.6991 11.8015 27.8471 14.0789L20.963 20.963L27.4848 27.4848L21.0407 33.929C24.198 36.517 26.579 38.2251 27.0966 38.5874C29.2447 37.2934 31.4704 35.4818 33.489 33.489C35.5077 31.4704 37.3193 29.2188 38.6392 27.0449C39.9332 24.8451 40.7355 22.7229 40.7355 20.963Z" fill="#FFD91D"/>
</svg>
