<svg width="19" height="19" viewBox="0 0 19 19" fill="none" xmlns="http://www.w3.org/2000/svg">
<path d="M15.0417 13.1837C14.3272 13.1837 13.6679 13.426 13.1514 13.8307L7.95704 10.198C8.04402 9.73645 8.04402 9.26355 7.95704 8.80204L13.1514 5.16926C13.6679 5.57398 14.3272 5.81633 15.0417 5.81633C16.7013 5.81633 18.05 4.5125 18.05 2.90816C18.05 1.30383 16.7013 0 15.0417 0C13.3821 0 12.0333 1.30383 12.0333 2.90816C12.0333 3.18929 12.0734 3.45829 12.1512 3.71518L7.21749 7.16862C6.48547 6.23074 5.32224 5.62245 4.01111 5.62245C1.79497 5.62245 0 7.35765 0 9.5C0 11.6423 1.79497 13.3776 4.01111 13.3776C5.32224 13.3776 6.48547 12.7693 7.21749 11.8314L12.1512 15.2848C12.0734 15.5417 12.0333 15.8131 12.0333 16.0918C12.0333 17.6962 13.3821 19 15.0417 19C16.7013 19 18.05 17.6962 18.05 16.0918C18.05 14.4875 16.7013 13.1837 15.0417 13.1837ZM15.0417 1.64796C15.7612 1.64796 16.3453 2.21263 16.3453 2.90816C16.3453 3.6037 15.7612 4.16837 15.0417 4.16837C14.3222 4.16837 13.7381 3.6037 13.7381 2.90816C13.7381 2.21263 14.3222 1.64796 15.0417 1.64796ZM4.01111 11.6327C2.79524 11.6327 1.805 10.6754 1.805 9.5C1.805 8.32462 2.79524 7.36735 4.01111 7.36735C5.22698 7.36735 6.21722 8.32462 6.21722 9.5C6.21722 10.6754 5.22698 11.6327 4.01111 11.6327ZM15.0417 17.352C14.3222 17.352 13.7381 16.7874 13.7381 16.0918C13.7381 15.3963 14.3222 14.8316 15.0417 14.8316C15.7612 14.8316 16.3453 15.3963 16.3453 16.0918C16.3453 16.7874 15.7612 17.352 15.0417 17.352Z" fill="white"/>
</svg>
