<svg width="26" height="24" viewBox="0 0 26 24" fill="none" xmlns="http://www.w3.org/2000/svg">
<path d="M5.56045 2.052L3.89409 0.348C0 4.2756 0 7.122 0 10.8H1.18182L2.36364 10.7244C2.36364 7.2108 2.36364 5.2752 5.56045 2.052ZM22.1047 0.348L20.4407 2.052C23.6364 5.2752 23.6364 7.2108 23.6364 10.8L26 10.7244C26 7.122 26 4.2756 22.1047 0.348V0.348ZM13 24C13.7319 24.0009 14.4459 23.7703 15.0428 23.3402C15.6396 22.9101 16.0897 22.3018 16.3304 21.6H9.66964C9.91033 22.3018 10.3604 22.9101 10.9572 23.3402C11.5541 23.7703 12.2681 24.0009 13 24V24ZM21.2727 15.1032V9.6C21.2727 5.7396 18.6905 2.4876 15.1923 1.5096C14.846 0.624 13.9998 0 13 0C12.0002 0 11.154 0.624 10.8077 1.5096C7.30836 2.4876 4.72727 5.7396 4.72727 9.6V15.1032L2.70991 17.1516C2.59995 17.2628 2.51275 17.3951 2.45332 17.5407C2.39389 17.6863 2.36341 17.8424 2.36364 18V19.2C2.36364 19.5183 2.48815 19.8235 2.70978 20.0485C2.93142 20.2736 3.23202 20.4 3.54545 20.4H22.4545C22.768 20.4 23.0686 20.2736 23.2902 20.0485C23.5119 19.8235 23.6364 19.5183 23.6364 19.2V18C23.6366 17.8424 23.6061 17.6863 23.5467 17.5407C23.4873 17.3951 23.4001 17.2628 23.2901 17.1516L21.2727 15.1032Z" fill="#545762"/>
</svg>
