<svg width="75" height="75" viewBox="0 0 75 75" fill="none" xmlns="http://www.w3.org/2000/svg">
<rect x="0.5" y="0.5" width="74" height="74" rx="29.5" stroke="#55EFC4"/>
<path d="M36.4033 51.48C32.7233 51.48 29.7233 51.0533 27.4033 50.2C25.0833 49.3467 23.3766 48.1467 22.2833 46.6C21.19 45.0533 20.6433 43.2667 20.6433 41.24C20.6433 39.6933 21.0033 38.3333 21.7233 37.16C22.4433 35.9867 23.43 35.0667 24.6833 34.4C25.9633 33.7333 27.4166 33.4 29.0433 33.4C31.2566 33.4 32.9233 33.96 34.0433 35.08C35.1633 36.2 35.7233 37.5867 35.7233 39.24C35.7233 41.1067 35.1233 42.52 33.9233 43.48C32.7233 44.4133 31.0833 44.88 29.0033 44.88C28.2566 44.88 27.51 44.7733 26.7633 44.56C27.5633 45.28 28.75 45.8267 30.3233 46.2C31.8966 46.5733 33.9366 46.76 36.4433 46.76C39.51 46.76 41.9766 46.5467 43.8433 46.12C45.7366 45.6933 47.0433 44.96 47.7633 43.92C47.2833 44.24 46.71 44.4933 46.0433 44.68C45.4033 44.84 44.6433 44.92 43.7633 44.92C42.75 44.92 41.7766 44.76 40.8433 44.44C39.91 44.0933 39.15 43.5467 38.5633 42.8C38.0033 42.0267 37.7233 41 37.7233 39.72C37.7233 37.6933 38.6566 36.24 40.5233 35.36H35.5633V31H42.1233C42.8966 31 43.47 30.96 43.8433 30.88C44.2433 30.7733 44.55 30.6267 44.7633 30.44C45.0833 30.12 45.2433 29.72 45.2433 29.24C45.2433 28.6267 45.07 28.16 44.7233 27.84C44.51 27.6533 44.2033 27.52 43.8033 27.44C43.43 27.36 42.8033 27.32 41.9233 27.32H26.5233V22.8H41.4033C43.2966 22.8 44.7633 22.9467 45.8033 23.24C46.87 23.5067 47.79 23.96 48.5633 24.6C49.1233 25.08 49.5766 25.6933 49.9233 26.44C50.27 27.1867 50.4433 28.08 50.4433 29.12C50.4433 30.96 49.83 32.3867 48.6033 33.4C50.0433 34.2267 51.19 35.3067 52.0433 36.64C52.9233 37.9733 53.3633 39.5333 53.3633 41.32C53.3633 43.5867 52.7766 45.48 51.6033 47C50.4566 48.4933 48.6433 49.6133 46.1633 50.36C43.6833 51.1067 40.43 51.48 36.4033 51.48ZM42.4833 39.24C42.4833 39.96 42.71 40.4667 43.1633 40.76C43.6166 41.0267 44.1766 41.16 44.8433 41.16C45.6166 41.16 46.2566 40.9733 46.7633 40.6C47.27 40.2267 47.6833 39.7067 48.0033 39.04C47.71 38.5333 47.2966 38.12 46.7633 37.8C46.23 37.48 45.59 37.32 44.8433 37.32C44.2566 37.32 43.71 37.48 43.2033 37.8C42.7233 38.0933 42.4833 38.5733 42.4833 39.24ZM28.8033 37.36C28.0833 37.36 27.4033 37.6267 26.7633 38.16C26.15 38.6667 25.75 39.4267 25.5633 40.44C25.9366 40.6533 26.3366 40.84 26.7633 41C27.19 41.1333 27.6433 41.2 28.1233 41.2C28.9233 41.2 29.5766 41.04 30.0833 40.72C30.6166 40.4 30.8833 39.8933 30.8833 39.2C30.8833 38.6667 30.71 38.2267 30.3633 37.88C30.0166 37.5333 29.4966 37.36 28.8033 37.36Z" fill="#55EFC4"/>
</svg>
