<svg width="31" height="34" viewBox="0 0 31 34" fill="none" xmlns="http://www.w3.org/2000/svg">
<path d="M4.92188 31.1719H2.1875C2.04246 31.1719 1.90336 31.2295 1.8008 31.3321C1.69824 31.4346 1.64062 31.5737 1.64062 31.7188C1.64062 31.8638 1.69824 32.0029 1.8008 32.1054C1.90336 32.208 2.04246 32.2656 2.1875 32.2656H4.92188C5.06692 32.2656 5.20601 32.208 5.30857 32.1054C5.41113 32.0029 5.46875 31.8638 5.46875 31.7188C5.46875 31.5737 5.41113 31.4346 5.30857 31.3321C5.20601 31.2295 5.06692 31.1719 4.92188 31.1719Z" fill="#5B5B5B"/>
<path d="M7.10938 31.1719H6.5625C6.41746 31.1719 6.27836 31.2295 6.1758 31.3321C6.07324 31.4346 6.01562 31.5737 6.01562 31.7188C6.01562 31.8638 6.07324 32.0029 6.1758 32.1054C6.27836 32.208 6.41746 32.2656 6.5625 32.2656H7.10938C7.25442 32.2656 7.39352 32.208 7.49607 32.1054C7.59863 32.0029 7.65625 31.8638 7.65625 31.7188C7.65625 31.5737 7.59863 31.4346 7.49607 31.3321C7.39352 31.2295 7.25442 31.1719 7.10938 31.1719Z" fill="#5B5B5B"/>
<path d="M3.28125 9.84375H20.7812C20.9263 9.84375 21.0654 9.78613 21.1679 9.68357C21.2705 9.58102 21.3281 9.44192 21.3281 9.29688V7.10938C21.3281 6.96433 21.2705 6.82524 21.1679 6.72268C21.0654 6.62012 20.9263 6.5625 20.7812 6.5625H3.28125C3.13621 6.5625 2.99711 6.62012 2.89455 6.72268C2.79199 6.82524 2.73438 6.96433 2.73438 7.10938V9.29688C2.73438 9.44192 2.79199 9.58102 2.89455 9.68357C2.99711 9.78613 3.13621 9.84375 3.28125 9.84375ZM3.82812 7.65625H20.2344V8.75H3.82812V7.65625Z" fill="#5B5B5B"/>
<path d="M3.28125 14.2188H20.7812C20.9263 14.2188 21.0654 14.1611 21.1679 14.0586C21.2705 13.956 21.3281 13.8169 21.3281 13.6719V11.4844C21.3281 11.3393 21.2705 11.2002 21.1679 11.0977C21.0654 10.9951 20.9263 10.9375 20.7812 10.9375H3.28125C3.13621 10.9375 2.99711 10.9951 2.89455 11.0977C2.79199 11.2002 2.73438 11.3393 2.73438 11.4844V13.6719C2.73438 13.8169 2.79199 13.956 2.89455 14.0586C2.99711 14.1611 3.13621 14.2188 3.28125 14.2188ZM3.82812 12.0312H20.2344V13.125H3.82812V12.0312Z" fill="#5B5B5B"/>
<path d="M3.28125 18.5938H20.7812C20.9263 18.5938 21.0654 18.5361 21.1679 18.4336C21.2705 18.331 21.3281 18.1919 21.3281 18.0469V15.8594C21.3281 15.7143 21.2705 15.5752 21.1679 15.4727C21.0654 15.3701 20.9263 15.3125 20.7812 15.3125H3.28125C3.13621 15.3125 2.99711 15.3701 2.89455 15.4727C2.79199 15.5752 2.73438 15.7143 2.73438 15.8594V18.0469C2.73438 18.1919 2.79199 18.331 2.89455 18.4336C2.99711 18.5361 3.13621 18.5938 3.28125 18.5938ZM3.82812 16.4062H20.2344V17.5H3.82812V16.4062Z" fill="#5B5B5B"/>
<path d="M13.6719 19.6875H3.28125C3.13621 19.6875 2.99711 19.7451 2.89455 19.8477C2.79199 19.9502 2.73438 20.0893 2.73438 20.2344C2.73438 20.3794 2.79199 20.5185 2.89455 20.6211C2.99711 20.7236 3.13621 20.7812 3.28125 20.7812H13.6719C13.8169 20.7812 13.956 20.7236 14.0586 20.6211C14.1611 20.5185 14.2188 20.3794 14.2188 20.2344C14.2188 20.0893 14.1611 19.9502 14.0586 19.8477C13.956 19.7451 13.8169 19.6875 13.6719 19.6875Z" fill="#5B5B5B"/>
<path d="M10.3906 21.3281H3.28125C3.13621 21.3281 2.99711 21.3857 2.89455 21.4883C2.79199 21.5909 2.73438 21.73 2.73438 21.875C2.73438 22.02 2.79199 22.1591 2.89455 22.2617C2.99711 22.3643 3.13621 22.4219 3.28125 22.4219H10.3906C10.5357 22.4219 10.6748 22.3643 10.7773 22.2617C10.8799 22.1591 10.9375 22.02 10.9375 21.875C10.9375 21.73 10.8799 21.5909 10.7773 21.4883C10.6748 21.3857 10.5357 21.3281 10.3906 21.3281Z" fill="#5B5B5B"/>
<path d="M4.375 24.0625C4.52004 24.0625 4.65914 24.0049 4.7617 23.9023C4.86426 23.7998 4.92188 23.6607 4.92188 23.5156C4.92188 23.3706 4.86426 23.2315 4.7617 23.1289C4.65914 23.0264 4.52004 22.9688 4.375 22.9688H3.28125C3.13621 22.9688 2.99711 23.0264 2.89455 23.1289C2.79199 23.2315 2.73438 23.3706 2.73438 23.5156C2.73438 23.6607 2.79199 23.7998 2.89455 23.9023C2.99711 24.0049 3.13621 24.0625 3.28125 24.0625H4.375Z" fill="#5B5B5B"/>
<path d="M6.5625 24.0625C6.70754 24.0625 6.84664 24.0049 6.9492 23.9023C7.05176 23.7998 7.10938 23.6607 7.10938 23.5156C7.10938 23.3706 7.05176 23.2315 6.9492 23.1289C6.84664 23.0264 6.70754 22.9688 6.5625 22.9688H6.01562C5.87058 22.9688 5.73149 23.0264 5.62893 23.1289C5.52637 23.2315 5.46875 23.3706 5.46875 23.5156C5.46875 23.6607 5.52637 23.7998 5.62893 23.9023C5.73149 24.0049 5.87058 24.0625 6.01562 24.0625H6.5625Z" fill="#5B5B5B"/>
<path d="M30.0781 25.7031C30.0761 24.0579 29.457 22.4733 28.3432 21.2625C27.2293 20.0517 25.7018 19.3027 24.0625 19.1636V4.92188C24.0625 4.85006 24.0484 4.77894 24.0209 4.71259C23.9934 4.64624 23.9531 4.58595 23.9023 4.53517L19.5273 0.160166C19.4766 0.109385 19.4163 0.0691032 19.3499 0.0416219C19.2836 0.0141405 19.2124 -2.61649e-06 19.1406 3.63073e-10H0.546875C0.401835 3.63073e-10 0.262735 0.057617 0.160176 0.160176C0.0576171 0.262735 0 0.401835 0 0.546875V33.3594C0 33.5044 0.0576171 33.6435 0.160176 33.7461C0.262735 33.8486 0.401835 33.9062 0.546875 33.9062H23.5156C23.6607 33.9062 23.7998 33.8486 23.9023 33.7461C24.0049 33.6435 24.0625 33.5044 24.0625 33.3594V32.2427C25.7018 32.1036 27.2293 31.3546 28.3432 30.1438C29.457 28.9329 30.0761 27.3483 30.0781 25.7031V25.7031ZM19.6875 1.8671L22.1954 4.375H19.6875V1.8671ZM1.09375 32.8125V1.09375H18.5938V4.92188C18.5938 5.06692 18.6514 5.20601 18.7539 5.30857C18.8565 5.41113 18.9956 5.46875 19.1406 5.46875H22.9688V19.1636C21.329 19.3011 19.8007 20.0497 18.6869 21.2609C17.573 22.4721 16.9548 24.0576 16.9548 25.7031C16.9548 27.3486 17.573 28.9341 18.6869 30.1453C19.8007 31.3565 21.329 32.1051 22.9688 32.2427V32.8125H1.09375ZM23.5156 31.1719C22.434 31.1719 21.3767 30.8511 20.4774 30.2502C19.578 29.6493 18.8771 28.7952 18.4632 27.7959C18.0492 26.7966 17.9409 25.6971 18.152 24.6362C18.363 23.5754 18.8838 22.601 19.6486 21.8361C20.4135 21.0713 21.3879 20.5505 22.4487 20.3395C23.5096 20.1284 24.6091 20.2367 25.6084 20.6507C26.6077 21.0646 27.4618 21.7655 28.0627 22.6649C28.6636 23.5642 28.9844 24.6215 28.9844 25.7031C28.9827 27.153 28.406 28.5431 27.3808 29.5683C26.3556 30.5935 24.9655 31.1702 23.5156 31.1719V31.1719Z" fill="#5B5B5B"/>
<path d="M27.7305 23.6758C27.6797 23.625 27.6194 23.5847 27.553 23.5572C27.4867 23.5297 27.4156 23.5156 27.3438 23.5156C27.2719 23.5156 27.2008 23.5297 27.1345 23.5572C27.0681 23.5847 27.0078 23.625 26.957 23.6758L23.4309 27.202L21.0626 25.7811C21.001 25.7441 20.9328 25.7196 20.8617 25.7091C20.7907 25.6985 20.7183 25.702 20.6486 25.7194C20.5789 25.7369 20.5134 25.7678 20.4557 25.8106C20.398 25.8533 20.3493 25.9071 20.3123 25.9686C20.2754 26.0302 20.2509 26.0985 20.2403 26.1695C20.2298 26.2405 20.2333 26.313 20.2507 26.3826C20.2681 26.4523 20.2991 26.5179 20.3418 26.5756C20.3846 26.6333 20.4383 26.682 20.4999 26.7189L23.2343 28.3596C23.3388 28.4224 23.4614 28.4484 23.5824 28.4335C23.7035 28.4187 23.8161 28.3638 23.9023 28.2775L27.7305 24.4494C27.7813 24.3986 27.8216 24.3383 27.8491 24.272C27.8766 24.2056 27.8908 24.1344 27.8908 24.0626C27.8908 23.9908 27.8766 23.9196 27.8491 23.8532C27.8216 23.7869 27.7813 23.7266 27.7305 23.6758Z" fill="#5B5B5B"/>
</svg>
