<svg width="15" height="17" viewBox="0 0 15 17" fill="none" xmlns="http://www.w3.org/2000/svg">
<path d="M7.5 0C9.48912 0 11.3968 0.767606 12.8033 2.13395C14.2098 3.5003 15 5.35346 15 7.28577C15 10.7672 12.5812 13.9717 7.835 16.9054C7.73484 16.9672 7.61864 17 7.5 17C7.38136 17 7.26516 16.9672 7.165 16.9054C2.41875 13.9717 0 10.7672 0 7.28577C0 5.35346 0.790176 3.5003 2.1967 2.13395C3.60322 0.767606 5.51088 0 7.5 0ZM7.5 4.85718C6.83696 4.85718 6.20107 5.11305 5.73223 5.5685C5.26339 6.02395 5 6.64167 5 7.28577C5 7.92987 5.26339 8.54759 5.73223 9.00304C6.20107 9.45849 6.83696 9.71436 7.5 9.71436C8.16304 9.71436 8.79893 9.45849 9.26777 9.00304C9.73661 8.54759 10 7.92987 10 7.28577C10 6.64167 9.73661 6.02395 9.26777 5.5685C8.79893 5.11305 8.16304 4.85718 7.5 4.85718Z" fill="#D7D7D7"/>
</svg>
