<svg width="27" height="29" viewBox="0 0 27 29" fill="none" xmlns="http://www.w3.org/2000/svg">
<path d="M26.5714 5.53571C26.5714 4.06755 25.9882 2.65952 24.9501 1.62137C23.9119 0.583225 22.5039 0 21.0357 0H5.53571C4.06755 0 2.65952 0.583225 1.62137 1.62137C0.583225 2.65952 0 4.06755 0 5.53571V21.0357C0 22.5039 0.583225 23.9119 1.62137 24.9501C2.65952 25.9882 4.06755 26.5714 5.53571 26.5714H9.96428V24.3571H5.53571C4.65482 24.3571 3.81 24.0072 3.18711 23.3843C2.56422 22.7614 2.21429 21.9166 2.21429 21.0357V8.85714H24.3571V21.0357C24.3571 21.9166 24.0072 22.7614 23.3843 23.3843C22.7614 24.0072 21.9166 24.3571 21.0357 24.3571H16.6071V26.5714H21.0357C22.5039 26.5714 23.9119 25.9882 24.9501 24.9501C25.9882 23.9119 26.5714 22.5039 26.5714 21.0357V5.53571ZM5.53571 2.21429H21.0357C21.9166 2.21429 22.7614 2.56422 23.3843 3.18711C24.0072 3.81 24.3571 4.65482 24.3571 5.53571V6.64286H2.21429V5.53571C2.21429 4.65482 2.56422 3.81 3.18711 3.18711C3.81 2.56422 4.65482 2.21429 5.53571 2.21429Z" fill="#6FA4E9"/>
<path d="M13.9076 28.5954C14.0572 28.4938 14.1795 28.3571 14.2641 28.1973C14.3486 28.0375 14.3927 27.8595 14.3926 27.6787V20.0792L15.8983 21.3325C16.1247 21.5122 16.4124 21.5962 16.6999 21.5666C16.9874 21.5369 17.2519 21.3961 17.437 21.174C17.622 20.952 17.7129 20.6664 17.6901 20.3782C17.6674 20.0901 17.5329 19.8223 17.3154 19.632L13.994 16.8641C13.795 16.6984 13.5443 16.6077 13.2854 16.6077C13.0265 16.6077 12.7758 16.6984 12.5768 16.8641L9.25541 19.632C9.13976 19.7237 9.04364 19.8377 8.97268 19.9671C8.90173 20.0966 8.85738 20.2389 8.84226 20.3858C8.82713 20.5327 8.84152 20.681 8.88459 20.8223C8.92765 20.9635 8.99853 21.0946 9.09304 21.208C9.18755 21.3214 9.30378 21.4148 9.43491 21.4826C9.56603 21.5505 9.7094 21.5914 9.85657 21.603C10.0037 21.6146 10.1517 21.5966 10.2919 21.5502C10.432 21.5037 10.5614 21.4297 10.6726 21.3325L12.1783 20.0792V27.6787C12.1783 27.9708 12.2937 28.2511 12.4994 28.4584C12.7051 28.6658 12.9845 28.7835 13.2766 28.7858H13.2943C13.5131 28.7847 13.7267 28.7184 13.9076 28.5954Z" fill="#6FA4E9"/>
<path d="M14.9464 12.732C14.9464 13.1725 14.7715 13.5949 14.46 13.9063C14.1486 14.2177 13.7262 14.3927 13.2857 14.3927C12.8453 14.3927 12.4229 14.2177 12.1114 13.9063C11.8 13.5949 11.625 13.1725 11.625 12.732C11.625 12.2916 11.8 11.8691 12.1114 11.5577C12.4229 11.2463 12.8453 11.0713 13.2857 11.0713C13.7262 11.0713 14.1486 11.2463 14.46 11.5577C14.7715 11.8691 14.9464 12.2916 14.9464 12.732Z" fill="#6FA4E9"/>
</svg>
