 <svg width="26" height="26" viewBox="0 0 26 26" fill="none" xmlns="http://www.w3.org/2000/svg">
<path fill-rule="evenodd" clip-rule="evenodd" d="M23.4709 4.50058C22.4061 5.02236 21.3626 5.23426 20.2764 5.55478C19.0827 4.20775 17.313 4.13321 15.6124 4.76999C13.9118 5.40677 12.798 6.96357 12.8225 8.74931V9.81415C9.36709 9.90254 6.28969 8.3287 4.30376 5.55478C4.30376 5.55478 -0.149417 13.4698 8.56313 17.2681C6.56975 18.5959 4.58168 19.4915 2.17407 19.3977C5.69658 21.3177 9.53534 21.9779 12.8587 21.0131C16.6709 19.9057 19.8036 17.0487 21.0058 12.7691C21.3645 11.4675 21.5425 10.1228 21.5351 8.77274C21.5329 8.50759 23.143 5.82099 23.4709 4.49952V4.50058Z" fill="#1DA2F1"/>
</svg>