<svg width="59" height="41" viewBox="0 0 59 41" fill="none" xmlns="http://www.w3.org/2000/svg">
<path d="M57.0011 6.39237C56.6668 5.15683 56.0146 4.03043 55.1096 3.12533C54.2045 2.22022 53.0781 1.56801 51.8426 1.23362C47.3193 0 29.1147 0 29.1147 0C29.1147 0 10.9091 0.0373409 6.38581 1.27096C5.15026 1.60537 4.02387 2.25762 3.1188 3.16276C2.21374 4.06791 1.56159 5.19436 1.22729 6.42994C-0.140896 14.4669 -0.671639 26.7134 1.26486 34.4289C1.59919 35.6644 2.25136 36.7908 3.15642 37.6959C4.06148 38.601 5.18786 39.2532 6.42338 39.5876C10.9467 40.8213 29.1518 40.8213 29.1518 40.8213C29.1518 40.8213 47.3567 40.8213 51.8797 39.5876C53.1153 39.2533 54.2417 38.6011 55.1468 37.696C56.0519 36.7909 56.7041 35.6644 57.0385 34.4289C58.4815 26.3805 58.9262 14.1418 57.0011 6.3926V6.39237Z" fill="#FF0000"/>
<path d="M23.3198 29.1578L38.4222 20.4104L23.3201 11.6631L23.3198 29.1578Z" fill="white"/>
</svg>
