<svg width="31" height="31" viewBox="0 0 31 31" fill="none" xmlns="http://www.w3.org/2000/svg">
<circle cx="15.5" cy="15.5" r="15.25" fill="#F4F4F5" stroke="#E6E6E9" stroke-width="0.5"/>
<path d="M10.1334 12.4301C9.31917 12.4301 8.66049 11.7902 8.66049 10.9992C8.66049 10.6198 8.81567 10.2558 9.09189 9.98749C9.36811 9.71915 9.74274 9.5684 10.1334 9.5684C10.9476 9.5684 11.6063 10.2083 11.6063 10.9992C11.6063 11.3787 11.4511 11.7427 11.1749 12.011C10.8986 12.2793 10.524 12.4301 10.1334 12.4301V12.4301ZM10.1334 7C7.84628 7 6.0166 8.77744 6.0166 10.9992C6.0166 13.9942 10.1334 18.429 10.1334 18.429C10.1334 18.429 14.2502 13.9942 14.2502 10.9992C14.2502 8.77744 12.4205 7 10.1334 7ZM20.1966 12.4301C19.806 12.4301 19.4313 12.2793 19.1551 12.011C18.8789 11.7427 18.7237 11.3787 18.7237 10.9992C18.7237 10.8113 18.7618 10.6253 18.8358 10.4517C18.9099 10.2781 19.0183 10.1204 19.1551 9.98749C19.2919 9.85462 19.4543 9.74923 19.633 9.67732C19.8117 9.60541 20.0032 9.5684 20.1966 9.5684C20.39 9.5684 20.5816 9.60541 20.7603 9.67732C20.939 9.74923 21.1013 9.85462 21.2381 9.98749C21.3749 10.1204 21.4834 10.2781 21.5574 10.4517C21.6314 10.6253 21.6695 10.8113 21.6695 10.9992C21.6695 11.3787 21.5143 11.7427 21.2381 12.011C20.9619 12.2793 20.5872 12.4301 20.1966 12.4301ZM20.1966 7C17.9095 7 16.0798 8.77744 16.0798 10.9992C16.0798 13.9942 20.1966 18.429 20.1966 18.429C20.1966 18.429 24.3134 13.9942 24.3134 10.9992C24.3134 8.77744 22.4837 7 20.1966 7V7ZM20.1966 19.4421C19.0348 19.4421 18.001 20.1531 17.6168 21.2195H12.7132C12.4708 20.5544 11.9669 20.0097 11.3118 19.7049C10.6568 19.4 9.90402 19.3599 9.21854 19.5932C8.87784 19.7092 8.564 19.8892 8.29498 20.1231C8.02596 20.357 7.80702 20.64 7.65069 20.9562C7.49436 21.2723 7.4037 21.6152 7.38389 21.9654C7.36408 22.3156 7.41551 22.6661 7.53523 22.997C7.78093 23.6639 8.28828 24.2092 8.94648 24.5139C9.60468 24.8187 10.3603 24.858 11.0482 24.6233C11.8258 24.3567 12.4205 23.7524 12.7132 22.997H17.6259C18.1291 24.3834 19.7026 25.1121 21.1114 24.6233C21.4532 24.5086 21.7682 24.3293 22.0384 24.0959C22.3086 23.8625 22.5287 23.5795 22.6859 23.2632C22.8432 22.9469 22.9346 22.6035 22.9548 22.2528C22.9751 21.9021 22.9238 21.5509 22.8039 21.2195C22.4105 20.1531 21.3676 19.4421 20.1966 19.4421ZM20.1966 23.4413C19.8327 23.4413 19.4836 23.3009 19.2263 23.0509C18.9689 22.8009 18.8243 22.4618 18.8243 22.1083C18.8243 21.7547 18.9689 21.4156 19.2263 21.1656C19.4836 20.9156 19.8327 20.7752 20.1966 20.7752C20.5606 20.7752 20.9096 20.9156 21.1669 21.1656C21.4243 21.4156 21.5689 21.7547 21.5689 22.1083C21.5689 22.4618 21.4243 22.8009 21.1669 23.0509C20.9096 23.3009 20.5606 23.4413 20.1966 23.4413Z" fill="#7B8794"/>
</svg>
