<svg width="13" height="12" viewBox="0 0 13 12" fill="none" xmlns="http://www.w3.org/2000/svg">
<path d="M12 4.64815C12 4.67284 12.0062 4.69136 12.0185 4.7037C12.0309 4.71605 12.0309 4.73457 12.0185 4.75926V5.12963C12.0185 5.25309 11.9753 5.35802 11.8889 5.44444C11.8025 5.53086 11.6975 5.57407 11.5741 5.57407H10.7222V11.5741C10.7222 11.6975 10.6852 11.7963 10.6111 11.8704C10.537 11.9444 10.4321 11.9877 10.2963 12H1.72222C1.59877 12 1.49383 11.9568 1.40741 11.8704C1.32099 11.784 1.27778 11.6852 1.27778 11.5741V5.57407H0.425926C0.302469 5.57407 0.203704 5.53086 0.12963 5.44444C0.0555556 5.35802 0.0123457 5.25309 0 5.12963V4.75926C0 4.70988 0.00617284 4.67284 0.0185185 4.64815L1.11111 0.62963C1.17284 0.432099 1.27778 0.277778 1.42593 0.166667C1.57407 0.0555556 1.74691 0 1.94444 0H10.0741C10.2716 0 10.4444 0.0555556 10.5926 0.166667C10.7407 0.277778 10.8395 0.432099 10.8889 0.62963L12 4.64815ZM9.44444 5.57407H2.57407V7.92593C2.57407 7.98765 2.59877 8.03704 2.64815 8.07407C2.69753 8.11111 2.74691 8.1358 2.7963 8.14815H9.22222C9.28395 8.14815 9.33951 8.12346 9.38889 8.07407C9.43827 8.02469 9.45679 7.97531 9.44444 7.92593V5.57407Z" fill="#6FA4E9"/>
</svg>
