<svg width="16" height="12" viewBox="0 0 16 12" fill="none" xmlns="http://www.w3.org/2000/svg">
<path d="M7.99976 8.39661C9.10433 8.39661 9.99976 7.50118 9.99976 6.39661C9.99976 5.29204 9.10433 4.39661 7.99976 4.39661C6.89519 4.39661 5.99976 5.29204 5.99976 6.39661C5.99976 7.50118 6.89519 8.39661 7.99976 8.39661Z" fill="#989898"/>
<path d="M15.4698 6.22661C14.8817 4.70543 13.8608 3.38991 12.5332 2.44265C11.2056 1.49538 9.62953 0.957893 7.99979 0.896606C6.37005 0.957893 4.79398 1.49538 3.46639 2.44265C2.1388 3.38991 1.11787 4.70543 0.529787 6.22661C0.490071 6.33646 0.490071 6.45675 0.529787 6.56661C1.11787 8.08778 2.1388 9.4033 3.46639 10.3506C4.79398 11.2978 6.37005 11.8353 7.99979 11.8966C9.62953 11.8353 11.2056 11.2978 12.5332 10.3506C13.8608 9.4033 14.8817 8.08778 15.4698 6.56661C15.5095 6.45675 15.5095 6.33646 15.4698 6.22661ZM7.99979 9.64661C7.357 9.64661 6.72864 9.456 6.19418 9.09888C5.65972 8.74177 5.24316 8.23419 4.99718 7.64033C4.75119 7.04647 4.68683 6.393 4.81224 5.76256C4.93764 5.13212 5.24717 4.55303 5.70169 4.09851C6.15621 3.64399 6.73531 3.33446 7.36574 3.20905C7.99618 3.08365 8.64965 3.14801 9.24351 3.394C9.83737 3.63998 10.3449 4.05654 10.7021 4.591C11.0592 5.12546 11.2498 5.75382 11.2498 6.39661C11.2485 7.25815 10.9056 8.08404 10.2964 8.69324C9.68722 9.30245 8.86133 9.64528 7.99979 9.64661Z" fill="#989898"/>
</svg>
