<svg width="28" height="28" viewBox="0 0 28 28" fill="none" xmlns="http://www.w3.org/2000/svg">
<path fill-rule="evenodd" clip-rule="evenodd" d="M4.16327 1H23.1429C23.9818 1 24.7864 1.33327 25.3796 1.9265C25.9728 2.51973 26.3061 3.32432 26.3061 4.16327V23.127C26.3061 23.966 25.9728 24.7706 25.3796 25.3638C24.7864 25.957 23.9818 26.2903 23.1429 26.2903H4.16327C3.32432 26.2903 2.51973 25.957 1.9265 25.3638C1.33327 24.7706 1 23.966 1 23.127V4.16327C1 3.32432 1.33327 2.51973 1.9265 1.9265C2.51973 1.33327 3.32432 1 4.16327 1V1Z" stroke="black" stroke-width="2" stroke-linecap="round" stroke-linejoin="round"/>
<path d="M1.25146 7.32666H26.3061" stroke="black" stroke-width="2" stroke-linecap="round" stroke-linejoin="round"/>
<path d="M24.5336 16.3321C24.432 16.1826 24.2954 16.0602 24.1356 15.9757C23.9758 15.8912 23.7977 15.847 23.6169 15.8472L16.0175 15.8472L17.2708 14.3415C17.4504 14.1151 17.5344 13.8274 17.5048 13.5399C17.4752 13.2523 17.3343 12.9878 17.1122 12.8028C16.8902 12.6178 16.6046 12.5269 16.3165 12.5496C16.0283 12.5723 15.7605 12.7068 15.5702 12.9243L12.8023 16.2458C12.6366 16.4447 12.5459 16.6954 12.5459 16.9543C12.5459 17.2132 12.6366 17.464 12.8023 17.6629L15.5702 20.9843C15.662 21.1 15.7759 21.1961 15.9054 21.2671C16.0348 21.338 16.1772 21.3824 16.324 21.3975C16.4709 21.4126 16.6193 21.3982 16.7605 21.3552C16.9017 21.3121 17.0329 21.2412 17.1463 21.1467C17.2597 21.0522 17.353 20.936 17.4209 20.8048C17.4887 20.6737 17.5296 20.5303 17.5412 20.3832C17.5528 20.236 17.5349 20.088 17.4884 19.9479C17.442 19.8077 17.368 19.6783 17.2708 19.5672L16.0175 18.0615L23.6169 18.0615C23.909 18.0615 24.1893 17.9461 24.3967 17.7403C24.604 17.5346 24.7217 17.2553 24.7241 16.9632L24.7241 16.9455C24.723 16.7266 24.6567 16.5131 24.5336 16.3321Z" fill="black"/>
<path d="M9.22475 16.421C9.22475 16.8614 9.04978 17.2838 8.73834 17.5953C8.42689 17.9067 8.00448 18.0817 7.56403 18.0817C7.12359 18.0817 6.70118 17.9067 6.38973 17.5953C6.07829 17.2838 5.90332 16.8614 5.90332 16.421C5.90332 15.9805 6.07829 15.5581 6.38973 15.2467C6.70118 14.9352 7.12359 14.7603 7.56403 14.7603C8.00448 14.7603 8.42689 14.9352 8.73834 15.2467C9.04978 15.5581 9.22475 15.9805 9.22475 16.421Z" fill="black"/>
</svg>
